<svg width="306" height="80" viewBox="0 0 306 80" fill="none" xmlns="http://www.w3.org/2000/svg">
<rect x="256.857" y="26.2857" width="18.2857" height="40" fill="#121212"/>
<path d="M240.9 68.3458H291.1C296.233 68.3458 299.433 62.7792 296.867 58.3458L271.767 14.9792C269.2 10.5458 262.8 10.5458 260.233 14.9792L235.133 58.3458C232.567 62.7792 235.767 68.3458 240.9 68.3458ZM266 45.0125C264.167 45.0125 262.667 43.5125 262.667 41.6792V35.0125C262.667 33.1792 264.167 31.6792 266 31.6792C267.833 31.6792 269.333 33.1792 269.333 35.0125V41.6792C269.333 43.5125 267.833 45.0125 266 45.0125ZM269.333 58.3458H262.667V51.6792H269.333V58.3458Z" fill="#FFC400"/>
<rect y="10" width="63" height="63" rx="8" fill="url(#paint0_linear_2_2731)"/>
<circle cx="31" cy="41" r="19" fill="#96B70F"/>
<path fill-rule="evenodd" clip-rule="evenodd" d="M38.8825 36.9264C39.0243 36.7565 39.1323 36.5587 39.2001 36.3444C39.2679 36.1302 39.2941 35.9039 39.2771 35.6789C39.2602 35.4538 39.2005 35.2347 39.1015 35.0342C39.0026 34.8337 38.8663 34.656 38.7008 34.5115C38.5353 34.367 38.344 34.2586 38.1379 34.1928C37.9319 34.1269 37.7153 34.1049 37.5011 34.1281C37.2868 34.1512 37.0791 34.219 36.8902 34.3275C36.7013 34.4359 36.535 34.5829 36.4011 34.7597L29.4544 43.4925L25.8599 39.7245C25.5552 39.4162 25.1471 39.2455 24.7235 39.2494C24.3 39.2533 23.8948 39.4313 23.5952 39.7451C23.2957 40.059 23.1258 40.4835 23.1221 40.9274C23.1185 41.3712 23.2813 41.7988 23.5756 42.118L28.4221 47.1962C28.5808 47.3624 28.7709 47.4922 28.9801 47.5772C29.1894 47.6622 29.4132 47.7006 29.6374 47.6899C29.8616 47.6792 30.0812 47.6197 30.2822 47.5152C30.4832 47.4107 30.6613 47.2634 30.805 47.0828L38.8825 36.9264Z" fill="white"/>
<rect x="123" y="10" width="63" height="63" rx="8" fill="url(#paint1_linear_2_2731)"/>
<circle cx="154" cy="41" r="19" fill="#96B70F"/>
<path fill-rule="evenodd" clip-rule="evenodd" d="M160.924 36.9264C161.065 36.7565 161.173 36.5587 161.241 36.3444C161.309 36.1302 161.335 35.9039 161.318 35.6789C161.301 35.4538 161.242 35.2347 161.143 35.0342C161.044 34.8337 160.907 34.656 160.742 34.5115C160.576 34.367 160.385 34.2586 160.179 34.1928C159.973 34.1269 159.756 34.1049 159.542 34.1281C159.328 34.1512 159.12 34.219 158.931 34.3275C158.742 34.4359 158.576 34.5829 158.442 34.7597L151.495 43.4925L147.901 39.7245C147.596 39.4162 147.188 39.2455 146.765 39.2494C146.341 39.2533 145.936 39.4313 145.636 39.7451C145.337 40.059 145.167 40.4835 145.163 40.9274C145.159 41.3712 145.322 41.7988 145.617 42.118L150.463 47.1962C150.622 47.3624 150.812 47.4922 151.021 47.5772C151.23 47.6622 151.454 47.7006 151.678 47.6899C151.903 47.6792 152.122 47.6197 152.323 47.5152C152.524 47.4107 152.702 47.2634 152.846 47.0828L160.924 36.9264Z" fill="white"/>
<path d="M77 40.5C76.1716 40.5 75.5 41.1716 75.5 42C75.5 42.8284 76.1716 43.5 77 43.5V40.5ZM108.061 43.0607C108.646 42.4749 108.646 41.5251 108.061 40.9393L98.5147 31.3934C97.9289 30.8076 96.9792 30.8076 96.3934 31.3934C95.8076 31.9792 95.8076 32.9289 96.3934 33.5147L104.879 42L96.3934 50.4853C95.8076 51.0711 95.8076 52.0208 96.3934 52.6066C96.9792 53.1924 97.9289 53.1924 98.5147 52.6066L108.061 43.0607ZM77 43.5H107V40.5H77V43.5Z" fill="#C6C6C6"/>
<path d="M199 42H239" stroke="#C6C6C6" stroke-width="3" stroke-linecap="round" stroke-dasharray="6 6"/>
<defs>
<linearGradient id="paint0_linear_2_2731" x1="70" y1="41" x2="-61" y2="41" gradientUnits="userSpaceOnUse">
<stop offset="0.283809" stop-color="#E9E9E9"/>
<stop offset="1" stop-color="#838383"/>
</linearGradient>
<linearGradient id="paint1_linear_2_2731" x1="193" y1="41" x2="62" y2="41" gradientUnits="userSpaceOnUse">
<stop offset="0.283809" stop-color="#E9E9E9"/>
<stop offset="1" stop-color="#838383"/>
</linearGradient>
</defs>
</svg>
