<svg width="24" height="25" viewBox="0 0 24 25" fill="none" xmlns="http://www.w3.org/2000/svg">
<mask id="mask0_1730_4893" style="mask-type:alpha" maskUnits="userSpaceOnUse" x="0" y="0" width="24" height="25">
<rect y="0.828491" width="24" height="24" fill="#D9D9D9"/>
</mask>
<g mask="url(#mask0_1730_4893)">
<path d="M12 22.4055C11.4948 22.4055 11.0593 22.2305 10.6933 21.8805C10.3273 21.5305 10.1283 21.1029 10.0963 20.5977H13.9038C13.8718 21.1029 13.6728 21.5305 13.3068 21.8805C12.9408 22.2305 12.5052 22.4055 12 22.4055ZM9 19.213C8.78717 19.213 8.609 19.1412 8.4655 18.9977C8.32183 18.8541 8.25 18.6758 8.25 18.463C8.25 18.2502 8.32183 18.072 8.4655 17.9285C8.609 17.7848 8.78717 17.713 9 17.713H15C15.2128 17.713 15.391 17.7848 15.5345 17.9285C15.6782 18.072 15.75 18.2502 15.75 18.463C15.75 18.6758 15.6782 18.8541 15.5345 18.9977C15.391 19.1412 15.2128 19.213 15 19.213H9ZM8.40375 16.3285C7.35642 15.6772 6.52733 14.8262 5.9165 13.7755C5.3055 12.725 5 11.576 5 10.3285C5 8.37983 5.6795 6.72599 7.0385 5.36699C8.3975 4.00799 10.0513 3.32849 12 3.32849C13.9487 3.32849 15.6025 4.00799 16.9615 5.36699C18.3205 6.72599 19 8.37983 19 10.3285C19 11.576 18.6945 12.725 18.0835 13.7755C17.4727 14.8262 16.6436 15.6772 15.5962 16.3285H8.40375ZM8.85 14.8285H15.15C15.9 14.2952 16.4792 13.6368 16.8875 12.8535C17.2958 12.0702 17.5 11.2285 17.5 10.3285C17.5 8.79516 16.9667 7.49516 15.9 6.42849C14.8333 5.36182 13.5333 4.82849 12 4.82849C10.4667 4.82849 9.16667 5.36182 8.1 6.42849C7.03333 7.49516 6.5 8.79516 6.5 10.3285C6.5 11.2285 6.70417 12.0702 7.1125 12.8535C7.52083 13.6368 8.1 14.2952 8.85 14.8285Z" fill="#2A5595"/>
</g>
</svg>
