<svg width="60" height="60" viewBox="0 0 60 60" fill="none" xmlns="http://www.w3.org/2000/svg">
<circle cx="30" cy="30" r="30" fill="#002DD1"/>
<path fill-rule="evenodd" clip-rule="evenodd" d="M31.6895 19.5858C31.6895 18.9656 31.1594 18.4629 30.5055 18.4629C29.8516 18.4629 29.3215 18.9656 29.3215 19.5858V28.8798H19.6449C18.991 28.8798 18.4609 29.3826 18.4609 30.0027C18.4609 30.6229 18.991 31.1256 19.6449 31.1256H29.3215V40.4196C29.3215 41.0397 29.8516 41.5425 30.5055 41.5425C31.1594 41.5425 31.6895 41.0397 31.6895 40.4196V31.1256H40.356C41.0099 31.1256 41.54 30.6229 41.54 30.0027C41.54 29.3826 41.0099 28.8798 40.356 28.8798H31.6895V19.5858Z" fill="white"/>
<path fill-rule="evenodd" clip-rule="evenodd" d="M30.4769 19.6211V28.8794C30.4769 29.4249 30.0984 29.882 29.5896 30.0023C30.0984 30.1226 30.4769 30.5797 30.4769 31.1252V40.3833C30.4838 40.3859 30.4937 40.3882 30.507 40.3882C30.5204 40.3882 30.5302 40.3859 30.5372 40.3833V31.1252C30.5372 30.5797 30.9157 30.1226 31.4244 30.0023C30.9157 29.882 30.5372 29.4249 30.5372 28.8794V19.6211C30.5302 19.6185 30.5204 19.6163 30.507 19.6163C30.4937 19.6163 30.4838 19.6185 30.4769 19.6211ZM28.1692 19.5853C28.1692 18.2711 29.2743 17.3086 30.507 17.3086C31.7398 17.3086 32.8449 18.2711 32.8449 19.5853V27.7255H40.3575C41.5903 27.7255 42.6953 28.688 42.6953 30.0023C42.6953 31.3165 41.5903 32.279 40.3575 32.279H32.8449V40.4191C32.8449 41.7334 31.7398 42.6959 30.507 42.6959C29.2743 42.6959 28.1692 41.7334 28.1692 40.4191V32.279H19.6464C18.4136 32.279 17.3086 31.3165 17.3086 30.0023C17.3086 28.688 18.4136 27.7255 19.6464 27.7255H28.1692V19.5853Z" fill="white"/>
</svg>
