<svg width="24" height="25" viewBox="0 0 24 25" fill="none" xmlns="http://www.w3.org/2000/svg">
<mask id="mask0_1730_4902" style="mask-type:alpha" maskUnits="userSpaceOnUse" x="0" y="0" width="24" height="25">
<rect y="0.828491" width="24" height="24" fill="#D9D9D9"/>
</mask>
<g mask="url(#mask0_1730_4902)">
<path d="M17.8652 13.5592C18.0781 13.5592 18.2563 13.4874 18.4 13.3437C18.5435 13.2002 18.6152 13.0221 18.6152 12.8092C18.6152 12.5964 18.5435 12.4182 18.4 12.2747C18.2563 12.1311 18.0781 12.0592 17.8652 12.0592H14.827C14.6142 12.0592 14.4359 12.1311 14.2923 12.2747C14.1488 12.4182 14.077 12.5964 14.077 12.8092C14.077 13.0221 14.1488 13.2002 14.2923 13.3437C14.4359 13.4874 14.6142 13.5592 14.827 13.5592H17.8652ZM17.8652 10.6747C18.0781 10.6747 18.2563 10.6029 18.4 10.4592C18.5435 10.3157 18.6152 10.1376 18.6152 9.92474C18.6152 9.71191 18.5435 9.53366 18.4 9.38999C18.2563 9.24649 18.0781 9.17474 17.8652 9.17474H14.827C14.6142 9.17474 14.4359 9.24649 14.2923 9.38999C14.1488 9.53366 14.077 9.71191 14.077 9.92474C14.077 10.1376 14.1488 10.3157 14.2923 10.4592C14.4359 10.6029 14.6142 10.6747 14.827 10.6747H17.8652ZM9.0385 13.9822C8.46417 13.9822 7.96092 14.0284 7.52875 14.1207C7.09675 14.2131 6.71342 14.3599 6.37875 14.5612C6.07375 14.7394 5.84242 14.9387 5.68475 15.1592C5.52692 15.3797 5.448 15.6162 5.448 15.8687C5.448 16.0432 5.515 16.1891 5.649 16.3062C5.783 16.4236 5.94875 16.4822 6.14625 16.4822H11.9308C12.1283 16.4822 12.2939 16.4194 12.4277 16.2937C12.5617 16.1682 12.6287 16.0132 12.6287 15.8285C12.6287 15.6028 12.5515 15.3839 12.397 15.1717C12.2425 14.9596 12.0095 14.7561 11.698 14.5612C11.3635 14.3599 10.9802 14.2131 10.548 14.1207C10.116 14.0284 9.61283 13.9822 9.0385 13.9822ZM9.0385 12.6747C9.52433 12.6747 9.93742 12.5045 10.2777 12.164C10.6182 11.8237 10.7885 11.4106 10.7885 10.9247C10.7885 10.4387 10.6182 10.0256 10.2777 9.68524C9.93742 9.34491 9.52433 9.17474 9.0385 9.17474C8.55267 9.17474 8.1395 9.34491 7.799 9.68524C7.45867 10.0256 7.2885 10.4387 7.2885 10.9247C7.2885 11.4106 7.45867 11.8237 7.799 12.164C8.1395 12.5045 8.55267 12.6747 9.0385 12.6747ZM4.30775 20.3285C3.80258 20.3285 3.375 20.1535 3.025 19.8035C2.675 19.4535 2.5 19.0259 2.5 18.5207V7.13624C2.5 6.63107 2.675 6.20349 3.025 5.85349C3.375 5.50349 3.80258 5.32849 4.30775 5.32849H19.6923C20.1974 5.32849 20.625 5.50349 20.975 5.85349C21.325 6.20349 21.5 6.63107 21.5 7.13624V18.5207C21.5 19.0259 21.325 19.4535 20.975 19.8035C20.625 20.1535 20.1974 20.3285 19.6923 20.3285H4.30775ZM4.30775 18.8285H19.6923C19.7693 18.8285 19.8398 18.7964 19.9038 18.7322C19.9679 18.6682 20 18.5977 20 18.5207V7.13624C20 7.05924 19.9679 6.98874 19.9038 6.92474C19.8398 6.86057 19.7693 6.82849 19.6923 6.82849H4.30775C4.23075 6.82849 4.16025 6.86057 4.09625 6.92474C4.03208 6.98874 4 7.05924 4 7.13624V18.5207C4 18.5977 4.03208 18.6682 4.09625 18.7322C4.16025 18.7964 4.23075 18.8285 4.30775 18.8285Z" fill="#2A5595"/>
</g>
</svg>
