<svg width="16" height="20" viewBox="0 0 16 20" fill="none" xmlns="http://www.w3.org/2000/svg">
<path d="M2.30775 19.5C1.80258 19.5 1.375 19.325 1.025 18.975C0.675 18.625 0.5 18.1974 0.5 17.6923V2.30775C0.5 1.80258 0.675 1.375 1.025 1.025C1.375 0.675 1.80258 0.5 2.30775 0.5H9.93075C10.2024 0.5 10.4589 0.55675 10.7003 0.67025C10.9418 0.783583 11.1455 0.946083 11.3115 1.15775L15.073 5.67125C15.2078 5.83742 15.3127 6.01867 15.3875 6.215C15.4625 6.4115 15.5 6.61675 15.5 6.83075V17.3845C15.5 17.7903 15.3151 18.0684 14.9453 18.2188C14.5753 18.3691 14.248 18.3019 13.9635 18.0173L9.86525 13.95C9.58192 14.1397 9.28783 14.2788 8.983 14.3673C8.67817 14.4558 8.3505 14.5 8 14.5C7.0375 14.5 6.21358 14.1573 5.52825 13.4718C4.84275 12.7864 4.5 11.9625 4.5 11C4.5 10.0375 4.84275 9.21358 5.52825 8.52825C6.21358 7.84275 7.0375 7.5 8 7.5C8.9625 7.5 9.78642 7.84275 10.4718 8.52825C11.1573 9.21358 11.5 10.0375 11.5 11C11.5 11.3642 11.4542 11.6985 11.3625 12.003C11.2708 12.3073 11.1333 12.5947 10.95 12.8652L14 15.9655V6.7L10.05 2H2.30775C2.23075 2 2.16025 2.03208 2.09625 2.09625C2.03208 2.16025 2 2.23075 2 2.30775V17.6923C2 17.7693 2.03208 17.8398 2.09625 17.9038C2.16025 17.9679 2.23075 18 2.30775 18H10.777C11.027 18 11.2145 18.0779 11.3395 18.2337C11.4645 18.3897 11.527 18.5613 11.527 18.7483C11.527 18.9353 11.4645 19.1073 11.3395 19.2645C11.2145 19.4215 11.027 19.5 10.777 19.5H2.30775ZM8 13C8.55 13 9.02083 12.8042 9.4125 12.4125C9.80417 12.0208 10 11.55 10 11C10 10.45 9.80417 9.97917 9.4125 9.5875C9.02083 9.19583 8.55 9 8 9C7.45 9 6.97917 9.19583 6.5875 9.5875C6.19583 9.97917 6 10.45 6 11C6 11.55 6.19583 12.0208 6.5875 12.4125C6.97917 12.8042 7.45 13 8 13Z" fill="#6D6D6D"/>
</svg>
