<svg width="67" height="50" viewBox="0 0 67 50" fill="none" xmlns="http://www.w3.org/2000/svg">
<path d="M54.0253 35.6612C53.778 34.0302 53.1036 32.5232 52.0625 31.3302C51.9364 31.1857 51.8043 31.0428 51.6631 30.9072M38.9932 36.1759C39.2404 37.8069 39.9149 39.3139 40.956 40.5069C41.0841 40.6537 41.2152 40.791 41.349 40.923M40.6585 32.3255C40.3901 33.0921 40.2464 33.9197 40.2464 34.7689C40.2464 36.519 40.8442 38.1661 41.9211 39.4044L41.9217 39.4051C43.0059 40.6431 44.4432 41.3282 45.9706 41.3282M51.9997 39.9244C52.2681 39.1577 52.4118 38.3302 52.4118 37.481C52.4118 35.7309 51.8139 34.0838 50.7371 32.8455L50.7364 32.8447C49.6523 31.6068 48.215 30.9216 46.6875 30.9216M46.6875 37.7906C45.8879 37.7906 45.1348 37.4316 44.5692 36.7835C44.0029 36.1346 43.6943 35.2718 43.6903 34.3576V34.3561C43.6903 33.4398 44.0036 32.5768 44.5692 31.9287C45.1348 31.2807 45.8882 30.9212 46.6889 30.9258M48.975 41.0268C48.988 41.0118 49.0014 40.9982 49.0086 40.9908L49.0099 40.9895L49.0191 40.98L49.0218 40.9772C49.7457 40.1477 50.1423 39.0499 50.1423 37.8814C50.1423 36.7126 49.7456 35.6149 49.0254 34.7897C48.3015 33.9601 47.3435 33.5057 46.3237 33.5057C46.0331 33.5057 45.7587 33.637 45.5486 33.874C45.3406 34.1128 45.2286 34.4258 45.2286 34.7606C45.2286 35.0952 45.344 35.4128 45.5493 35.648C45.7578 35.8869 46.0312 36.0155 46.3237 36.0155C46.7605 36.0155 47.1703 36.2143 47.4788 36.5629L47.4802 36.5644C47.7905 36.92 47.9592 37.391 47.9592 37.8896C47.9592 38.3889 47.7865 38.8639 47.4802 39.2148C47.1699 39.5704 46.7589 39.7637 46.3237 39.7637C45.1604 39.7637 44.065 39.2439 43.2399 38.2984C42.4183 37.3569 41.9648 36.1017 41.9648 34.7689C41.9648 33.4314 42.4222 32.1763 43.2435 31.2352C43.2506 31.2271 43.258 31.2195 43.2658 31.2124C43.27 31.2085 43.2789 31.1998 43.2892 31.1896L43.301 31.1778L43.3044 31.1743L43.3055 31.1732" stroke="#6A756E" stroke-width="1.5" stroke-linecap="round" stroke-linejoin="round"/>
<path d="M0 28.2072V45.011C0 47.7671 1.95325 50 4.3643 50H62.3024C64.7134 50 66.6667 47.7671 66.6667 45.011V4.98902C66.6667 2.23285 64.7134 0 62.3024 0H4.3643C1.95325 0 0 2.23285 0 4.98902V28.2072Z" fill="#6EBA87"/>
<path d="M4.07373 27.9888V41.7149C4.07373 43.9662 5.79911 45.7901 7.92887 45.7901H59.1075C61.2373 45.7901 62.9626 43.9662 62.9626 41.7149V9.02324C62.9626 6.77188 61.2373 4.948 59.1075 4.948H7.92887C5.79911 4.948 4.07373 6.77188 4.07373 9.02324V27.9888Z" fill="#E0F1C9"/>
<path d="M11.6299 35.79C10.5253 35.79 9.62988 34.8946 9.62988 33.79L9.62988 16.2111C9.62988 15.1065 10.5253 14.2111 11.6299 14.2111H28.4632C29.5678 14.2111 30.4632 15.1065 30.4632 16.2111V33.79C30.4632 34.8946 29.5678 35.79 28.4632 35.79H11.6299Z" fill="#F3F1F1"/>
<path d="M11.6299 35.74C10.5529 35.74 9.67988 34.867 9.67988 33.79L9.67988 16.2111C9.67988 15.1341 10.5529 14.2611 11.6299 14.2611H28.4632C29.5402 14.2611 30.4132 15.1341 30.4132 16.2111V33.79C30.4132 34.867 29.5402 35.74 28.4632 35.74H11.6299Z" stroke="#ACABA9" stroke-opacity="0.7" stroke-width="0.1" stroke-linejoin="round"/>
<path d="M37.9258 35.79C36.8212 35.79 35.9258 34.8946 35.9258 33.79V16.2111C35.9258 15.1065 36.8212 14.2111 37.9258 14.2111H54.7591C55.8637 14.2111 56.7591 15.1065 56.7591 16.2111V33.79C56.7591 34.8946 55.8637 35.79 54.7591 35.79H37.9258Z" fill="#FFFFFE"/>
<path d="M37.9258 35.74C36.8488 35.74 35.9758 34.867 35.9758 33.79V16.2111C35.9758 15.1341 36.8488 14.2611 37.9258 14.2611H54.7591C55.8361 14.2611 56.7091 15.1341 56.7091 16.2111V33.79C56.7091 34.867 55.8361 35.74 54.7591 35.74H37.9258Z" stroke="#ACABA9" stroke-opacity="0.7" stroke-width="0.1" stroke-linejoin="round"/>
<path d="M44.1175 23.387C43.7718 24.0485 43.604 25.01 43.604 25.7793C43.604 26.5485 43.9397 27.7023 44.1142 28.1677" stroke="#87938B" stroke-width="1.2" stroke-linecap="round" stroke-linejoin="round"/>
<path d="M50.7317 26.8931C50.3692 26.547 50 25.9701 50 25.7316C50 25.3932 50.3692 24.8162 50.7317 24.5547" stroke="#87938B" stroke-width="1.2" stroke-linecap="round" stroke-linejoin="round"/>
<path d="M48.1098 21.6292C47.17 23.0869 46.6665 24.3484 46.6665 25.7791C46.6665 27.2099 47.17 28.8561 48.1836 30.0253" stroke="#87938B" stroke-width="1.2" stroke-linecap="round" stroke-linejoin="round"/>
<mask id="mask0_70_5998" style="mask-type:alpha" maskUnits="userSpaceOnUse" x="10" y="14" width="20" height="23">
<path d="M11.5005 36.2949C10.6721 36.2949 10.0005 35.6233 10.0005 34.7949L10.0005 16.4986C10.0005 15.6702 10.6721 14.9986 11.5005 14.9986H27.6672C28.4956 14.9986 29.1672 15.6702 29.1672 16.4986V34.7949C29.1672 35.6234 28.4956 36.2949 27.6672 36.2949H11.5005Z" fill="#EDEFD2"/>
<path d="M11.5005 36.2449C10.6997 36.2449 10.0505 35.5957 10.0505 34.7949L10.0505 16.4986C10.0505 15.6978 10.6997 15.0486 11.5005 15.0486H27.6672C28.468 15.0486 29.1172 15.6978 29.1172 16.4986V34.7949C29.1172 35.5957 28.468 36.2449 27.6672 36.2449H11.5005Z" stroke="#ACABA9" stroke-opacity="0.7" stroke-width="0.1" stroke-linejoin="round"/>
</mask>
<g mask="url(#mask0_70_5998)">
<path d="M29.5815 24.4725C29.5292 24.1261 31.4936 23.8149 31.4209 23.4735C31.1089 22.0025 33.0047 20.1721 31.9502 19.2556C27.0772 20.0144 19.2074 18.9297 16.4679 20.4661C16.0325 20.7103 15.6078 21.0272 15.3513 21.4977C15.1365 21.8922 14.9936 22.3455 14.9544 22.8087C14.9397 22.9794 14.9307 23.302 15.0075 23.6508C15.1586 24.3369 14.9151 24.479 14.4856 25.1048C14.056 25.7306 13.9518 26.3564 14.056 26.9822C14.2646 28.2339 14.6881 29.1682 15.2068 29.9605C15.9852 31.1514 17.1605 31.8293 18.8252 31.9518C19.3928 31.9935 31.1522 31.7942 31.6945 31.9633C32.5195 32.2205 31.3311 31.764 31.8081 30.6923C32.4982 29.1429 31.4691 30.9782 31.6937 29.2589L29.5831 24.4716L29.5815 24.4725Z" fill="#594F45"/>
<path d="M30.7079 22.863C32.7098 24.1299 32.7262 27.0646 30.7275 28.3355C30.1075 28.7292 29.5366 29.0045 29.1233 29.1809L28.9665 28.6312C28.6855 27.9165 28.0982 27.4313 27.4268 27.3595L26.4442 27.3072L26.3438 24.0016L27.4268 23.8734C28.0982 23.8015 28.6863 22.9267 28.9665 22.212L29.0506 21.998C29.4647 22.1704 30.0593 22.4514 30.7087 22.8622L30.7079 22.863Z" fill="#DA9F8E"/>
<path d="M26.7725 27.3598L25.7899 27.3076L25.6895 24.002L26.7725 23.8738C26.8901 24.0061 27.5379 24.7616 27.439 25.8537C27.3663 26.655 26.9326 27.1826 26.7725 27.3598Z" fill="#964436"/>
<path d="M20.3947 29.5777C20.0394 27.0056 19.1704 25.131 18.0244 24.4988C18.4165 24.2955 19.7086 23.5024 19.7389 21.8418C20.6381 21.8083 22.1615 21.7757 23.0534 21.9129C23.9453 22.0501 24.8324 22.3678 25.5577 22.9755C25.8868 23.2516 26.1768 23.5767 26.4186 23.9418C27.0916 24.9579 27.099 26.344 26.4496 27.3797C26.2013 27.775 25.9007 28.1262 25.5569 28.4145C24.8316 29.0231 23.9445 29.34 23.0526 29.4772C22.1606 29.6144 21.2932 29.6111 20.3931 29.5777H20.3947Z" fill="#DA9F8E"/>
</g>
</svg>
