<svg width="70" height="50" viewBox="0 0 70 50" fill="none" xmlns="http://www.w3.org/2000/svg">
<g clip-path="url(#clip0_595_15865)">
<path d="M0.5 45.0143V28.2071V4.98571C0.5 2.47113 2.36649 0.5 4.58351 0.5H65.4165C67.634 0.5 69.5 2.46448 69.5 4.98571V45.0143C69.5 47.5289 67.6335 49.5 65.4165 49.5H4.58351C2.36604 49.5 0.5 47.5355 0.5 45.0143Z" fill="white" stroke="#E7E7E7"/>
<path d="M0.0253906 6.80127H43.9324C45.0369 6.80127 45.9324 7.6967 45.9324 8.80127V28.6049C45.9324 29.7095 45.0369 30.6049 43.9324 30.6049H0.0253906V6.80127Z" fill="#FA1320"/>
<path d="M29.2329 11.2524V22.2009H26.9771V11.2524H29.2329ZM33.5942 15.9296V17.6892H28.6163V15.9296H33.5942ZM34.1206 11.2524V13.0195H28.6163V11.2524H34.1206Z" fill="white"/>
<path d="M20.3222 22.2009H17.9385L17.9535 20.4413H20.3222C20.9137 20.4413 21.4125 20.3085 21.8186 20.0428C22.2246 19.7721 22.5304 19.3785 22.7359 18.8622C22.9465 18.3459 23.0518 17.7217 23.0518 16.9898V16.456C23.0518 15.8945 22.9916 15.4007 22.8713 14.9746C22.756 14.5485 22.583 14.1901 22.3524 13.8993C22.1218 13.6086 21.8386 13.3905 21.5027 13.2451C21.1669 13.0947 20.7809 13.0195 20.3447 13.0195H17.8934V11.2524H20.3447C21.0766 11.2524 21.7459 11.3778 22.3524 11.6284C22.964 11.8741 23.4929 12.2275 23.9391 12.6887C24.3852 13.1499 24.7286 13.7013 24.9692 14.343C25.2149 14.9796 25.3377 15.689 25.3377 16.471V16.9898C25.3377 17.7669 25.2149 18.4762 24.9692 19.1179C24.7286 19.7595 24.3852 20.311 23.9391 20.7722C23.4979 21.2283 22.969 21.5818 22.3524 21.8324C21.7409 22.0781 21.0641 22.2009 20.3222 22.2009ZM19.2168 11.2524V22.2009H16.9609V11.2524H19.2168Z" fill="white"/>
<path d="M11.2987 18.2982H8.50898V16.5387H11.2987C11.7299 16.5387 12.0808 16.4685 12.3515 16.3281C12.6222 16.1827 12.8202 15.9822 12.9455 15.7266C13.0708 15.4709 13.1335 15.1826 13.1335 14.8618C13.1335 14.536 13.0708 14.2327 12.9455 13.952C12.8202 13.6712 12.6222 13.4456 12.3515 13.2752C12.0808 13.1048 11.7299 13.0195 11.2987 13.0195H9.29102V22.2009H7.03516V11.2524H11.2987C12.156 11.2524 12.8904 11.4078 13.502 11.7187C14.1186 12.0244 14.5898 12.448 14.9156 12.9895C15.2415 13.5309 15.4044 14.15 15.4044 14.8468C15.4044 15.5536 15.2415 16.1652 14.9156 16.6815C14.5898 17.1979 14.1186 17.5964 13.502 17.8771C12.8904 18.1579 12.156 18.2982 11.2987 18.2982Z" fill="white"/>
<rect x="45" y="38.3335" width="20" height="3.33333" rx="0.25" fill="#E7E7E7"/>
</g>
<defs>
<clipPath id="clip0_595_15865">
<rect width="70" height="50" fill="white"/>
</clipPath>
</defs>
</svg>
