<svg width="59" height="40" viewBox="0 0 59 40" fill="none" xmlns="http://www.w3.org/2000/svg">
<g clip-path="url(#clip0_3747_7582)">
<path d="M12.5 39.881C9.02781 39.881 6.07638 38.6657 3.64581 36.2351C1.21528 33.8046 0 30.8531 0 27.381C0 24.1071 1.16568 21.2053 3.49705 18.6756C5.82838 16.1458 8.68057 14.881 12.0536 14.881C12.5496 10.615 14.3973 7.06848 17.5968 4.24105C20.7961 1.41371 24.5535 0 28.869 0C33.5813 0 37.5868 1.64933 40.8854 4.9479C44.184 8.24657 45.8333 12.252 45.8333 16.9643V20.8333H48.2143C50.8929 20.8333 53.1498 21.7509 54.9851 23.5863C56.8205 25.4216 57.7381 27.6786 57.7381 30.3571C57.7381 33.0357 56.8205 35.2927 54.9851 37.128C53.1498 38.9633 50.8929 39.881 48.2143 39.881H12.5Z" fill="white"/>
<mask id="mask0_3747_7582" style="mask-type:alpha" maskUnits="userSpaceOnUse" x="-7" y="-17" width="72" height="73">
<path d="M64.7619 -16.1905H-6.66667V55.2381H64.7619V-16.1905Z" fill="#D9D9D9"/>
</mask>
<g mask="url(#mask0_3747_7582)">
<path d="M12.5 39.881C9.02781 39.881 6.07638 38.6657 3.64581 36.2351C1.21528 33.8046 0 30.8531 0 27.381C0 24.1071 1.16568 21.2053 3.49705 18.6756C5.82838 16.1458 8.68057 14.881 12.0536 14.881C12.5496 10.615 14.3973 7.06848 17.5968 4.24105C20.7961 1.41371 24.5535 0 28.869 0C33.5813 0 37.5868 1.64933 40.8854 4.9479C44.184 8.24657 45.8333 12.252 45.8333 16.9643V20.8333H48.2143C50.8929 20.8333 53.1498 21.7509 54.9851 23.5863C56.8205 25.4216 57.7381 27.6786 57.7381 30.3571C57.7381 33.0357 56.8205 35.2927 54.9851 37.128C53.1498 38.9633 50.8929 39.881 48.2143 39.881H12.5ZM12.5 37.7976H48.2143C50.2976 37.7976 52.0586 37.0784 53.497 35.6399C54.9355 34.2014 55.6548 32.4405 55.6548 30.3571C55.6548 28.2738 54.9355 26.5129 53.497 25.0744C52.0586 23.6359 50.2976 22.9167 48.2143 22.9167H43.75V16.9643C43.75 12.8472 42.2991 9.33781 39.3973 6.436C36.4955 3.53419 32.9861 2.08333 28.869 2.08333C24.752 2.08333 21.2426 3.53419 18.3408 6.436C15.439 9.33781 13.9881 12.8472 13.9881 16.9643H12.5C9.62305 16.9643 7.16762 17.9811 5.1339 20.0149C3.10019 22.0486 2.08333 24.504 2.08333 27.381C2.08333 30.2579 3.10019 32.7133 5.1339 34.747C7.16762 36.7808 9.62305 37.7976 12.5 37.7976Z" fill="#E7E7E7"/>
<path d="M18.27 30.5665L27.9301 19.3708C28.0163 19.2709 28.13 19.1895 28.2617 19.1333C28.3934 19.0771 28.5394 19.0477 28.6875 19.0476H28.6897C28.8384 19.0479 28.9848 19.0775 29.1169 19.1342C29.2489 19.1908 29.3628 19.2728 29.449 19.3731L39.0468 30.569C39.146 30.6847 39.2048 30.8209 39.2168 30.9626C39.2288 31.1042 39.1934 31.2458 39.1147 31.3719C39.0363 31.4982 38.9174 31.6041 38.7711 31.6779C38.6249 31.7517 38.4569 31.7907 38.2856 31.7904H33.7687L33.769 39.2269C33.7691 39.3284 33.745 39.429 33.6982 39.5229C33.6513 39.6167 33.5826 39.7019 33.4959 39.7737C33.4093 39.8455 33.3065 39.9025 33.1932 39.9413C33.0801 39.9801 32.9588 40.0001 32.8363 40L24.479 39.9997C24.3565 39.9997 24.2351 39.9797 24.1219 39.9409C24.0088 39.902 23.9058 39.845 23.8192 39.7731C23.7326 39.7012 23.6639 39.6159 23.617 39.522C23.5702 39.4282 23.5461 39.3275 23.5463 39.2259V31.7907H19.0278C18.6793 31.7907 18.3593 31.6277 18.1985 31.3704C18.12 31.2439 18.0851 31.1019 18.0978 30.9601C18.1104 30.8183 18.17 30.682 18.27 30.5665Z" fill="#002DD1"/>
</g>
</g>
<defs>
<clipPath id="clip0_3747_7582">
<rect width="58.0952" height="40" fill="white"/>
</clipPath>
</defs>
</svg>
