<svg width="16" height="18" viewBox="0 0 16 18" fill="none" xmlns="http://www.w3.org/2000/svg">
<path d="M13.4461 3.37042L12.6642 15.761C12.627 16.477 12.1012 17.0001 11.4131 17.0001H4.21972C3.52891 17.0001 3.01286 16.477 2.96869 15.761L2.18679 3.37042" stroke="#E4002B" stroke-width="1.2" stroke-linecap="round" stroke-linejoin="round"/>
<path d="M14.6297 3.37042H1.00001" stroke="#E4002B" stroke-width="1.2" stroke-miterlimit="10" stroke-linecap="round"/>
<path d="M10.4851 3.37019V1.88871C10.4855 1.77188 10.4599 1.65614 10.4098 1.54814C10.3597 1.44014 10.286 1.34202 10.1931 1.25941C10.1002 1.1768 9.98977 1.11134 9.86827 1.06679C9.74677 1.02224 9.61656 0.999478 9.48513 0.999821H6.1518C6.02037 0.999478 5.89016 1.02224 5.76866 1.06679C5.64716 1.11134 5.53677 1.1768 5.44383 1.25941C5.3509 1.34202 5.27725 1.44014 5.22713 1.54814C5.17701 1.65614 5.15141 1.77188 5.1518 1.88871V3.37019" stroke="#E4002B" stroke-width="1.2" stroke-linecap="round" stroke-linejoin="round"/>
<path d="M7.66873 5.66632V14.5552" stroke="#E4002B" stroke-width="1.2" stroke-linecap="round" stroke-linejoin="round"/>
<path d="M10.3367 5.66632V14.5552" stroke="#E4002B" stroke-width="1.2" stroke-linecap="round" stroke-linejoin="round"/>
<path d="M5.15311 5.74054V14.6294" stroke="#E4002B" stroke-width="1.2" stroke-linecap="round" stroke-linejoin="round"/>
</svg>
