<svg width="29" height="32" viewBox="0 0 29 32" fill="none" xmlns="http://www.w3.org/2000/svg">
<path d="M25.0084 32H6.15902C5.18134 31.9912 4.24704 31.5951 3.56095 30.8985C2.87487 30.2019 2.49298 29.2617 2.49902 28.284V26.6187H2.14169C1.74774 26.6151 1.37127 26.4555 1.09482 26.1748C0.818381 25.8942 0.664535 25.5153 0.667022 25.1213V16.04C0.664535 15.646 0.818381 15.2672 1.09482 14.9865C1.37127 14.7058 1.74774 14.5462 2.14169 14.5427H2.49902V3.716C2.49298 2.7383 2.87487 1.79809 3.56095 1.1015C4.24704 0.404921 5.18134 0.00880556 6.15902 0L19.9737 0L28.667 8.8V28.284C28.6734 29.2616 28.2918 30.2018 27.606 30.8984C26.9201 31.595 25.9859 31.9912 25.0084 32ZM4.74169 26.6173V28.2827C4.7392 28.6614 4.88701 29.0257 5.1527 29.2956C5.41839 29.5656 5.78028 29.7191 6.15902 29.7227H25.0084C25.387 29.7191 25.7487 29.5655 26.0142 29.2956C26.2797 29.0256 26.4272 28.6613 26.4244 28.2827L26.371 9.69467L21.6737 9.70933C20.9965 9.70194 20.3497 9.42663 19.875 8.94363C19.4002 8.46063 19.1361 7.80925 19.1404 7.132V2.26667L6.16436 2.28C5.97665 2.28087 5.79096 2.31871 5.61788 2.39135C5.4448 2.46399 5.28772 2.57001 5.15561 2.70335C5.0235 2.8367 4.91896 2.99476 4.84793 3.16851C4.77691 3.34226 4.74081 3.5283 4.74169 3.716V14.5427H22.3124C22.7063 14.5462 23.0828 14.7058 23.3592 14.9865C23.6357 15.2672 23.7895 15.646 23.787 16.04V25.12C23.7895 25.514 23.6357 25.8928 23.3592 26.1735C23.0828 26.4542 22.7063 26.6138 22.3124 26.6173H4.74169ZM11.783 17.5507C11.1486 17.547 10.5147 17.5915 9.88702 17.684V23.8667C10.4151 23.9326 10.9469 23.9637 11.479 23.96C12.4979 24.0277 13.5089 23.7408 14.3404 23.148C14.6917 22.8268 14.9666 22.4309 15.145 21.9896C15.3233 21.5482 15.4006 21.0725 15.371 20.5973C15.4006 20.1464 15.3206 19.6951 15.1379 19.2818C14.9552 18.8685 14.6751 18.5056 14.3217 18.224C13.5766 17.7186 12.6821 17.4807 11.7844 17.5493L11.783 17.5507ZM16.2964 17.5973V23.8933H17.7044V21.36H19.9337V20.2013H17.7044V18.7627H20.0884V17.6H16.2977L16.2964 17.5973ZM6.42969 17.5507C5.79512 17.5435 5.16102 17.5881 4.53369 17.684V23.8933H5.92702V21.6427C6.08578 21.6626 6.24569 21.672 6.40569 21.6707C7.13792 21.7153 7.85928 21.4766 8.42035 21.004C8.61122 20.8061 8.76016 20.5717 8.85822 20.3149C8.95628 20.0581 9.00145 19.7841 8.99102 19.5093C8.99652 19.2317 8.93945 18.9565 8.82404 18.704C8.70863 18.4515 8.53784 18.2282 8.32436 18.0507C7.76942 17.6736 7.10257 17.4967 6.43369 17.5493L6.42969 17.5507ZM11.867 22.6667H11.8364C11.6683 22.6727 11.5 22.6633 11.3337 22.6387V18.72C11.5494 18.6792 11.7689 18.6614 11.9884 18.6667C12.2655 18.6499 12.5432 18.6884 12.8053 18.78C13.0674 18.8715 13.3086 19.0143 13.515 19.2C13.6844 19.3835 13.8148 19.5995 13.8982 19.8349C13.9817 20.0702 14.0164 20.3201 14.0004 20.5693C14.0306 20.8553 13.9959 21.1444 13.8988 21.4152C13.8018 21.6859 13.6449 21.9312 13.4398 22.1328C13.2347 22.3344 12.9868 22.4871 12.7144 22.5796C12.4421 22.672 12.1525 22.7018 11.867 22.6667ZM6.37369 20C6.24873 20.0029 6.12378 19.9944 6.00036 19.9747V18.704C6.15248 18.676 6.30704 18.6635 6.46169 18.6667C7.01636 18.6667 7.33369 18.8973 7.33369 19.2973C7.33369 19.7333 6.97502 20 6.37369 20Z" fill="#CCCCCC"/>
</svg>
