<svg width="29" height="28" viewBox="0 0 29 28" fill="none" xmlns="http://www.w3.org/2000/svg">
<mask id="mask0_1_17732" style="mask-type:alpha" maskUnits="userSpaceOnUse" x="0" y="0" width="29" height="28">
<rect x="0.5" width="28" height="28" fill="#D9D9D9"/>
</mask>
<g mask="url(#mask0_1_17732)">
<path d="M13.625 16.2748V20.5734C13.625 20.8217 13.7088 21.0297 13.8764 21.1973C14.0438 21.3647 14.2517 21.4484 14.5 21.4484C14.7483 21.4484 14.9562 21.3647 15.1236 21.1973C15.2912 21.0297 15.375 20.8217 15.375 20.5734V16.2748L16.9185 17.8183C17.0054 17.9051 17.103 17.9701 17.2113 18.0135C17.3198 18.0568 17.4283 18.0756 17.5368 18.0698C17.6451 18.0637 17.7524 18.039 17.8585 17.9957C17.9647 17.9523 18.0613 17.8873 18.1482 17.8005C18.3171 17.6195 18.4046 17.4146 18.4107 17.1857C18.4165 16.9569 18.329 16.7519 18.1482 16.5709L15.2382 13.6609C15.1289 13.5518 15.0137 13.4748 14.8926 13.4299C14.7714 13.385 14.6406 13.3625 14.5 13.3625C14.3594 13.3625 14.2286 13.385 14.1074 13.4299C13.9863 13.4748 13.8711 13.5518 13.7618 13.6609L10.8518 16.5709C10.6784 16.7445 10.5928 16.9476 10.5952 17.1802C10.5973 17.4127 10.6889 17.6195 10.8699 17.8005C11.0509 17.9695 11.2559 18.057 11.4847 18.063C11.7134 18.0689 11.9183 17.9814 12.0993 17.8005L13.625 16.2748ZM7.85904 25.0832C7.26968 25.0832 6.77083 24.879 6.3625 24.4707C5.95417 24.0623 5.75 23.5635 5.75 22.9741V5.02555C5.75 4.43618 5.95417 3.93734 6.3625 3.529C6.77083 3.12067 7.26968 2.9165 7.85904 2.9165H16.2523C16.5335 2.9165 16.8039 2.97114 17.0635 3.08042C17.3228 3.1895 17.5483 3.33981 17.7398 3.53134L22.6352 8.42667C22.8267 8.6182 22.977 8.84366 23.0861 9.10305C23.1954 9.36263 23.25 9.633 23.25 9.91417V22.9741C23.25 23.5635 23.0458 24.0623 22.6375 24.4707C22.2292 24.879 21.7303 25.0832 21.141 25.0832H7.85904ZM16.25 8.86184V4.6665H7.85904C7.76921 4.6665 7.68696 4.70393 7.61229 4.7788C7.53743 4.85346 7.5 4.93571 7.5 5.02555V22.9741C7.5 23.064 7.53743 23.1462 7.61229 23.2209C7.68696 23.2957 7.76921 23.3332 7.85904 23.3332H21.141C21.2308 23.3332 21.313 23.2957 21.3877 23.2209C21.4626 23.1462 21.5 23.064 21.5 22.9741V9.9165H17.3047C17.0039 9.9165 16.7529 9.81588 16.5519 9.61463C16.3506 9.41357 16.25 9.16264 16.25 8.86184Z" fill="#2A5595"/>
</g>
</svg>
