<svg width="32" height="32" viewBox="0 0 32 32" fill="none" xmlns="http://www.w3.org/2000/svg">
<path fill-rule="evenodd" clip-rule="evenodd" d="M16.008 23.4924C15.896 23.4924 15.78 23.4644 15.66 23.4084C15.54 23.3524 15.456 23.2764 15.408 23.1804C15.2 22.9884 15.096 22.7764 15.096 22.5444C15.096 22.3124 15.2 22.0924 15.408 21.8844L20.712 16.5804H8.904C8.648 16.5804 8.436 16.4964 8.268 16.3284C8.1 16.1604 8.016 15.9484 8.016 15.6924C8.016 15.1644 8.248 14.9004 8.712 14.9004H20.496L15.216 9.59644C15.008 9.38844 14.904 9.16844 14.904 8.93644C14.904 8.70444 15.008 8.49244 15.216 8.30044C15.424 8.10844 15.64 8.00844 15.864 8.00044C16.088 7.99244 16.304 8.09244 16.512 8.30044L24 15.7884L16.608 23.1804C16.416 23.3884 16.216 23.4924 16.008 23.4924Z" fill="#274A79"/>
</svg>