<svg width="23" height="22" viewBox="0 0 23 22" fill="none" xmlns="http://www.w3.org/2000/svg">
<path d="M1.29297 21.9165C1.04466 21.9165 0.836802 21.8327 0.669386 21.6651C0.501774 21.4977 0.417969 21.2898 0.417969 21.0415C0.417969 20.7932 0.501774 20.5853 0.669386 20.4179C0.836802 20.2503 1.04466 20.1665 1.29297 20.1665H10.6263V7.19638C10.0984 7.05871 9.63658 6.79767 9.24089 6.41325C8.84519 6.02884 8.57482 5.5577 8.42976 4.99984H4.56868L7.74318 12.6931C7.83301 12.892 7.88386 13.0958 7.89572 13.3045C7.90777 13.5131 7.89436 13.7229 7.85547 13.9339C7.68047 14.7385 7.22537 15.3577 6.49018 15.7915C5.75518 16.2253 4.995 16.4422 4.20964 16.4422C3.42447 16.4422 2.66429 16.2253 1.92909 15.7915C1.1939 15.3577 0.738802 14.7385 0.563802 13.9339C0.524913 13.7229 0.511497 13.5131 0.523552 13.3045C0.535413 13.0958 0.58626 12.892 0.676094 12.6931L3.85059 4.99984H2.45964C2.21133 4.99984 2.00347 4.91603 1.83605 4.74842C1.66844 4.581 1.58464 4.37314 1.58464 4.12484C1.58464 3.87653 1.66844 3.66867 1.83605 3.50125C2.00347 3.33364 2.21133 3.24984 2.45964 3.24984H8.42976C8.61079 2.58425 8.98208 2.02902 9.54364 1.58413C10.1054 1.13905 10.7579 0.916504 11.5013 0.916504C12.2447 0.916504 12.8972 1.13905 13.459 1.58413C14.0205 2.02902 14.3918 2.58425 14.5728 3.24984H20.543C20.7913 3.24984 20.9991 3.33364 21.1666 3.50125C21.3342 3.66867 21.418 3.87653 21.418 4.12484C21.418 4.37314 21.3342 4.581 21.1666 4.74842C20.9991 4.91603 20.7913 4.99984 20.543 4.99984H19.152L22.3265 12.6931C22.4163 12.892 22.4672 13.0958 22.4791 13.3045C22.4911 13.5131 22.4777 13.7229 22.4388 13.9339C22.2638 14.7385 21.8087 15.3577 21.0735 15.7915C20.3383 16.2253 19.5781 16.4422 18.793 16.4422C18.0076 16.4422 17.2474 16.2253 16.5124 15.7915C15.7772 15.3577 15.3221 14.7385 15.1471 13.9339C15.1082 13.7229 15.0948 13.5131 15.1069 13.3045C15.1187 13.0958 15.1696 12.892 15.2594 12.6931L18.4339 4.99984H14.5728C14.4278 5.5577 14.1574 6.02884 13.7617 6.41325C13.366 6.79767 12.9042 7.05871 12.3763 7.19638V20.1665H21.7096C21.9579 20.1665 22.1658 20.2503 22.3332 20.4179C22.5008 20.5853 22.5846 20.7932 22.5846 21.0415C22.5846 21.2898 22.5008 21.4977 22.3332 21.6651C22.1658 21.8327 21.9579 21.9165 21.7096 21.9165H1.29297ZM16.527 13.2339H21.0589L18.793 7.76629L16.527 13.2339ZM1.94368 13.2339H6.47559L4.20964 7.76629L1.94368 13.2339ZM11.5013 5.58317C11.9067 5.58317 12.2511 5.44142 12.5344 5.15792C12.8179 4.87461 12.9596 4.53025 12.9596 4.12484C12.9596 3.71942 12.8179 3.37506 12.5344 3.09175C12.2511 2.80825 11.9067 2.6665 11.5013 2.6665C11.0959 2.6665 10.7515 2.80825 10.4682 3.09175C10.1847 3.37506 10.043 3.71942 10.043 4.12484C10.043 4.53025 10.1847 4.87461 10.4682 5.15792C10.7515 5.44142 11.0959 5.58317 11.5013 5.58317Z" fill="#2A5595"/>
</svg>
