<svg width="29" height="28" viewBox="0 0 29 28" fill="none" xmlns="http://www.w3.org/2000/svg">
<mask id="mask0_1_17738" style="mask-type:alpha" maskUnits="userSpaceOnUse" x="0" y="0" width="29" height="28">
<rect x="0.5" width="28" height="28" fill="#D9D9D9"/>
</mask>
<g mask="url(#mask0_1_17738)">
<path d="M6.69107 23.9168C6.10171 23.9168 5.60286 23.7127 5.19453 23.3043C4.7862 22.896 4.58203 22.3971 4.58203 21.8078V6.19254C4.58203 5.60318 4.7862 5.10433 5.19453 4.696C5.60286 4.28766 6.10171 4.0835 6.69107 4.0835H22.3063C22.8957 4.0835 23.3945 4.28766 23.8029 4.696C24.2112 5.10433 24.4154 5.60318 24.4154 6.19254V21.8078C24.4154 22.3971 24.2112 22.896 23.8029 23.3043C23.3945 23.7127 22.8957 23.9168 22.3063 23.9168H6.69107ZM6.69107 22.1668H22.3063C22.3962 22.1668 22.4784 22.1294 22.5531 22.0545C22.6279 21.9799 22.6654 21.8976 22.6654 21.8078V6.19254C22.6654 6.1027 22.6279 6.02045 22.5531 5.94579C22.4784 5.87093 22.3962 5.8335 22.3063 5.8335H6.69107C6.60124 5.8335 6.51899 5.87093 6.44432 5.94579C6.36946 6.02045 6.33203 6.1027 6.33203 6.19254V21.8078C6.33203 21.8976 6.36946 21.9799 6.44432 22.0545C6.51899 22.1294 6.60124 22.1668 6.69107 22.1668ZM9.42836 19.5418H19.6589C19.8698 19.5418 20.0262 19.4461 20.1279 19.2545C20.2296 19.0632 20.2138 18.8778 20.0806 18.6983L17.2987 14.9717C17.1894 14.8311 17.0488 14.7608 16.8769 14.7608C16.7049 14.7608 16.5643 14.8311 16.4552 14.9717L13.6012 18.6893L11.6897 16.2393C11.5806 16.1061 11.4418 16.0395 11.2734 16.0395C11.1053 16.0395 10.9665 16.1099 10.8572 16.2507L9.0177 18.6983C8.87711 18.8778 8.85767 19.0632 8.95936 19.2545C9.06106 19.4461 9.21739 19.5418 9.42836 19.5418ZM10.4154 11.3752C10.8192 11.3752 11.1632 11.233 11.4473 10.9487C11.7316 10.6647 11.8737 10.3207 11.8737 9.91683C11.8737 9.51297 11.7316 9.169 11.4473 8.88491C11.1632 8.60063 10.8192 8.4585 10.4154 8.4585C10.0115 8.4585 9.66753 8.60063 9.38345 8.88491C9.09917 9.169 8.95703 9.51297 8.95703 9.91683C8.95703 10.3207 9.09917 10.6647 9.38345 10.9487C9.66753 11.233 10.0115 11.3752 10.4154 11.3752Z" fill="#2A5595"/>
</g>
</svg>
