<svg width="8" height="14" viewBox="0 0 8 14" fill="none" xmlns="http://www.w3.org/2000/svg">
<path d="M5.10397 7L0.351847 2.24817C0.190458 2.08659 0.107819 1.88349 0.10393 1.63888C0.100236 1.39446 0.182875 1.18767 0.351847 1.0185C0.521014 0.849531 0.725958 0.765045 0.96668 0.765045C1.2074 0.765045 1.41235 0.849531 1.58151 1.0185L6.8248 6.2618C6.93389 6.37107 7.01089 6.48628 7.05581 6.60742C7.10072 6.72856 7.12318 6.85942 7.12318 7C7.12318 7.14059 7.10072 7.27145 7.05581 7.39259C7.01089 7.51373 6.93389 7.62894 6.8248 7.73821L1.58151 12.9815C1.41993 13.1429 1.21683 13.2255 0.972222 13.2294C0.727805 13.2331 0.521014 13.1505 0.351847 12.9815C0.182875 12.8123 0.0983887 12.6074 0.0983887 12.3667C0.0983887 12.1259 0.182875 11.921 0.351847 11.7518L5.10397 7Z" fill="#5D5D5D"/>
</svg>
