<svg width="32" height="32" viewBox="0 0 32 32" fill="none" xmlns="http://www.w3.org/2000/svg">
<mask id="mask0_0_1745" style="mask-type:alpha" maskUnits="userSpaceOnUse" x="0" y="0" width="32" height="32">
<rect width="32" height="32" fill="#D9D9D9"/>
</mask>
<g mask="url(#mask0_0_1745)">
<path d="M15.9994 17.405L9.23537 24.1693C9.05071 24.3538 8.8186 24.4482 8.53904 24.4527C8.25971 24.4569 8.02337 24.3625 7.83004 24.1693C7.63693 23.976 7.54037 23.7418 7.54037 23.4667C7.54037 23.1916 7.63693 22.9573 7.83004 22.764L14.5944 16L7.83004 9.23602C7.6456 9.05135 7.55115 8.81924 7.54671 8.53968C7.54249 8.26035 7.63693 8.02402 7.83004 7.83068C8.02337 7.63757 8.2576 7.54102 8.53271 7.54102C8.80782 7.54102 9.04204 7.63757 9.23537 7.83068L15.9994 14.595L22.7634 7.83068C22.948 7.64624 23.1802 7.55179 23.4597 7.54735C23.739 7.54313 23.9754 7.63757 24.1687 7.83068C24.3618 8.02402 24.4584 8.25824 24.4584 8.53335C24.4584 8.80846 24.3618 9.04268 24.1687 9.23602L17.4044 16L24.1687 22.764C24.3532 22.9487 24.4476 23.1808 24.452 23.4603C24.4563 23.7397 24.3618 23.976 24.1687 24.1693C23.9754 24.3625 23.7412 24.459 23.466 24.459C23.1909 24.459 22.9567 24.3625 22.7634 24.1693L15.9994 17.405Z" fill="#DADADA"/>
</g>
</svg>
