<svg width="55" height="40" viewBox="0 0 55 40" fill="none" xmlns="http://www.w3.org/2000/svg">
<path d="M0.150391 22.5657V36.0088C0.150391 38.2137 1.72954 40 3.6788 40H50.52C52.4692 40 54.0484 38.2137 54.0484 36.0088V3.99122C54.0484 1.78628 52.4692 0 50.52 0H3.6788C1.72954 0 0.150391 1.78628 0.150391 3.99122V22.5657Z" fill="#C9D2A2"/>
<path d="M5.55078 20.1665C5.55078 19.3381 6.22235 18.6665 7.05078 18.6665H17.5508C18.3792 18.6665 19.0508 19.3381 19.0508 20.1665V29.1665C19.0508 29.9949 18.3792 30.6665 17.5508 30.6665H7.05078C6.22235 30.6665 5.55078 29.9949 5.55078 29.1665V20.1665Z" fill="#EDEFD2"/>
<path d="M5.60078 20.1665C5.60078 19.3657 6.24997 18.7165 7.05078 18.7165H17.5508C18.3516 18.7165 19.0008 19.3657 19.0008 20.1665V29.1665C19.0008 29.9673 18.3516 30.6165 17.5508 30.6165H7.05078C6.24997 30.6165 5.60078 29.9673 5.60078 29.1665V20.1665Z" stroke="#ACABA9" stroke-opacity="0.7" stroke-width="0.1" stroke-linejoin="round"/>
<path d="M0.150391 6.6665H4.20039C4.20039 6.6665 2.61136 7.69191 2.61136 9.35377C2.61136 11.0156 4.20039 11.9998 4.20039 11.9998H0.150391V6.6665Z" fill="#626B67"/>
<path d="M54.1504 6.6665H9.60037C9.60037 6.6665 11.3177 7.69191 11.3177 9.35377C11.3177 11.0156 9.60037 11.9998 9.60037 11.9998H54.1504C54.1504 11.9998 54.1504 11.4553 54.1504 9.35377C54.1504 7.40904 54.1504 6.6665 54.1504 6.6665Z" fill="#626B67"/>
<path fill-rule="evenodd" clip-rule="evenodd" d="M5.09199 10.3995C5.49476 10.9996 6.15495 11.3906 6.9002 11.3906C7.64544 11.3906 8.30563 10.9996 8.7084 10.3995H5.09199ZM4.42198 10.3995C4.32808 10.2078 4.25325 10.0037 4.2002 9.79031H6.9002H9.6002C9.54714 10.0037 9.47232 10.2078 9.37841 10.3995C8.91273 11.3505 7.97773 11.9998 6.9002 11.9998C5.82266 11.9998 4.88767 11.3505 4.42198 10.3995Z" fill="#626B67"/>
<path d="M8.97678 8.87603C8.97678 10.0963 8.04706 11.0856 6.90019 11.0856C5.75333 11.0856 4.82361 10.0963 4.82361 8.87603C4.82361 7.65574 5.75333 6.6665 6.90019 6.6665C8.04706 6.6665 8.97678 7.65574 8.97678 8.87603Z" fill="#626B67"/>
<path fill-rule="evenodd" clip-rule="evenodd" d="M6.90019 11.0856C8.04706 11.0856 8.97678 10.0963 8.97678 8.87603C8.97678 7.65574 8.04706 6.6665 6.90019 6.6665C5.75333 6.6665 4.82361 7.65574 4.82361 8.87603C4.82361 10.0963 5.75333 11.0856 6.90019 11.0856Z" fill="#626B67"/>
<path d="M9.0441 10.2256H4.75586L4.99409 10.8188L5.78821 11.412L6.82057 11.751L8.09115 11.412L8.80586 10.8188L9.0441 10.2256Z" fill="#626B67"/>
<rect x="24.4502" y="21.3335" width="24.3" height="2.66667" rx="0.25" fill="#1B221F" fill-opacity="0.3"/>
<rect x="31.2002" y="26.6665" width="17.55" height="2.66667" rx="0.25" fill="#1B221F" fill-opacity="0.3"/>
<path d="M40.6504 9.58346L40.2361 9.30348C40.1326 9.45673 40.122 9.65464 40.2088 9.818C40.2956 9.98135 40.4654 10.0835 40.6504 10.0835V9.58346ZM42.6218 6.6665V6.1665H42.3563L42.2076 6.38653L42.6218 6.6665ZM44.8122 6.6665L45.2201 6.37737L45.0706 6.1665H44.8122V6.6665ZM46.5647 9.13902L46.1568 9.42815L46.3062 9.63902H46.5647V9.13902ZM48.7504 9.13902L49.1621 9.42273C49.2675 9.26976 49.2794 9.07095 49.193 8.90649C49.1066 8.74202 48.9362 8.63902 48.7504 8.63902V9.13902ZM46.779 11.9998V12.4998C46.9434 12.4998 47.0974 12.419 47.1907 12.2836L46.779 11.9998ZM44.6315 11.9998L44.2471 12.3196C44.342 12.4338 44.4829 12.4998 44.6315 12.4998V11.9998ZM42.6218 9.58346L43.0062 9.26375L42.8563 9.08346H42.6218V9.58346ZM41.0647 9.86344L43.0361 6.94648L42.2076 6.38653L40.2361 9.30348L41.0647 9.86344ZM42.6218 7.1665H44.8122V6.1665H42.6218V7.1665ZM44.4042 6.95564L46.1568 9.42815L46.9726 8.84988L45.2201 6.37737L44.4042 6.95564ZM46.5647 9.63902H48.7504V8.63902H46.5647V9.63902ZM48.3387 8.8553L46.3673 11.7161L47.1907 12.2836L49.1621 9.42273L48.3387 8.8553ZM46.779 11.4998H44.6315V12.4998H46.779V11.4998ZM45.0159 11.6801L43.0062 9.26375L42.2374 9.90318L44.2471 12.3196L45.0159 11.6801ZM42.6218 9.08346H40.6504V10.0835H42.6218V9.08346Z" fill="url(#paint0_linear_1730_4987)"/>
<mask id="mask0_1730_4987" style="mask-type:alpha" maskUnits="userSpaceOnUse" x="5" y="18" width="15" height="13">
<path d="M5.55078 20.1665C5.55078 19.3381 6.22235 18.6665 7.05078 18.6665H17.5508C18.3792 18.6665 19.0508 19.3381 19.0508 20.1665V29.1665C19.0508 29.9949 18.3792 30.6665 17.5508 30.6665H7.05078C6.22235 30.6665 5.55078 29.9949 5.55078 29.1665V20.1665Z" fill="#EDEFD2"/>
<path d="M5.60078 20.1665C5.60078 19.3657 6.24997 18.7165 7.05078 18.7165H17.5508C18.3516 18.7165 19.0008 19.3657 19.0008 20.1665V29.1665C19.0008 29.9673 18.3516 30.6165 17.5508 30.6165H7.05078C6.24997 30.6165 5.60078 29.9673 5.60078 29.1665V20.1665Z" stroke="#ACABA9" stroke-opacity="0.7" stroke-width="0.1" stroke-linejoin="round"/>
</mask>
<g mask="url(#mask0_1730_4987)">
<path d="M13.0436 30.9259C13.2631 30.8931 13.4604 32.123 13.6768 32.0775C14.6093 31.8822 15.7696 33.0691 16.3506 32.4089C15.8696 29.358 16.5572 24.4308 15.5832 22.7156C15.4284 22.4431 15.2275 22.1771 14.9293 22.0166C14.6792 21.8821 14.3918 21.7926 14.0983 21.768C13.9901 21.7588 13.7855 21.7532 13.5644 21.8013C13.1295 21.8959 13.0394 21.7434 12.6427 21.4745C12.246 21.2056 11.8493 21.1403 11.4526 21.2056C10.6591 21.3362 10.0669 21.6013 9.56463 21.9261C8.80971 22.4134 8.37996 23.1493 8.30229 24.1915C8.27589 24.5469 8.40222 31.9093 8.29504 32.2488C8.13195 32.7653 8.42138 32.0213 9.1007 32.3199C10.0829 32.752 8.91948 32.1077 10.0094 32.2483L13.0441 30.9269L13.0436 30.9259Z" fill="#594F45"/>
<path d="M14.064 31.6317C13.2609 32.8851 11.4005 32.8954 10.5949 31.644C10.3453 31.2559 10.1708 30.8984 10.059 30.6396L10.4075 30.5415C10.8605 30.3655 11.1681 29.9979 11.2136 29.5775L11.2468 28.9623L13.3422 28.8994L13.4235 29.5775C13.4691 29.9979 14.0236 30.3661 14.4766 30.5415L14.6123 30.5941C14.5031 30.8534 14.3249 31.2257 14.0645 31.6322L14.064 31.6317Z" fill="#DA9F8E"/>
<path d="M11.213 29.1678L11.2461 28.5526L13.3416 28.4897L13.4229 29.1678C13.339 29.2415 12.86 29.647 12.1678 29.5851C11.6598 29.5396 11.3253 29.2681 11.213 29.1678Z" fill="#964436"/>
<path d="M9.80706 25.1745C11.4375 24.952 12.6258 24.4079 13.0266 23.6904C13.1555 23.9359 13.6583 24.7449 14.7109 24.7638C14.7321 25.3269 14.7528 26.2806 14.6659 26.839C14.5789 27.3974 14.3775 27.9528 13.9922 28.4069C13.8172 28.613 13.6111 28.7945 13.3797 28.9459C12.7356 29.3673 11.8569 29.3719 11.2004 28.9653C10.9498 28.8099 10.7271 28.6217 10.5444 28.4064C10.1586 27.9523 9.95773 27.3969 9.87074 26.8385C9.78376 26.2801 9.78583 25.737 9.80706 25.1734V25.1745Z" fill="#DA9F8E"/>
</g>
<defs>
<linearGradient id="paint0_linear_1730_4987" x1="39.1108" y1="12.0364" x2="49.9627" y2="12.0364" gradientUnits="userSpaceOnUse">
<stop stop-color="#CDD4A3"/>
<stop offset="1" stop-color="#BFCEA1"/>
</linearGradient>
</defs>
</svg>
