<svg width="67" height="50" viewBox="0 0 67 50" fill="none" xmlns="http://www.w3.org/2000/svg">
<path d="M0 28.2072V45.011C0 47.7671 1.94956 50 4.35606 50H62.1847C64.5911 50 66.5407 47.7671 66.5407 45.011V4.98902C66.5407 2.23285 64.5911 0 62.1847 0H4.35606C1.94956 0 0 2.23285 0 4.98902V28.2072Z" fill="#C9D2A2"/>
<path d="M6.6665 24.8333C6.6665 24.0048 7.33808 23.3333 8.1665 23.3333H21.8332C22.6616 23.3333 23.3332 24.0048 23.3332 24.8333V36.8333C23.3332 37.6617 22.6616 38.3333 21.8332 38.3333H8.1665C7.33808 38.3333 6.6665 37.6617 6.6665 36.8333V24.8333Z" fill="#EDEFD2"/>
<path d="M6.7165 24.8333C6.7165 24.0324 7.36569 23.3833 8.1665 23.3833H21.8332C22.634 23.3833 23.2832 24.0324 23.2832 24.8333V36.8333C23.2832 37.6341 22.634 38.2833 21.8332 38.2833H8.1665C7.36569 38.2833 6.7165 37.6341 6.7165 36.8333V24.8333Z" stroke="#ACABA9" stroke-opacity="0.7" stroke-width="0.1" stroke-linejoin="round"/>
<path d="M0 8.33325H5C5 8.33325 3.03823 9.61501 3.03823 11.6923C3.03823 13.7697 5 14.9999 5 14.9999H0V8.33325Z" fill="#626B67"/>
<path d="M66.6665 8.33325H11.6665C11.6665 8.33325 13.7867 9.61501 13.7867 11.6923C13.7867 13.7697 11.6665 14.9999 11.6665 14.9999H66.6665C66.6665 14.9999 66.6665 14.3193 66.6665 11.6923C66.6665 9.26142 66.6665 8.33325 66.6665 8.33325Z" fill="#626B67"/>
<path fill-rule="evenodd" clip-rule="evenodd" d="M6.10098 13.0012C6.59823 13.7514 7.41327 14.2401 8.33333 14.2401C9.25339 14.2401 10.0684 13.7514 10.5657 13.0012H6.10098ZM5.27381 13.0012C5.15788 12.7615 5.06551 12.5065 5 12.2397H8.33333H11.6667C11.6012 12.5065 11.5088 12.7615 11.3929 13.0012C10.8179 14.19 9.66362 15.0016 8.33333 15.0016C7.00305 15.0016 5.84873 14.19 5.27381 13.0012Z" fill="#626B67"/>
<path d="M10.897 11.0969C10.897 12.6222 9.74922 13.8588 8.33333 13.8588C6.91744 13.8588 5.76964 12.6222 5.76964 11.0969C5.76964 9.57151 6.91744 8.33496 8.33333 8.33496C9.74922 8.33496 10.897 9.57151 10.897 11.0969Z" fill="#626B67"/>
<path fill-rule="evenodd" clip-rule="evenodd" d="M8.33333 13.8588C9.74922 13.8588 10.897 12.6222 10.897 11.0969C10.897 9.57151 9.74922 8.33496 8.33333 8.33496C6.91744 8.33496 5.76964 9.57151 5.76964 11.0969C5.76964 12.6222 6.91744 13.8588 8.33333 13.8588Z" fill="#626B67"/>
<path d="M10.9802 12.7842H5.68604L5.98015 13.5257L6.96054 14.2672L8.23505 14.691L9.80368 14.2672L10.686 13.5257L10.9802 12.7842Z" fill="#626B67"/>
<rect x="30" y="26.6667" width="30" height="3.33333" rx="0.25" fill="#1B221F" fill-opacity="0.3"/>
<rect x="38.3335" y="33.3333" width="21.6667" height="3.33333" rx="0.25" fill="#1B221F" fill-opacity="0.3"/>
<path d="M50 11.9799L49.5841 11.7023C49.4817 11.8558 49.4721 12.0531 49.5591 12.2157C49.6461 12.3784 49.8156 12.4799 50 12.4799V11.9799ZM52.4339 8.33374V7.83374H52.1665L52.018 8.05615L52.4339 8.33374ZM55.138 8.33374L55.5476 8.047L55.3983 7.83374H55.138V8.33374ZM57.3016 11.4244L56.892 11.7111L57.0413 11.9244H57.3016V11.4244ZM60 11.4244L60.4133 11.7057C60.5176 11.5526 60.5286 11.3543 60.442 11.1906C60.3553 11.0268 60.1853 10.9244 60 10.9244V11.4244ZM57.5661 15.0004V15.5004C57.7316 15.5004 57.8864 15.4185 57.9795 15.2817L57.5661 15.0004ZM54.9149 15.0004L54.5285 15.3178C54.6235 15.4334 54.7653 15.5004 54.9149 15.5004V15.0004ZM52.4339 11.9799L52.8202 11.6626L52.6702 11.4799H52.4339V11.9799ZM50.4159 12.2575L52.8497 8.61133L52.018 8.05615L49.5841 11.7023L50.4159 12.2575ZM52.4339 8.83374H55.138V7.83374H52.4339V8.83374ZM54.7284 8.62048L56.892 11.7111L57.7112 11.1376L55.5476 8.047L54.7284 8.62048ZM57.3016 11.9244H60V10.9244H57.3016V11.9244ZM59.5867 11.1431L57.1528 14.7191L57.9795 15.2817L60.4133 11.7057L59.5867 11.1431ZM57.5661 14.5004H54.9149V15.5004H57.5661V14.5004ZM55.3013 14.683L52.8202 11.6626L52.0475 12.2973L54.5285 15.3178L55.3013 14.683ZM52.4339 11.4799H50V12.4799H52.4339V11.4799Z" fill="url(#paint0_linear_70_5971)"/>
<mask id="mask0_70_5971" style="mask-type:alpha" maskUnits="userSpaceOnUse" x="6" y="23" width="18" height="16">
<path d="M6.66699 24.835C6.66699 24.0065 7.33856 23.335 8.16699 23.335H21.8337C22.6621 23.335 23.3337 24.0065 23.3337 24.835V36.835C23.3337 37.6634 22.6621 38.335 21.8337 38.335H8.16699C7.33856 38.335 6.66699 37.6634 6.66699 36.835V24.835Z" fill="#EDEFD2"/>
<path d="M6.71699 24.835C6.71699 24.0341 7.36618 23.385 8.16699 23.385H21.8337C22.6345 23.385 23.2837 24.0341 23.2837 24.835V36.835C23.2837 37.6358 22.6345 38.285 21.8337 38.285H8.16699C7.36618 38.285 6.71699 37.6358 6.71699 36.835V24.835Z" stroke="#ACABA9" stroke-opacity="0.7" stroke-width="0.1" stroke-linejoin="round"/>
</mask>
<g mask="url(#mask0_70_5971)">
<path d="M15.9177 38.6582C16.1888 38.6173 16.4323 40.1546 16.6995 40.0977C17.8508 39.8536 19.2833 41.3372 20.0005 40.512C19.4066 36.6983 20.2555 30.5394 19.0532 28.3954C18.862 28.0547 18.614 27.7223 18.2458 27.5216C17.9371 27.3535 17.5823 27.2416 17.2198 27.2109C17.0862 27.1994 16.8338 27.1924 16.5608 27.2525C16.0239 27.3707 15.9126 27.1802 15.4229 26.844C14.9331 26.5078 14.4433 26.4262 13.9536 26.5078C12.974 26.6711 12.2428 27.0025 11.6228 27.4084C10.6908 28.0176 10.1602 28.9375 10.0643 30.2402C10.0317 30.6845 10.1877 39.8874 10.0554 40.3119C9.85402 40.9575 10.2114 40.0274 11.05 40.4007C12.2626 40.9409 10.8263 40.1355 12.1719 40.3112L15.9184 38.6595L15.9177 38.6582Z" fill="#594F45"/>
<path d="M17.1776 39.5382C16.1861 41.1049 13.8894 41.1177 12.8947 39.5535C12.5866 39.0684 12.3712 38.6215 12.2331 38.2981L12.6633 38.1754C13.2226 37.9555 13.6023 37.4959 13.6586 36.9704L13.6995 36.2014L16.2865 36.1228L16.3868 36.9704C16.4431 37.4959 17.1277 37.9561 17.687 38.1754L17.8545 38.2412C17.7196 38.5653 17.4997 39.0307 17.1782 39.5388L17.1776 39.5382Z" fill="#DA9F8E"/>
<path d="M13.6585 36.4594L13.6994 35.6904L16.2864 35.6118L16.3867 36.4594C16.2832 36.5515 15.6919 37.0584 14.8372 36.981C14.2101 36.9242 13.7972 36.5847 13.6585 36.4594Z" fill="#964436"/>
<path d="M11.9224 31.4691C13.9354 31.191 15.4024 30.5109 15.8972 29.614C16.0563 29.9208 16.677 30.9321 17.9766 30.9558C18.0028 31.6595 18.0283 32.8517 17.9209 33.5497C17.8136 34.2478 17.5649 34.942 17.0893 35.5096C16.8733 35.7672 16.6188 35.9941 16.3331 36.1834C15.5379 36.7101 14.4531 36.7158 13.6426 36.2076C13.3332 36.0133 13.0583 35.7781 12.8327 35.509C12.3565 34.9413 12.1084 34.2471 12.0011 33.5491C11.8937 32.8511 11.8962 32.1722 11.9224 31.4678V31.4691Z" fill="#DA9F8E"/>
</g>
<defs>
<linearGradient id="paint0_linear_70_5971" x1="48.0993" y1="15.0462" x2="61.4967" y2="15.0462" gradientUnits="userSpaceOnUse">
<stop stop-color="#CDD4A3"/>
<stop offset="1" stop-color="#BFCEA1"/>
</linearGradient>
</defs>
</svg>
