<svg width="67" height="50" viewBox="0 0 67 50" fill="none" xmlns="http://www.w3.org/2000/svg">
<path d="M0 28.2072V45.011C0 47.7671 1.94956 50 4.35606 50H62.1847C64.5911 50 66.5407 47.7671 66.5407 45.011V4.98902C66.5407 2.23285 64.5911 0 62.1847 0H4.35606C1.94956 0 0 2.23285 0 4.98902V28.2072Z" fill="#C8EFB0"/>
<path d="M15 24.8333C15 24.0048 15.6716 23.3333 16.5 23.3333H30.1667C30.9951 23.3333 31.6667 24.0048 31.6667 24.8333V36.8333C31.6667 37.6617 30.9951 38.3333 30.1667 38.3333H16.5C15.6716 38.3333 15 37.6617 15 36.8333V24.8333Z" fill="#F1F1F1"/>
<path d="M15.05 24.8333C15.05 24.0324 15.6992 23.3833 16.5 23.3833H30.1667C30.9675 23.3833 31.6167 24.0324 31.6167 24.8333V36.8333C31.6167 37.6341 30.9675 38.2833 30.1667 38.2833H16.5C15.6992 38.2833 15.05 37.6341 15.05 36.8333V24.8333Z" stroke="#ACABA9" stroke-opacity="0.7" stroke-width="0.1" stroke-linejoin="round"/>
<path d="M0 8.33398H5C5 8.33398 3.03823 9.61574 3.03823 11.6931C3.03823 13.7704 5 15.0007 5 15.0007H0V8.33398Z" fill="#4B4B4B"/>
<path d="M66.6665 8.33398H11.6665C11.6665 8.33398 13.7867 9.61574 13.7867 11.6931C13.7867 13.7704 11.6665 15.0007 11.6665 15.0007H66.6665C66.6665 15.0007 66.6665 14.32 66.6665 11.6931C66.6665 9.26215 66.6665 8.33398 66.6665 8.33398Z" fill="#505050"/>
<path d="M50 11.9809L49.5841 11.7033C49.4817 11.8567 49.4721 12.0541 49.5591 12.2167C49.6461 12.3794 49.8156 12.4809 50 12.4809V11.9809ZM52.4339 8.33472V7.83472H52.1665L52.018 8.05712L52.4339 8.33472ZM55.138 8.33472L55.5476 8.04797L55.3983 7.83472H55.138V8.33472ZM57.3016 11.4254L56.892 11.7121L57.0413 11.9254H57.3016V11.4254ZM60 11.4254L60.4133 11.7067C60.5176 11.5535 60.5286 11.3553 60.442 11.1915C60.3553 11.0278 60.1853 10.9254 60 10.9254V11.4254ZM57.5661 15.0014V15.5014C57.7316 15.5014 57.8864 15.4195 57.9795 15.2827L57.5661 15.0014ZM54.9149 15.0014L54.5285 15.3187C54.6235 15.4344 54.7653 15.5014 54.9149 15.5014V15.0014ZM52.4339 11.9809L52.8202 11.6635L52.6702 11.4809H52.4339V11.9809ZM50.4159 12.2585L52.8497 8.61231L52.018 8.05712L49.5841 11.7033L50.4159 12.2585ZM52.4339 8.83472H55.138V7.83472H52.4339V8.83472ZM54.7284 8.62146L56.892 11.7121L57.7112 11.1386L55.5476 8.04797L54.7284 8.62146ZM57.3016 11.9254H60V10.9254H57.3016V11.9254ZM59.5867 11.144L57.1528 14.7201L57.9795 15.2827L60.4133 11.7067L59.5867 11.144ZM57.5661 14.5014H54.9149V15.5014H57.5661V14.5014ZM55.3013 14.684L52.8202 11.6635L52.0475 12.2983L54.5285 15.3187L55.3013 14.684ZM52.4339 11.4809H50V12.4809H52.4339V11.4809Z" fill="#C8EFB0"/>
<path fill-rule="evenodd" clip-rule="evenodd" d="M6.10049 13.0032C6.59774 13.7533 7.41279 14.2421 8.33284 14.2421C9.2529 14.2421 10.0679 13.7533 10.5652 13.0032H6.10049ZM5.27332 13.0032C5.15739 12.7635 5.06502 12.5085 4.99951 12.2417H8.33284H11.6662C11.6007 12.5085 11.5083 12.7635 11.3924 13.0032C10.8174 14.1919 9.66313 15.0036 8.33284 15.0036C7.00256 15.0036 5.84824 14.1919 5.27332 13.0032Z" fill="#505050"/>
<path d="M10.8965 11.0988C10.8965 12.6242 9.74873 13.8607 8.33284 13.8607C6.91696 13.8607 5.76915 12.6242 5.76915 11.0988C5.76915 9.57346 6.91696 8.33691 8.33284 8.33691C9.74873 8.33691 10.8965 9.57346 10.8965 11.0988Z" fill="#505050"/>
<path fill-rule="evenodd" clip-rule="evenodd" d="M8.33284 13.8607C9.74873 13.8607 10.8965 12.6242 10.8965 11.0988C10.8965 9.57346 9.74873 8.33691 8.33284 8.33691C6.91696 8.33691 5.76915 9.57346 5.76915 11.0988C5.76915 12.6242 6.91696 13.8607 8.33284 13.8607Z" fill="#505050"/>
<path d="M10.9802 12.7847H5.68604L5.98015 13.5262L6.96054 14.2677L8.23505 14.6914L9.80368 14.2677L10.686 13.5262L10.9802 12.7847Z" fill="#505050"/>
<rect x="35" y="26.6667" width="25" height="3.33333" rx="0.25" fill="#727272"/>
<rect x="41.6665" y="33.334" width="18.3333" height="3.33333" rx="0.25" fill="#727272"/>
<rect x="6.6665" y="38.3323" width="15" height="3.33333" rx="0.25" transform="rotate(-90 6.6665 38.3323)" fill="#A8A6A6"/>
<mask id="mask0_70_6052" style="mask-type:alpha" maskUnits="userSpaceOnUse" x="15" y="23" width="17" height="16">
<path d="M15 24.8333C15 24.0048 15.6716 23.3333 16.5 23.3333H30.1667C30.9951 23.3333 31.6667 24.0048 31.6667 24.8333V36.8333C31.6667 37.6617 30.9951 38.3333 30.1667 38.3333H16.5C15.6716 38.3333 15 37.6617 15 36.8333V24.8333Z" fill="#F1F1F1"/>
<path d="M15.05 24.8333C15.05 24.0324 15.6992 23.3833 16.5 23.3833H30.1667C30.9675 23.3833 31.6167 24.0324 31.6167 24.8333V36.8333C31.6167 37.6341 30.9675 38.2833 30.1667 38.2833H16.5C15.6992 38.2833 15.05 37.6341 15.05 36.8333V24.8333Z" stroke="#ACABA9" stroke-opacity="0.7" stroke-width="0.1" stroke-linejoin="round"/>
</mask>
<g mask="url(#mask0_70_6052)">
<path d="M24.2503 38.658C24.5213 38.617 24.7648 40.1544 25.032 40.0975C26.1833 39.8533 27.6158 41.337 28.333 40.5117C27.7392 36.6981 28.5881 30.5391 27.3857 28.3951C27.1945 28.0544 26.9465 27.722 26.5783 27.5213C26.2696 27.3532 25.9148 27.2413 25.5524 27.2107C25.4188 27.1992 25.1663 27.1921 24.8933 27.2522C24.3564 27.3705 24.2451 27.1799 23.7554 26.8438C23.2656 26.5076 22.7758 26.426 22.2861 26.5076C21.3065 26.6708 20.5753 27.0023 19.9553 27.4082C19.0233 28.0174 18.4927 28.9372 18.3968 30.24C18.3642 30.6842 18.5202 39.8872 18.3879 40.3116C18.1865 40.9573 18.5439 40.0272 19.3825 40.4005C20.5952 40.9406 19.1588 40.1352 20.5044 40.311L24.2509 38.6592L24.2503 38.658Z" fill="#594F45"/>
<path d="M25.5101 39.5394C24.5186 41.1062 22.2219 41.1189 21.2272 39.5548C20.9191 39.0696 20.7037 38.6228 20.5656 38.2993L20.9958 38.1766C21.5552 37.9567 21.9349 37.4971 21.9911 36.9716L22.032 36.2026L24.619 36.124L24.7193 36.9716C24.7756 37.4971 25.4602 37.9573 26.0195 38.1766L26.187 38.2424C26.0521 38.5665 25.8322 39.0319 25.5107 39.5401L25.5101 39.5394Z" fill="#DA9F8E"/>
<path d="M21.9905 36.4589L22.0314 35.69L24.6184 35.6113L24.7188 36.4589C24.6152 36.551 24.0239 37.0579 23.1693 36.9806C22.5422 36.9237 22.1292 36.5842 21.9905 36.4589Z" fill="#964436"/>
<path d="M20.255 31.4671C22.2679 31.189 23.7349 30.5089 24.2297 29.6121C24.3888 29.9189 25.0095 30.9301 26.3091 30.9538C26.3353 31.6576 26.3609 32.8497 26.2535 33.5478C26.1461 34.2458 25.8974 34.94 25.4218 35.5077C25.2058 35.7653 24.9514 35.9922 24.6656 36.1814C23.8704 36.7081 22.7857 36.7139 21.9751 36.2057C21.6657 36.0114 21.3909 35.7761 21.1652 35.507C20.689 34.9394 20.441 34.2452 20.3336 33.5471C20.2262 32.8491 20.2287 32.1703 20.255 31.4658V31.4671Z" fill="#DA9F8E"/>
</g>
</svg>
