<svg width="77" height="77" viewBox="0 0 77 77" fill="none" xmlns="http://www.w3.org/2000/svg">
<path fill-rule="evenodd" clip-rule="evenodd" d="M0 6.5C0 2.91015 2.91015 0 6.5 0H25V5H6.5C5.67157 5 5 5.67157 5 6.5V25H0V6.5Z" fill="white"/>
<path fill-rule="evenodd" clip-rule="evenodd" d="M0 70.5C0 74.0899 2.91015 77 6.5 77H25V72H6.5C5.67157 72 5 71.3284 5 70.5V52H0V70.5Z" fill="white"/>
<path fill-rule="evenodd" clip-rule="evenodd" d="M77 6.5C77 2.91015 74.0899 0 70.5 0H52V5H70.5C71.3284 5 72 5.67157 72 6.5V25H77V6.5Z" fill="white"/>
<path fill-rule="evenodd" clip-rule="evenodd" d="M77 70.5C77 74.0899 74.0899 77 70.5 77H52V72H70.5C71.3284 72 72 71.3284 72 70.5V52H77V70.5Z" fill="white"/>
</svg>
