<svg width="426" height="200" viewBox="0 0 426 200" fill="none" xmlns="http://www.w3.org/2000/svg">
<rect width="426" height="200" rx="16" fill="#F8FAFC"/>
<path d="M111.578 37.917C111.578 33.4987 115.16 29.917 119.578 29.917H309.039C313.457 29.917 317.039 33.4987 317.039 37.917V154.412H111.578V37.917Z" fill="url(#paint0_linear_1_17678)"/>
<path d="M102 162.083C102 166.501 105.582 170.083 110 170.083H316.002C320.42 170.083 324.002 166.501 324.002 162.083V153.541H102V162.083Z" fill="url(#paint1_linear_1_17678)"/>
<path d="M118.336 39.752C118.336 38.6474 119.231 37.752 120.336 37.752H306.996C308.101 37.752 308.996 38.6474 308.996 39.752V146.576H118.336V39.752Z" fill="#F5F7F9"/>
<path d="M118.539 39.752C118.539 38.6474 119.434 37.752 120.539 37.752H307.2C308.304 37.752 309.2 38.6474 309.2 39.752V56.0345H118.539V39.752Z" fill="white"/>
<g filter="url(#filter0_d_1_17678)">
<path d="M182.711 63.8184C182.711 62.4447 183.825 61.3311 185.198 61.3311H242.674C244.048 61.3311 245.162 62.4447 245.162 63.8184V133.253C245.162 134.627 244.048 135.741 242.674 135.741H185.198C183.825 135.741 182.711 134.627 182.711 133.253V63.8184Z" fill="white"/>
<path d="M182.961 63.8184C182.961 62.5828 183.963 61.5811 185.198 61.5811H242.674C243.91 61.5811 244.912 62.5828 244.912 63.8184V133.253C244.912 134.489 243.91 135.491 242.674 135.491H185.198C183.963 135.491 182.961 134.489 182.961 133.253V63.8184Z" stroke="#E2E8F0" stroke-width="0.5"/>
</g>
<path d="M182.711 66.9277H218.022C219.126 66.9277 220.022 67.8232 220.022 68.9277V83.583C220.022 84.6876 219.126 85.583 218.022 85.583H182.711V66.9277Z" fill="#1A42D6"/>
<path d="M212.616 75.807V79.4879C212.472 79.6623 212.249 79.8516 211.947 80.0557C211.645 80.2556 211.255 80.4278 210.779 80.5724C210.303 80.717 209.727 80.7893 209.05 80.7893C208.451 80.7893 207.904 80.6915 207.411 80.4959C206.917 80.296 206.492 80.0047 206.135 79.6219C205.782 79.2391 205.51 78.7713 205.318 78.2184C205.127 77.6613 205.031 77.0254 205.031 76.3109V75.7304C205.031 75.0159 205.123 74.3801 205.306 73.8229C205.493 73.2658 205.759 72.7959 206.103 72.4131C206.447 72.0303 206.858 71.739 207.334 71.5391C207.811 71.3392 208.34 71.2393 208.923 71.2393C209.731 71.2393 210.394 71.3711 210.913 71.6348C211.432 71.8942 211.828 72.2557 212.1 72.7193C212.376 73.1786 212.546 73.706 212.61 74.3014H210.754C210.707 73.9867 210.618 73.7124 210.486 73.4785C210.354 73.2445 210.165 73.0617 209.918 72.9298C209.676 72.798 209.361 72.7321 208.974 72.7321C208.655 72.7321 208.37 72.798 208.119 72.9298C207.872 73.0574 207.664 73.2467 207.494 73.4976C207.324 73.7485 207.194 74.059 207.105 74.429C207.015 74.799 206.971 75.2286 206.971 75.7177V76.3109C206.971 76.7958 207.017 77.2253 207.111 77.5996C207.205 77.9696 207.343 78.2822 207.526 78.5374C207.713 78.7883 207.942 78.9776 208.215 79.1052C208.487 79.2327 208.804 79.2965 209.165 79.2965C209.467 79.2965 209.718 79.271 209.918 79.22C210.122 79.1689 210.286 79.1073 210.409 79.035C210.537 78.9584 210.635 78.8861 210.703 78.8181V77.1722H208.955V75.807H212.616Z" fill="white"/>
<path d="M200.453 77.3506H198.086V75.8578H200.453C200.819 75.8578 201.117 75.7983 201.346 75.6792C201.576 75.5559 201.744 75.3857 201.85 75.1688C201.957 74.9519 202.01 74.7074 202.01 74.4352C202.01 74.1588 201.957 73.9014 201.85 73.6633C201.744 73.4251 201.576 73.2337 201.346 73.0891C201.117 72.9445 200.819 72.8722 200.453 72.8722H198.75V80.6616H196.836V71.373H200.453C201.18 71.373 201.803 71.5049 202.322 71.7686C202.845 72.028 203.245 72.3874 203.522 72.8467C203.798 73.306 203.936 73.8313 203.936 74.4224C203.936 75.0221 203.798 75.541 203.522 75.979C203.245 76.4171 202.845 76.7552 202.322 76.9934C201.803 77.2315 201.18 77.3506 200.453 77.3506Z" fill="white"/>
<path d="M193.292 77.8099V71.373H195.199V77.8099C195.199 78.4309 195.063 78.9646 194.791 79.4112C194.519 79.8535 194.146 80.1937 193.674 80.4319C193.207 80.6701 192.679 80.7892 192.092 80.7892C191.484 80.7892 190.946 80.6871 190.478 80.4829C190.01 80.2788 189.643 79.9662 189.375 79.5452C189.107 79.1199 188.973 78.5819 188.973 77.9311H190.893C190.893 78.2714 190.94 78.5415 191.033 78.7413C191.131 78.9412 191.269 79.0837 191.448 79.1688C191.627 79.2538 191.841 79.2964 192.092 79.2964C192.335 79.2964 192.545 79.2389 192.724 79.1241C192.902 79.0093 193.041 78.8413 193.138 78.6201C193.241 78.399 193.292 78.1289 193.292 77.8099Z" fill="white"/>
<path d="M205.651 119.567C204.936 119.459 204.275 119.163 203.752 118.707C203.689 118.651 203.626 118.594 203.566 118.532M205.877 112.976C206.592 113.084 207.253 113.38 207.776 113.837C207.84 113.893 207.9 113.95 207.958 114.009M204.188 113.706C204.524 113.589 204.887 113.526 205.26 113.526C206.027 113.526 206.749 113.788 207.292 114.26L207.293 114.26C207.835 114.736 208.136 115.366 208.136 116.036M207.52 118.679C207.184 118.797 206.821 118.86 206.449 118.86C205.681 118.86 204.959 118.598 204.416 118.126L204.416 118.125C203.873 117.65 203.573 117.02 203.573 116.35M206.585 116.35C206.585 115.999 206.427 115.669 206.143 115.421C205.859 115.173 205.48 115.037 205.079 115.036H205.079C204.677 115.036 204.298 115.173 204.014 115.421C203.73 115.669 203.573 115.999 203.575 116.351M208.004 117.353C207.997 117.359 207.991 117.364 207.988 117.368L207.987 117.368L207.983 117.372L207.982 117.373C207.618 117.691 207.137 117.865 206.624 117.865C206.112 117.865 205.631 117.691 205.269 117.375C204.905 117.058 204.706 116.638 204.706 116.19C204.706 116.063 204.763 115.943 204.867 115.851C204.972 115.759 205.109 115.71 205.256 115.71C205.403 115.71 205.542 115.761 205.645 115.851C205.75 115.942 205.806 116.062 205.806 116.19C205.806 116.382 205.893 116.562 206.046 116.697L206.047 116.697C206.203 116.834 206.409 116.908 206.628 116.908C206.847 116.908 207.055 116.832 207.209 116.697C207.365 116.561 207.45 116.381 207.45 116.19C207.45 115.68 207.222 115.2 206.807 114.838C206.394 114.478 205.844 114.279 205.26 114.279C204.673 114.279 204.123 114.48 203.71 114.84C203.707 114.843 203.703 114.846 203.7 114.85C203.699 114.851 203.695 114.855 203.69 114.86L203.685 114.865L203.683 114.866L203.683 114.867" stroke="#6A756E" stroke-width="1.5" stroke-linecap="round" stroke-linejoin="round"/>
<path d="M202.38 95.8779H209.748C210.957 95.8779 211.936 96.7344 211.936 97.7916V123.196C211.936 124.254 210.957 125.11 209.748 125.11H192.199C190.991 125.11 190.012 124.254 190.012 123.196V97.7916C190.012 96.7344 190.991 95.8779 192.199 95.8779H202.38Z" fill="#6EBA87"/>
<path d="M202.287 97.6641H208.305C209.292 97.6641 210.092 98.4206 210.092 99.3545V121.795C210.092 122.729 209.292 123.486 208.305 123.486H193.971C192.983 123.486 192.184 122.729 192.184 121.795V99.3545C192.184 98.4206 192.983 97.6641 193.971 97.6641H202.287Z" fill="#E0F1C9"/>
<path d="M205.711 102.101C205.711 100.996 204.816 100.101 203.711 100.101H198.249C197.144 100.101 196.249 100.996 196.249 102.101V107.236C196.249 108.34 197.144 109.236 198.249 109.236H203.711C204.816 109.236 205.711 108.34 205.711 107.236V102.101Z" fill="#F3F1F1"/>
<path d="M205.661 102.101C205.661 101.024 204.788 100.151 203.711 100.151H198.249C197.172 100.151 196.299 101.024 196.299 102.101V107.236C196.299 108.313 197.172 109.186 198.249 109.186H203.711C204.788 109.186 205.661 108.313 205.661 107.236V102.101Z" stroke="#ACABA9" stroke-opacity="0.5" stroke-width="0.1" stroke-linejoin="round"/>
<path d="M205.711 113.63C205.711 112.525 204.816 111.63 203.711 111.63H198.249C197.144 111.63 196.249 112.525 196.249 113.63V118.765C196.249 119.87 197.144 120.765 198.249 120.765H203.711C204.816 120.765 205.711 119.87 205.711 118.765V113.63Z" fill="#F7FBF1"/>
<path d="M205.661 113.63C205.661 112.553 204.788 111.68 203.711 111.68H198.249C197.172 111.68 196.299 112.553 196.299 113.63V118.765C196.299 119.842 197.172 120.715 198.249 120.715H203.711C204.788 120.715 205.661 119.842 205.661 118.765V113.63Z" stroke="#ACABA9" stroke-opacity="0.5" stroke-width="0.1" stroke-linejoin="round"/>
<mask id="mask0_1_17678" style="mask-type:alpha" maskUnits="userSpaceOnUse" x="196" y="99" width="10" height="11">
<path d="M205.305 101.364C205.305 100.536 204.633 99.8643 203.805 99.8643H197.503C196.675 99.8643 196.003 100.536 196.003 101.364V107.665C196.003 108.494 196.675 109.165 197.503 109.165H203.805C204.633 109.165 205.305 108.494 205.305 107.665V101.364Z" fill="#EDEFD2"/>
<path d="M205.255 101.364C205.255 100.563 204.606 99.9143 203.805 99.9143H197.503C196.703 99.9143 196.053 100.563 196.053 101.364V107.665C196.053 108.466 196.703 109.115 197.503 109.115H203.805C204.606 109.115 205.255 108.466 205.255 107.665V101.364Z" stroke="#ACABA9" stroke-opacity="0.7" stroke-width="0.1" stroke-linejoin="round"/>
</mask>
<g mask="url(#mask0_1_17678)">
<path d="M200.752 108.848C200.6 108.826 200.464 109.687 200.314 109.655C199.669 109.518 198.867 110.35 198.465 109.887C198.798 107.75 198.322 104.3 198.996 103.098C199.103 102.908 199.242 102.721 199.448 102.609C199.621 102.515 199.82 102.452 200.023 102.435C200.098 102.428 200.239 102.424 200.392 102.458C200.693 102.524 200.755 102.418 201.03 102.229C201.304 102.041 201.578 101.995 201.853 102.041C202.402 102.132 202.811 102.318 203.159 102.545C203.681 102.887 203.978 103.402 204.032 104.132C204.05 104.381 203.963 109.537 204.037 109.775C204.15 110.137 203.95 109.616 203.48 109.825C202.8 110.127 203.605 109.676 202.851 109.775L200.752 108.849L200.752 108.848Z" fill="#594F45"/>
<path d="M200.047 109.343C200.603 110.221 201.89 110.228 202.447 109.352C202.619 109.08 202.74 108.83 202.818 108.648L202.576 108.58C202.263 108.457 202.05 108.199 202.019 107.905L201.996 107.474L200.547 107.43L200.49 107.905C200.459 108.199 200.075 108.457 199.762 108.58L199.668 108.617C199.744 108.798 199.867 109.059 200.047 109.344L200.047 109.343Z" fill="#DA9F8E"/>
<path d="M202.021 107.618L201.998 107.187L200.548 107.143L200.492 107.618C200.55 107.67 200.881 107.954 201.36 107.91C201.712 107.878 201.943 107.688 202.021 107.618Z" fill="#964436"/>
<path d="M202.991 104.821C201.863 104.665 201.041 104.284 200.764 103.782C200.675 103.954 200.327 104.52 199.599 104.533C199.584 104.928 199.57 105.596 199.63 105.987C199.69 106.378 199.829 106.767 200.096 107.085C200.217 107.229 200.36 107.356 200.52 107.462C200.965 107.758 201.573 107.761 202.027 107.476C202.2 107.367 202.354 107.235 202.481 107.085C202.748 106.767 202.887 106.378 202.947 105.987C203.007 105.595 203.006 105.215 202.991 104.82V104.821Z" fill="#DA9F8E"/>
</g>
<path d="M224.604 95.7021H217.18C215.962 95.7021 214.976 96.5651 214.976 97.6304V123.228C214.976 124.294 215.962 125.157 217.18 125.157H234.862C236.08 125.157 237.066 124.294 237.066 123.228V97.6304C237.066 96.5651 236.08 95.7021 234.862 95.7021H224.604Z" fill="#6EBA87"/>
<path d="M224.703 97.2988H218.639C217.644 97.2988 216.838 98.0611 216.838 99.0021V121.614C216.838 122.555 217.644 123.317 218.639 123.317H233.082C234.077 123.317 234.883 122.555 234.883 121.614V99.0021C234.883 98.0611 234.077 97.2988 233.082 97.2988H224.703Z" fill="#E0F1C9"/>
<rect x="227.906" y="99.8433" width="11.7818" height="1.47272" rx="0.25" transform="rotate(90 227.906 99.8433)" fill="#87938B"/>
<rect x="224.453" y="99.8433" width="11.7818" height="1.47272" rx="0.25" transform="rotate(90 224.453 99.8433)" fill="#87938B"/>
<rect x="231.59" y="99.8433" width="14.7272" height="1.47272" rx="0.25" transform="rotate(90 231.59 99.8433)" fill="#87938B"/>
<rect x="165.281" y="44.5195" width="97.3484" height="2.43371" fill="#E9EDF0"/>
<defs>
<filter id="filter0_d_1_17678" x="178.711" y="58.3311" width="70.4492" height="82.4097" filterUnits="userSpaceOnUse" color-interpolation-filters="sRGB">
<feFlood flood-opacity="0" result="BackgroundImageFix"/>
<feColorMatrix in="SourceAlpha" type="matrix" values="0 0 0 0 0 0 0 0 0 0 0 0 0 0 0 0 0 0 127 0" result="hardAlpha"/>
<feOffset dy="1"/>
<feGaussianBlur stdDeviation="2"/>
<feComposite in2="hardAlpha" operator="out"/>
<feColorMatrix type="matrix" values="0 0 0 0 0.854902 0 0 0 0 0.854902 0 0 0 0 0.854902 0 0 0 0.25 0"/>
<feBlend mode="normal" in2="BackgroundImageFix" result="effect1_dropShadow_1_17678"/>
<feBlend mode="normal" in="SourceGraphic" in2="effect1_dropShadow_1_17678" result="shape"/>
</filter>
<linearGradient id="paint0_linear_1_17678" x1="188.191" y1="25.564" x2="260.885" y2="166.165" gradientUnits="userSpaceOnUse">
<stop stop-color="#373737"/>
<stop offset="0.877455" stop-color="#393939"/>
</linearGradient>
<linearGradient id="paint1_linear_1_17678" x1="324.002" y1="161.812" x2="102" y2="161.812" gradientUnits="userSpaceOnUse">
<stop offset="0.38" stop-color="#52575D"/>
<stop offset="0.571591" stop-color="#7B838C"/>
<stop offset="0.734684" stop-color="#8F98A2"/>
<stop offset="1" stop-color="#52575D"/>
</linearGradient>
</defs>
</svg>
