<svg width="24" height="24" viewBox="0 0 24 24" fill="none" xmlns="http://www.w3.org/2000/svg">
<path fill-rule="evenodd" clip-rule="evenodd" d="M12.2628 2.3C8.931 2.3 6.50217 4.18348 5.63826 7.40819C5.63712 7.41246 5.63593 7.41671 5.63471 7.42094C5.19173 9.08187 5.16654 10.6646 5.69119 12.0393C6.2118 13.4035 7.30315 14.6405 9.24617 15.5683C9.47218 15.6762 9.61607 15.9044 9.61607 16.1549V19.4611H14.9096V16.1554C14.9096 15.9232 15.0335 15.7086 15.2345 15.5925C18.1571 13.9049 19.7407 10.5937 18.8874 7.40816C18.0235 4.18298 15.5947 2.3 12.2628 2.3ZM4.38633 7.05767C5.40424 3.27967 8.34062 1 12.2628 1C16.1899 1 19.1287 3.28476 20.1431 7.0718C21.1346 10.7735 19.3706 14.5227 16.2096 16.5218V20.1111C16.2096 20.4701 15.9186 20.7611 15.5596 20.7611H8.96607C8.60709 20.7611 8.31607 20.4701 8.31607 20.1111V16.5567C6.33703 15.5237 5.09639 14.1267 4.47663 12.5028C3.82455 10.7942 3.88925 8.91209 4.38255 7.0712C4.38377 7.06667 4.38503 7.06216 4.38633 7.05767ZM8.31607 22.7484C8.31607 22.3894 8.60709 22.0984 8.96607 22.0984H15.5596C15.9186 22.0984 16.2096 22.3894 16.2096 22.7484C16.2096 23.1073 15.9186 23.3984 15.5596 23.3984H8.96607C8.60709 23.3984 8.31607 23.1073 8.31607 22.7484Z" fill="#274A79"/>
<path fill-rule="evenodd" clip-rule="evenodd" d="M12.9443 3.631C12.9904 3.98701 12.7392 4.313 12.3832 4.35914C9.70213 4.70655 8.55874 5.92979 8.04383 6.98106C7.77684 7.52614 7.66496 8.05473 7.62066 8.4487C7.59862 8.64473 7.59367 8.80429 7.59396 8.91151C7.5941 8.96501 7.59555 9.00514 7.59678 9.02989C7.5974 9.04225 7.59796 9.05074 7.59827 9.05509L7.59832 9.05619L7.59846 9.05778L7.59838 9.05682L7.59832 9.05619C7.59838 9.05688 7.59845 9.05757 7.59851 9.05826C7.62955 9.4146 7.36668 9.72933 7.01012 9.76192C6.65263 9.7946 6.33633 9.53129 6.30365 9.17379L6.92498 9.117C6.30365 9.17378 6.30361 9.17337 6.30358 9.17295L6.30349 9.172L6.30329 9.16977L6.30281 9.16402L6.30155 9.14742C6.3006 9.13413 6.29948 9.1164 6.29839 9.09451C6.29621 9.05074 6.29417 8.9902 6.29396 8.91504C6.29355 8.76494 6.30049 8.55522 6.3288 8.30344C6.38521 7.8018 6.52789 7.12065 6.87635 6.40923C7.59231 4.94749 9.12327 3.47069 12.2161 3.06991C12.5721 3.02378 12.8981 3.27499 12.9443 3.631Z" fill="#274A79"/>
</svg>
