<svg width="65" height="46" viewBox="0 0 65 46" fill="none" xmlns="http://www.w3.org/2000/svg">
<g clip-path="url(#clip0_1815_4599)">
<path d="M0 25.9506V41.4131C0 43.9497 1.90479 46 4.25612 46H60.7439C63.0952 46 65 43.9431 65 41.4131V4.58686C65 2.05029 63.0952 0 60.7439 0H4.25612C1.90479 0 0 2.05686 0 4.58686V25.9506Z" fill="#C8EFB0"/>
<g opacity="0.7">
<path d="M27.7436 39.1H16.3637C15.6628 39.1 15.0894 38.5126 15.0894 37.7948V24.3052C15.0894 23.5874 15.6628 23 16.3637 23H27.7436C28.4445 23 29.0179 23.5874 29.0179 24.3052V37.7948C29.0179 38.5126 28.4445 39.1 27.7436 39.1ZM16.3637 23.0653C15.6947 23.0653 15.1531 23.62 15.1531 24.3052V37.7948C15.1531 38.48 15.6947 39.0347 16.3637 39.0347H27.7436C28.4126 39.0347 28.9542 38.48 28.9542 37.7948V24.3052C28.9542 23.62 28.4126 23.0653 27.7436 23.0653H16.3637Z" fill="#595959"/>
</g>
<path d="M15.0894 24.3052C15.0894 23.5874 15.6628 23 16.3637 23H27.7436C28.4445 23 29.0179 23.5874 29.0179 24.3052V37.7948C29.0179 38.5126 28.4445 39.1 27.7436 39.1H16.3637C15.6628 39.1 15.0894 38.5126 15.0894 37.7948V24.3052Z" fill="#F8F8F8"/>
<mask id="mask0_1815_4599" style="mask-type:alpha" maskUnits="userSpaceOnUse" x="15" y="23" width="15" height="17">
<path d="M15.0894 24.3052C15.0894 23.5874 15.6628 23 16.3637 23H27.7436C28.4445 23 29.0179 23.5874 29.0179 24.3052V37.7948C29.0179 38.5126 28.4445 39.1 27.7436 39.1H16.3637C15.6628 39.1 15.0894 38.5126 15.0894 37.7948V24.3052Z" fill="white"/>
</mask>
<g mask="url(#mask0_1815_4599)">
<path d="M23.1511 39.8773C23.4427 39.838 23.6996 41.3823 23.9842 41.3299C25.213 41.0813 26.7472 42.5797 27.5108 41.7487C26.8791 37.9077 27.7816 31.6981 26.4973 29.5388C26.296 29.1985 26.0252 28.8582 25.6364 28.6554C25.3032 28.4853 24.9283 28.374 24.5396 28.3413C24.3938 28.3282 24.13 28.3217 23.8384 28.3806C23.2622 28.4984 23.1442 28.3086 22.6235 27.9683C22.1029 27.6281 21.5752 27.5496 21.0546 27.6281C20.0063 27.7917 19.2288 28.1254 18.5623 28.5376C17.5626 29.1527 17.0003 30.0753 16.8962 31.3905C16.8615 31.8355 17.0281 41.114 16.8892 41.5393C16.674 42.1871 17.0559 41.2514 17.9514 41.6309C19.2496 42.174 17.7154 41.3626 19.1524 41.5393L23.1581 39.8773H23.1511Z" fill="#594F45"/>
<path d="M24.498 40.767C23.4358 42.344 20.9852 42.3571 19.9161 40.7801C19.5898 40.2893 19.3538 39.8379 19.208 39.5172L19.6662 39.3929C20.2632 39.1704 20.6728 38.7058 20.7284 38.1758L20.77 37.4037L23.533 37.3252L23.6371 38.1824C23.6996 38.7124 24.4286 39.177 25.0256 39.3995L25.2061 39.4649C25.0603 39.7921 24.8243 40.2632 24.4841 40.7736L24.498 40.767Z" fill="#DA9F8E"/>
<path d="M20.7353 37.6656L20.777 36.8935L23.54 36.8149L23.6441 37.6721C23.533 37.7637 22.9013 38.2741 21.9849 38.1956C21.3115 38.1367 20.8742 37.7964 20.7214 37.6721L20.7353 37.6656Z" fill="#964436"/>
<path d="M18.8747 32.6336C21.0268 32.3523 22.5957 31.6652 23.1233 30.7622C23.2969 31.0697 23.9564 32.0905 25.3449 32.1167C25.3726 32.8234 25.4004 34.0274 25.2824 34.7275C25.1644 35.4342 24.9006 36.1278 24.3938 36.7036C24.1647 36.9653 23.8939 37.1944 23.5885 37.3841C22.7415 37.9141 21.5752 37.9207 20.7144 37.4103C20.3812 37.214 20.0896 36.9784 19.8466 36.7036C19.3398 36.1343 19.0691 35.4342 18.958 34.7275C18.84 34.0274 18.8469 33.3403 18.8747 32.6271V32.6336Z" fill="#DA9F8E"/>
</g>
<path d="M0 7.4751H4.87517C4.87517 7.4751 2.95993 8.65138 2.95993 10.5637C2.95993 12.476 4.87517 13.6062 4.87517 13.6062H0V7.4751Z" fill="#595959"/>
<path d="M65 7.4751H11.373C11.373 7.4751 13.4415 8.65138 13.4415 10.5637C13.4415 12.476 11.373 13.6062 11.373 13.6062H65V7.4751Z" fill="#595959"/>
<path fill-rule="evenodd" clip-rule="evenodd" d="M4.64282 10.3501C4.64282 12.2555 6.20183 13.8001 8.12497 13.8001C10.0481 13.8001 11.6071 12.2555 11.6071 10.3501H4.64282Z" fill="#595959"/>
<ellipse cx="8.1249" cy="10.3499" rx="2.32143" ry="3.45" fill="#595959"/>
<mask id="mask1_1815_4599" style="mask-type:luminance" maskUnits="userSpaceOnUse" x="48" y="7" width="11" height="8">
<path d="M48.7517 11.0203L48.4592 10.8363C48.3895 10.9349 48.3826 11.0663 48.4383 11.1715C48.5009 11.2766 48.6193 11.3423 48.7447 11.3423V11.0138L48.7517 11.0203ZM51.1266 7.6689V7.34033H50.9385L50.8341 7.4849L51.1266 7.6689ZM53.7661 7.6689L54.0517 7.47833L53.9472 7.34033H53.7661V7.6689ZM55.8764 10.5143L55.5908 10.7049L55.6953 10.8429H55.8764V10.5143ZM58.509 10.5143L58.7945 10.6983C58.8642 10.5998 58.8781 10.4683 58.8154 10.3566C58.7527 10.2515 58.6343 10.1792 58.509 10.1792V10.5078V10.5143ZM56.1341 13.8066V14.1352C56.2525 14.1352 56.3569 14.0826 56.4196 13.9906L56.1341 13.8066ZM53.5502 13.8066L53.2786 14.0169C53.3483 14.0958 53.4458 14.1352 53.5502 14.1352V13.8066ZM51.1335 11.0269L51.4052 10.8166L51.3007 10.6983H51.1335V11.0269ZM49.0511 11.2109L51.426 7.85947L50.848 7.49147L48.4731 10.8429L49.0511 11.2109ZM51.1335 8.00405H53.7731V7.3469H51.1335V8.00405ZM53.4876 7.86605L55.5978 10.7115L56.1689 10.3369L54.0586 7.49147L53.4876 7.86605ZM55.8834 10.8495H58.5159V10.1923H55.8834V10.8495ZM58.2234 10.3369L55.8485 13.6292L56.4266 13.9972L58.8015 10.7049L58.2234 10.3369ZM56.141 13.4846H53.5572V14.1418H56.141V13.4846ZM53.8219 13.6029L51.4052 10.8232L50.8689 11.2372L53.2856 14.0169L53.8219 13.6029ZM51.1335 10.7049H48.7586V11.362H51.1335V10.7049Z" fill="white"/>
</mask>
<g mask="url(#mask1_1815_4599)">
<path d="M48.7655 10.6919H48.7515V11.349H48.7655V10.6919Z" fill="#C8EFB0"/>
<path d="M49.6986 10.6919H48.7654V11.349H49.6986V10.6919Z" fill="#C8EFB0"/>
<path d="M50.632 10.6919H49.6987V11.349H50.632V10.6919Z" fill="#C8EFB0"/>
<path d="M51.1266 10.6919H50.6321V11.349H51.1266V10.6919Z" fill="#C8EFB0"/>
<path d="M51.5651 10.8101H50.8547V14.0038H51.5651V10.8101Z" fill="#C8EFB0"/>
<path d="M52.4984 10.8101H51.5652V14.0038H52.4984V10.8101Z" fill="#C8EFB0"/>
<path d="M53.4318 10.8101H52.4985V14.0038H53.4318V10.8101Z" fill="#C8EFB0"/>
<path d="M53.8147 10.8101H53.4316V14.0038H53.8147V10.8101Z" fill="#C8EFB0"/>
<path d="M54.365 13.4717H53.5432V14.1288H54.365V13.4717Z" fill="#C8EFB0"/>
<path d="M55.2982 13.4717H54.365V14.1288H55.2982V13.4717Z" fill="#C8EFB0"/>
<path d="M56.1341 13.4717H55.2983V14.1288H56.1341V13.4717Z" fill="#C8EFB0"/>
<path d="M56.2316 10.3237H55.8416V13.984H56.2316V10.3237Z" fill="#C8EFB0"/>
<path d="M57.1647 10.3237H56.2314V13.984H57.1647V10.3237Z" fill="#C8EFB0"/>
<path d="M58.098 10.3237H57.1648V13.984H58.098V10.3237Z" fill="#C8EFB0"/>
<path d="M58.7944 10.3237H58.0979V13.984H58.7944V10.3237Z" fill="#C8EFB0"/>
<path d="M56.2246 10.1792H55.8694V10.8363H56.2246V10.1792Z" fill="#C8EFB0"/>
<path d="M57.1647 10.1792H56.2314V10.8363H57.1647V10.1792Z" fill="#C8EFB0"/>
<path d="M58.098 10.1792H57.1648V10.8363H58.098V10.1792Z" fill="#C8EFB0"/>
<path d="M58.5018 10.1792H58.0979V10.8363H58.5018V10.1792Z" fill="#C8EFB0"/>
<path d="M54.3581 7.47852H53.4736V10.6985H54.3581V7.47852Z" fill="#C8EFB0"/>
<path d="M55.2982 7.47852H54.365V10.6985H55.2982V7.47852Z" fill="#C8EFB0"/>
<path d="M56.1619 7.47852H55.2983V10.6985H56.1619V7.47852Z" fill="#C8EFB0"/>
<path d="M51.5652 7.34033H51.1265V7.99747H51.5652V7.34033Z" fill="#C8EFB0"/>
<path d="M52.4984 7.34033H51.5652V7.99747H52.4984V7.34033Z" fill="#C8EFB0"/>
<path d="M53.4318 7.34033H52.4985V7.99747H53.4318V7.34033Z" fill="#C8EFB0"/>
<path d="M53.7659 7.34033H53.4316V7.99747H53.7659V7.34033Z" fill="#C8EFB0"/>
<path d="M48.7585 7.48486H48.459V11.2043H48.7585V7.48486Z" fill="#C8EFB0"/>
<path d="M49.6986 7.48486H48.7654V11.2043H49.6986V7.48486Z" fill="#C8EFB0"/>
<path d="M50.632 7.48486H49.6987V11.2043H50.632V7.48486Z" fill="#C8EFB0"/>
<path d="M51.4191 7.48486H50.6321V11.2043H51.4191V7.48486Z" fill="#C8EFB0"/>
<path d="M51.3981 10.6919H51.1265V11.0205H51.3981V10.6919Z" fill="#C8EFB0"/>
<path d="M53.4247 13.7998H53.2715V14.1284H53.4247V13.7998Z" fill="#C8EFB0"/>
<path d="M53.5431 13.7998H53.4316V14.1284H53.5431V13.7998Z" fill="#C8EFB0"/>
<path d="M56.2251 13.7998H56.127V14.1284H56.2251V13.7998Z" fill="#C8EFB0"/>
<path d="M56.4195 13.7998H56.2314V14.1284H56.4195V13.7998Z" fill="#C8EFB0"/>
<path d="M58.8711 10.1792H58.502V10.6918H58.8711V10.1792Z" fill="#C8EFB0"/>
<path d="M55.8693 10.5078H55.5837V10.8364H55.8693V10.5078Z" fill="#C8EFB0"/>
<path d="M54.0446 7.34033H53.759V7.6689H54.0446V7.34033Z" fill="#C8EFB0"/>
<path d="M51.1265 7.34033H50.834V7.6689H51.1265V7.34033Z" fill="#C8EFB0"/>
<path d="M48.7514 10.8364H48.3823V11.349H48.7514V10.8364Z" fill="#C8EFB0"/>
</g>
<path d="M56.7286 25.2998H33.8069C33.7261 25.2998 33.6606 25.3549 33.6606 25.4229V27.4767C33.6606 27.5447 33.7261 27.5998 33.8069 27.5998H56.7286C56.8094 27.5998 56.8749 27.5447 56.8749 27.4767V25.4229C56.8749 25.3549 56.8094 25.2998 56.7286 25.2998Z" fill="#595959"/>
<path d="M56.7411 29.8999H40.7589C40.685 29.8999 40.625 29.955 40.625 30.023V32.0768C40.625 32.1448 40.685 32.1999 40.7589 32.1999H56.7411C56.815 32.1999 56.875 32.1448 56.875 32.0768V30.023C56.875 29.955 56.815 29.8999 56.7411 29.8999Z" fill="#595959"/>
<path d="M6.96436 23.1328L6.96436 38.9674C6.96436 39.0407 7.04781 39.1001 7.15077 39.1001H10.2601C10.363 39.1001 10.4465 39.0407 10.4465 38.9674V23.1328C10.4465 23.0595 10.363 23.0001 10.2601 23.0001H7.15077C7.04781 23.0001 6.96436 23.0595 6.96436 23.1328Z" fill="#595959"/>
</g>
<defs>
<clipPath id="clip0_1815_4599">
<rect width="65" height="46" fill="white"/>
</clipPath>
</defs>
</svg>
