<svg width="33" height="32" viewBox="0 0 33 32" fill="none" xmlns="http://www.w3.org/2000/svg">
<mask id="mask0_1154_13072" style="mask-type:alpha" maskUnits="userSpaceOnUse" x="0" y="0" width="33" height="32">
<rect x="0.5" width="32" height="32" fill="#D9D9D9"/>
</mask>
<g mask="url(#mask0_1154_13072)">
<path d="M7.5783 27.3332C6.90475 27.3332 6.33464 27.0998 5.86797 26.6332C5.4013 26.1665 5.16797 25.5964 5.16797 24.9228V7.07684C5.16797 6.40328 5.4013 5.83317 5.86797 5.3665C6.33464 4.89984 6.90475 4.6665 7.5783 4.6665H25.4243C26.0979 4.6665 26.668 4.89984 27.1346 5.3665C27.6013 5.83317 27.8346 6.40328 27.8346 7.07684V24.9228C27.8346 25.5964 27.6013 26.1665 27.1346 26.6332C26.668 27.0998 26.0979 27.3332 25.4243 27.3332H7.5783ZM7.5783 25.3332H25.4243C25.527 25.3332 25.621 25.2904 25.7063 25.2048C25.7919 25.1195 25.8346 25.0255 25.8346 24.9228V7.07684C25.8346 6.97417 25.7919 6.88017 25.7063 6.79484C25.621 6.70928 25.527 6.6665 25.4243 6.6665H7.5783C7.47564 6.6665 7.38164 6.70928 7.2963 6.79484C7.21075 6.88017 7.16797 6.97417 7.16797 7.07684V24.9228C7.16797 25.0255 7.21075 25.1195 7.2963 25.2048C7.38164 25.2904 7.47564 25.3332 7.5783 25.3332ZM10.7066 22.3332H22.3986C22.6397 22.3332 22.8184 22.2237 22.9346 22.0048C23.0509 21.7862 23.0329 21.5743 22.8806 21.3692L19.7013 17.1102C19.5764 16.9495 19.4157 16.8692 19.2193 16.8692C19.0226 16.8692 18.862 16.9495 18.7373 17.1102L15.4756 21.3588L13.291 18.5588C13.1663 18.4066 13.0077 18.3305 12.8153 18.3305C12.6231 18.3305 12.4645 18.4109 12.3396 18.5718L10.2373 21.3692C10.0766 21.5743 10.0544 21.7862 10.1706 22.0048C10.2869 22.2237 10.4655 22.3332 10.7066 22.3332ZM11.8346 12.9998C12.2962 12.9998 12.6893 12.8374 13.014 12.5125C13.3389 12.1878 13.5013 11.7947 13.5013 11.3332C13.5013 10.8716 13.3389 10.4785 13.014 10.1538C12.6893 9.82895 12.2962 9.6665 11.8346 9.6665C11.3731 9.6665 10.98 9.82895 10.6553 10.1538C10.3304 10.4785 10.168 10.8716 10.168 11.3332C10.168 11.7947 10.3304 12.1878 10.6553 12.5125C10.98 12.8374 11.3731 12.9998 11.8346 12.9998Z" fill="#B3C0F1"/>
</g>
</svg>
