<svg width="54" height="40" viewBox="0 0 54 40" fill="none" xmlns="http://www.w3.org/2000/svg">
<path d="M0 22.5657V36.0114C0 38.2171 1.58244 40 3.53585 40H50.4641C52.4176 40 54 38.2114 54 36.0114V3.98857C54 1.78286 52.4176 0 50.4641 0H3.53585C1.58244 0 0 1.78857 0 3.98857V22.5657Z" fill="#FFDCD3"/>
<path d="M54 3.69231C54 1.6531 52.6569 0 51 0H50V40H51C52.6569 40 54 38.3469 54 36.3077V3.69231Z" fill="#FF947E"/>
<path d="M0 36H54V37C54 38.6569 52.4059 40 50.4396 40H3.56044C1.59406 40 0 38.6569 0 37V36Z" fill="#FF947E"/>
<path d="M12 6.5C12 6.22386 12.2239 6 12.5 6H44.5C44.7761 6 45 6.22386 45 6.5V7.5C45 7.77614 44.7761 8 44.5 8H12.5C12.2239 8 12 7.77614 12 7.5V6.5Z" fill="#A91A17"/>
<path d="M12 15.25C12 15.1119 12.1119 15 12.25 15H33.75C33.8881 15 34 15.1119 34 15.25V16.75C34 16.8881 33.8881 17 33.75 17H12.25C12.1119 17 12 16.8881 12 16.75V15.25Z" fill="#888888"/>
<path d="M12 19.25C12 19.1119 12.1119 19 12.25 19H33.75C33.8881 19 34 19.1119 34 19.25V21.75C34 21.8881 33.8881 22 33.75 22H12.25C12.1119 22 12 21.8881 12 21.75V19.25Z" fill="white"/>
<path d="M45 31.25C45 31.1119 45.1119 31 45.25 31H47.75C47.8881 31 48 31.1119 48 31.25V32.75C48 32.8881 47.8881 33 47.75 33H45.25C45.1119 33 45 32.8881 45 32.75V31.25Z" fill="#888888"/>
<path fill-rule="evenodd" clip-rule="evenodd" d="M4.19258 8.49255C4.59535 9.09264 5.25553 9.48364 6.00078 9.48364C6.74603 9.48364 7.40622 9.09264 7.80899 8.49255H4.19258ZM3.52256 8.49255C3.42866 8.30079 3.35384 8.09677 3.30078 7.88333H8.70078C8.64772 8.09677 8.5729 8.30079 8.479 8.49255C8.01331 9.44352 7.07831 10.0929 6.00078 10.0929C4.92325 10.0929 3.98825 9.44352 3.52256 8.49255Z" fill="#888888"/>
<path d="M8.07737 6.96905C8.07737 8.18933 7.14765 9.17857 6.00078 9.17857C4.85391 9.17857 3.92419 8.18933 3.92419 6.96905C3.92419 5.74876 4.85391 4.75952 6.00078 4.75952C7.14765 4.75952 8.07737 5.74876 8.07737 6.96905Z" fill="#888888"/>
<path fill-rule="evenodd" clip-rule="evenodd" d="M6.00078 9.17857C7.14765 9.17857 8.07737 8.18933 8.07737 6.96905C8.07737 5.74876 7.14765 4.75952 6.00078 4.75952C4.85391 4.75952 3.92419 5.74876 3.92419 6.96905C3.92419 8.18933 4.85391 9.17857 6.00078 9.17857Z" fill="#888888"/>
<path d="M8.14371 8.3186H3.85547L4.0937 8.91182L4.88782 9.50504L5.92018 9.84403L7.19076 9.50504L7.90547 8.91182L8.14371 8.3186Z" fill="#888888"/>
</svg>
