<svg width="54" height="40" viewBox="0 0 54 40" fill="none" xmlns="http://www.w3.org/2000/svg">
<path d="M0 36.0114C0 38.2171 1.58244 40 3.53585 40H50.4641C52.4176 40 54 38.2114 54 36.0114V3.98857C54 1.78286 52.4176 0 50.4641 0H3.53585C1.58244 0 0 1.78857 0 3.98857V36.0114Z" fill="#FFDCD3"/>
<path d="M0 3.69231C0 1.6531 1.6531 0 3.69231 0H4.92308V40H3.69231C1.6531 40 0 38.3469 0 36.3077V3.69231Z" fill="#FF947E"/>
<path d="M5 10.5C5 10.2239 5.22386 10 5.5 10H8.5C8.77614 10 9 10.2239 9 10.5V31.5C9 31.7761 8.77614 32 8.5 32H5.5C5.22386 32 5 31.7761 5 31.5V10.5Z" fill="#FFF6F3"/>
<path d="M13 6.5C13 6.22386 13.2239 6 13.5 6H48.5C48.7761 6 49 6.22386 49 6.5V7.5C49 7.77614 48.7761 8 48.5 8H13.5C13.2239 8 13 7.77614 13 7.5V6.5Z" fill="#A91A17"/>
<path d="M13 34.5C13 34.2239 13.2755 34 13.6154 34H32.3846C32.7245 34 33 34.2239 33 34.5V40C32.6923 40 32.7245 40 32.3846 40H13.6154C13.2755 40 13.1538 40 13 40V34.5Z" fill="white"/>
<path d="M41 15.4C41 15.1791 41.1791 15 41.4 15H42.6C42.8209 15 43 15.1791 43 15.4V16.6C43 16.8209 42.8209 17 42.6 17H41.4C41.1791 17 41 16.8209 41 16.6V15.4Z" fill="#002DD1"/>
<path d="M44 15.4C44 15.1791 44.1791 15 44.4 15H47.6C47.8209 15 48 15.1791 48 15.4V16.6C48 16.8209 47.8209 17 47.6 17H44.4C44.1791 17 44 16.8209 44 16.6V15.4Z" fill="#A91A17"/>
<path d="M41 18.4C41 18.1791 41.1791 18 41.4 18H47.6C47.8209 18 48 18.1791 48 18.4V22.6C48 22.8209 47.8209 23 47.6 23H41.4C41.1791 23 41 22.8209 41 22.6V18.4Z" fill="#E6B000"/>
<path d="M15 36.25C15 36.1119 15.1119 36 15.25 36H20.9722C21.1103 36 21.2222 36.1119 21.2222 36.25V37.75C21.2222 37.8881 21.1103 38 20.9722 38H15.25C15.1119 38 15 37.8881 15 37.75V36.25Z" fill="#334155"/>
<path d="M25.6654 36.25C25.6654 36.1119 25.7774 36 25.9154 36H27.1932C27.3313 36 27.4432 36.1119 27.4432 36.25V37.75C27.4432 37.8881 27.3313 38 27.1932 38H25.9154C25.7774 38 25.6654 37.8881 25.6654 37.75V36.25Z" fill="#334155"/>
<path d="M22.1103 36.25C22.1103 36.1119 22.2222 36 22.3603 36H22.7492C22.8873 36 22.9992 36.1119 22.9992 36.25V37.75C22.9992 37.8881 22.8873 38 22.7492 38H22.3603C22.2222 38 22.1103 37.8881 22.1103 37.75V36.25Z" fill="#334155"/>
<path d="M23.8897 36.25C23.8897 36.1119 24.0016 36 24.1397 36H24.5286C24.6667 36 24.7786 36.1119 24.7786 36.25V37.75C24.7786 37.8881 24.6667 38 24.5286 38H24.1397C24.0016 38 23.8897 37.8881 23.8897 37.75V36.25Z" fill="#334155"/>
<path d="M28.3346 36.25C28.3346 36.1119 28.4465 36 28.5846 36H30.7512C30.8893 36 31.0012 36.1119 31.0012 36.25V37.75C31.0012 37.8881 30.8893 38 30.7512 38H28.5846C28.4465 38 28.3346 37.8881 28.3346 37.75V36.25Z" fill="#334155"/>
<path d="M41 30.25C41 30.1119 41.1119 30 41.25 30H47.75C47.8881 30 48 30.1119 48 30.25V31.75C48 31.8881 47.8881 32 47.75 32H41.25C41.1119 32 41 31.8881 41 31.75V30.25Z" fill="#B0B0B0"/>
<path d="M25.3 11.0769H13.7C13.3134 11.0769 13 11.3899 13 11.776V23.3613C13 23.7475 13.3134 24.0605 13.7 24.0605H25.3C25.6866 24.0605 26 23.7475 26 23.3613V11.776C26 11.3899 25.6866 11.0769 25.3 11.0769Z" fill="#F8FAFC"/>
<path d="M22.9844 13.8018C23.5401 15.586 23.5068 19.527 23.5068 23.1409H14.9211C14.9211 23.1409 14.9011 15.6711 14.9211 15.2916C15.0111 14.173 15.4811 13.394 16.3111 12.8746C16.8711 12.5251 17.5211 12.2454 18.3911 12.1056C18.8311 12.0357 19.2711 12.1056 19.7011 12.3952C20.1411 12.6849 20.2311 12.8447 20.7211 12.7448C20.9611 12.6949 21.1811 12.7048 21.3111 12.7148C21.6311 12.7448 21.9511 12.8347 22.2311 12.9845C22.5511 13.1543 22.7811 13.4439 22.9511 13.7335L22.9844 13.8018Z" fill="#594F45"/>
<path d="M20.4511 19.9756H18.2211V21.1941L17.1011 21.8033C17.1011 21.8033 18.1611 21.8632 19.2511 21.8632C20.3411 21.8632 21.5611 21.8033 21.5611 21.8033L20.4411 21.1941V19.9756H20.4511Z" fill="#DA9F8E"/>
<path d="M20.4511 19.9756H18.2211L18.2211 20.5849C18.3411 20.6947 18.8911 20.8845 19.3411 20.8845C19.7911 20.8845 20.3711 20.6548 20.4611 20.5849V19.9756H20.4511Z" fill="#964436"/>
<path d="M16.5511 16.1305C18.3911 15.8908 19.7411 15.2916 20.1911 14.5126C20.3411 14.7822 20.9011 15.6611 22.0911 15.6811C22.1111 16.2903 22.1411 17.339 22.0411 17.9382C21.9411 18.5474 21.7111 19.1467 21.2811 19.646C21.0811 19.8758 20.8511 20.0755 20.5911 20.2353C19.8611 20.6947 18.8611 20.6947 18.1311 20.2553C17.8411 20.0855 17.5911 19.8857 17.3911 19.646C16.9611 19.1567 16.7211 18.5474 16.6311 17.9382C16.5311 17.329 16.5311 16.7397 16.5611 16.1205L16.5511 16.1305Z" fill="#DA9F8E"/>
<path d="M14.582 23.5007C15.7374 22.1653 17.8086 21.1105 18.2116 21.0523C18.2116 21.1689 18.451 21.3963 18.7547 21.513C18.8026 21.513 18.9258 21.5997 19.0485 21.6861L19.3386 21.8571C19.7344 21.8571 20.2029 21.373 20.454 21.1105C21.1092 21.1105 23.4895 23.1091 23.737 23.3418C23.935 23.5279 24.2002 23.9205 24.1329 24.0618C20.8563 24.0854 14.3281 24.0863 14.3281 24.0287C14.3281 23.7835 14.4868 23.6109 14.582 23.5007Z" fill="#0F172A"/>
<path d="M18.2989 22.7146L18.1289 21.1765C18.1289 21.1765 18.1689 21.0966 18.2089 21.1266L19.3289 21.8357C19.3289 21.8357 19.3589 21.8956 19.3289 21.9256L18.3789 22.7545C18.3789 22.7545 18.2989 22.7545 18.2889 22.7245L18.2989 22.7146Z" fill="#F6F6F6"/>
<path d="M20.3871 22.7146L20.5571 21.1765C20.5571 21.1765 20.5171 21.0966 20.4771 21.1266L19.3571 21.8357C19.3571 21.8357 19.3271 21.8956 19.3571 21.9256L20.3071 22.7545C20.3071 22.7545 20.3871 22.7545 20.3971 22.7245L20.3871 22.7146Z" fill="#F6F6F6"/>
<path d="M18.2048 24.0605L17.0312 21.609C17.9474 20.9961 18.0925 21.1329 18.0925 21.1329L18.7773 24.0605L19.8828 24.0415L20.4657 21.1329C20.4657 21.1329 20.6299 21.0285 21.546 21.6414L20.4336 24.0605H18.2048Z" fill="#1E293B"/>
<path d="M4.83887 5.9543H8.38574C8.66188 5.9543 8.88574 6.17816 8.88574 6.4543V7.4543C8.88574 7.73044 8.66188 7.9543 8.38574 7.9543H4.83887V5.9543Z" fill="#A91A17"/>
</svg>
