<svg width="80" height="56" viewBox="0 0 80 56" fill="none" xmlns="http://www.w3.org/2000/svg">
<path d="M0 31.592V50.416C0 53.504 2.31523 56 5.1777 56H73.9527C76.8152 56 79.1304 53.496 79.1304 50.416V5.584C79.1304 2.496 76.8152 0 73.9527 0H5.1777C2.31523 0 0 2.504 0 5.584V31.592Z" fill="#3D3D3D"/>
<path d="M5.65234 30.8737V45.9329C5.65234 48.4033 7.38877 50.4001 9.53562 50.4001H61.1169C63.2637 50.4001 65.0002 48.3969 65.0002 45.9329V10.0673C65.0002 7.5969 63.2637 5.6001 61.1169 5.6001H9.53562C7.38877 5.6001 5.65234 7.6033 5.65234 10.0673V30.8737Z" fill="#E6EAFA"/>
<path d="M20.3125 29.347V36.406C20.3125 37.564 21.191 38.5 22.2773 38.5H48.3749C49.4611 38.5 50.3397 37.561 50.3397 36.406V19.594C50.3397 18.436 49.4611 17.5 48.3749 17.5H22.2773C21.191 17.5 20.3125 18.439 20.3125 19.594V29.347Z" fill="#888888"/>
<path d="M13.2471 19.25V13.25C13.2471 12.6977 13.6948 12.25 14.2471 12.25H20.3123" stroke="#002DD1" stroke-linecap="round" stroke-linejoin="round"/>
<path d="M57.4053 19.25V13.25C57.4053 12.6977 56.9576 12.25 56.4053 12.25H50.3401" stroke="#002DD1" stroke-linecap="round" stroke-linejoin="round"/>
<path d="M13.2471 36.75V42.75C13.2471 43.3023 13.6948 43.75 14.2471 43.75H20.3123" stroke="#002DD1" stroke-linecap="round" stroke-linejoin="round"/>
<path d="M57.4053 36.75V42.75C57.4053 43.3023 56.9576 43.75 56.4053 43.75H50.3401" stroke="#002DD1" stroke-linecap="round" stroke-linejoin="round"/>
<ellipse cx="72.0653" cy="27.9998" rx="4.23913" ry="4.2" fill="white"/>
</svg>
