<svg width="65" height="46" viewBox="0 0 65 46" fill="none" xmlns="http://www.w3.org/2000/svg">
<g clip-path="url(#clip0_1815_4672)">
<path d="M0.5 41.4131V25.9506V4.58686C0.5 2.29681 2.21578 0.5 4.25612 0.5H60.7439C62.7847 0.5 64.5 2.29072 64.5 4.58686V41.4131C64.5 43.7032 62.7842 45.5 60.7439 45.5H4.25612C2.21534 45.5 0.5 43.7093 0.5 41.4131Z" fill="white" stroke="#E7E7E7"/>
<path d="M0.0236816 6.25684H40.6516C41.7562 6.25684 42.6516 7.15227 42.6516 8.25684V26.1562C42.6516 27.2607 41.7562 28.1562 40.6516 28.1562H0.0236816V6.25684Z" fill="#FA1320"/>
<path d="M27.1448 10.3525V20.4251H25.05V10.3525H27.1448ZM31.1946 14.6555V16.2743H26.5722V14.6555H31.1946ZM31.6833 10.3525V11.9783H26.5722V10.3525H31.6833Z" fill="white"/>
<path d="M18.8707 20.4251H16.6572L16.6712 18.8063H18.8707C19.4199 18.8063 19.8831 18.6841 20.2602 18.4396C20.6372 18.1906 20.9212 17.8286 21.112 17.3535C21.3075 16.8785 21.4053 16.3043 21.4053 15.6309V15.1398C21.4053 14.6232 21.3494 14.169 21.2377 13.7769C21.1306 13.3849 20.97 13.0552 20.7559 12.7877C20.5418 12.5202 20.2788 12.3195 19.9669 12.1858C19.655 12.0474 19.2966 11.9783 18.8916 11.9783H16.6153V10.3525H18.8916C19.5712 10.3525 20.1927 10.4678 20.7559 10.6984C21.3238 10.9244 21.8149 11.2496 22.2292 11.6739C22.6435 12.0982 22.9624 12.6055 23.1858 13.1958C23.4139 13.7815 23.5279 14.4341 23.5279 15.1536V15.6309C23.5279 16.3458 23.4139 16.9984 23.1858 17.5887C22.9624 18.1791 22.6435 18.6864 22.2292 19.1107C21.8196 19.5304 21.3285 19.8555 20.7559 20.0861C20.188 20.3121 19.5596 20.4251 18.8707 20.4251ZM17.8442 10.3525V20.4251H15.7495V10.3525H17.8442Z" fill="white"/>
<path d="M10.4917 16.8347H7.90127V15.2159H10.4917C10.8921 15.2159 11.2179 15.1513 11.4693 15.0222C11.7207 14.8884 11.9045 14.7039 12.0209 14.4687C12.1373 14.2335 12.1955 13.9683 12.1955 13.6732C12.1955 13.3734 12.1373 13.0944 12.0209 12.8361C11.9045 12.5778 11.7207 12.3703 11.4693 12.2135C11.2179 12.0567 10.8921 11.9783 10.4917 11.9783H8.62744V20.4251H6.53271V10.3525H10.4917C11.2877 10.3525 11.9697 10.4955 12.5376 10.7815C13.1102 11.0628 13.5477 11.4525 13.8503 11.9506C14.1529 12.4487 14.3041 13.0183 14.3041 13.6593C14.3041 14.3096 14.1529 14.8723 13.8503 15.3473C13.5477 15.8223 13.1102 16.189 12.5376 16.4473C11.9697 16.7055 11.2877 16.8347 10.4917 16.8347Z" fill="white"/>
<rect x="41.7856" y="35.2666" width="18.5714" height="3.06667" rx="0.25" fill="#E7E7E7"/>
</g>
<defs>
<clipPath id="clip0_1815_4672">
<rect width="65" height="46" fill="white"/>
</clipPath>
</defs>
</svg>
