<svg width="22" height="22" viewBox="0 0 22 22" fill="none" xmlns="http://www.w3.org/2000/svg">
<path d="M20.2934 12.85L20.2942 12.85C20.407 12.8498 20.5187 12.872 20.6228 12.9152C20.7269 12.9584 20.8215 13.0218 20.901 13.1018C20.9805 13.1818 21.0434 13.2767 21.086 13.3811C21.1286 13.4853 21.1501 13.5969 21.1494 13.7095M20.2934 12.85L20.9994 13.709M20.2934 12.85L17.2615 12.871L17.2604 12.871C17.0339 12.8742 16.8178 12.9672 16.6598 13.1295C16.502 13.2917 16.4149 13.5097 16.4176 13.7359M20.2934 12.85L19.4495 16.3077M21.1494 13.7095C21.1494 13.7096 21.1494 13.7098 21.1494 13.71L20.9994 13.709M21.1494 13.7095V13.709H20.9994M21.1494 13.7095V16.9124M20.9994 13.709V16.9129M21.1494 16.9124C21.1494 16.9122 21.1494 16.912 21.1494 16.9118L20.9994 16.9129M21.1494 16.9124V16.9129H20.9994M21.1494 16.9124C21.1501 17.0244 21.1288 17.1355 21.0866 17.2393L20.9477 17.1829L21.0866 17.2393C21.0444 17.3433 20.982 17.438 20.9032 17.5179C20.8243 17.5977 20.7305 17.6613 20.627 17.7049C20.5236 17.7484 20.4125 17.7712 20.3003 17.7718L20.2986 17.7718C20.1863 17.7712 20.0753 17.7484 19.9719 17.7049C19.8684 17.6613 19.7746 17.5977 19.6957 17.5179C19.6169 17.438 19.5545 17.3433 19.5123 17.2393L19.6512 17.1829L20.9994 16.9129M19.4495 16.3077V16.9124V16.9129V16.3077ZM19.4495 16.3077C17.5511 19.1676 14.2781 21.1497 10.7567 21.1497C6.2798 21.1497 2.53126 18.3858 0.907902 14.1385C0.826564 13.927 0.831743 13.6921 0.92233 13.4844C1.01297 13.2766 1.18181 13.1129 1.3923 13.0287L1.3933 13.0283C1.83198 12.8565 2.32467 13.0777 2.49403 13.5192L2.49409 13.5194C3.87377 17.1283 7.00925 19.4328 10.7567 19.4328C13.9817 19.4328 17.0093 17.3948 18.4975 14.5806L17.2736 14.5889L17.2727 14.5889C17.1605 14.5891 17.0493 14.5671 16.9456 14.5243C16.8418 14.4814 16.7475 14.4186 16.6681 14.3392C16.5887 14.2599 16.5257 14.1657 16.4827 14.062C16.4398 13.9586 16.4177 13.8478 16.4176 13.7359M16.4176 13.7359C16.4176 13.7362 16.4176 13.7366 16.4176 13.7369L16.5676 13.735H16.4176C16.4176 13.7353 16.4176 13.7356 16.4176 13.7359ZM2.54998 5.69234C4.44833 2.83252 7.72129 0.850336 11.2427 0.850336H11.2447C15.7195 0.850336 19.469 3.61416 21.0924 7.86121C21.1739 8.07276 21.1687 8.30789 21.0781 8.51568C20.9875 8.72347 20.8186 8.88718 20.6081 8.97137L20.6069 8.97185C20.5024 9.01261 20.3908 9.0322 20.2786 9.02948C20.1665 9.02676 20.056 9.00178 19.9535 8.95599C19.8511 8.9102 19.7588 8.84452 19.682 8.76276C19.6053 8.68112 19.5455 8.58508 19.5062 8.4802C18.1264 4.87161 14.991 2.56729 11.2437 2.56729C8.01871 2.56729 4.99114 4.60524 3.50292 7.41946L4.72689 7.41114L4.72769 7.41114C4.83994 7.41098 4.95112 7.43295 5.05487 7.4758C5.15862 7.51864 5.2529 7.58152 5.33233 7.66083C5.41176 7.74015 5.47477 7.83435 5.51776 7.93803C5.56063 8.04143 5.58276 8.15223 5.58288 8.26415M2.54998 5.69234L0.850022 8.29005C0.85002 8.29024 0.850019 8.29042 0.850018 8.29061M2.54998 5.69234V5.08721C2.54998 4.61405 2.17049 4.22823 1.7 4.22823C1.22837 4.22823 0.850018 4.61419 0.850018 5.08721V8.29061M2.54998 5.69234L0.850018 8.29061M5.58288 8.26415C5.58554 8.49036 5.49843 8.70842 5.34062 8.87054C5.18259 9.0329 4.96657 9.12589 4.74002 9.12908L4.73894 9.1291L1.70604 9.15009L1.70521 9.1501C1.59245 9.15026 1.48078 9.12809 1.37663 9.08486C1.27248 9.04164 1.17793 8.97822 1.09842 8.89826C1.01891 8.8183 0.956026 8.72339 0.913392 8.619C0.870829 8.51478 0.849292 8.40318 0.850018 8.29061M5.58288 8.26415C5.58288 8.26383 5.58288 8.26351 5.58287 8.26319L5.43288 8.26512H5.58288C5.58288 8.2648 5.58288 8.26447 5.58288 8.26415Z" fill="#002DD1" stroke="#002DD1" stroke-width="0.3"/>
</svg>
