<svg width="55" height="40" viewBox="0 0 55 40" fill="none" xmlns="http://www.w3.org/2000/svg">
<path d="M0.150391 22.5657V36.0088C0.150391 38.2137 1.73253 40 3.68548 40H50.6153C52.5683 40 54.1504 38.2137 54.1504 36.0088V3.99122C54.1504 1.78628 52.5683 0 50.6153 0H3.68548C1.73253 0 0.150391 1.78628 0.150391 3.99122V22.5657Z" fill="#6EBA87"/>
<path d="M3.0752 22.3902V33.371C3.0752 35.1721 4.47275 36.6312 6.19785 36.6312H47.6525C49.3776 36.6312 50.7752 35.1721 50.7752 33.371V7.21772C50.7752 5.41663 49.3776 3.95752 47.6525 3.95752H6.19785C4.47275 3.95752 3.0752 5.41663 3.0752 7.21772V22.3902Z" fill="#E0F1C9"/>
<path d="M8.25 12.3333C8.25 12.1492 8.4011 12 8.5875 12H29.5125C29.6989 12 29.85 12.1492 29.85 12.3333V14.3333C29.85 14.5174 29.6989 14.6667 29.5125 14.6667H8.5875C8.4011 14.6667 8.25 14.5174 8.25 14.3333V12.3333Z" fill="#87938B"/>
<path d="M8.25 25.6668C8.25 25.4827 8.4011 25.3335 8.5875 25.3335H29.5125C29.6989 25.3335 29.85 25.4827 29.85 25.6668V27.6668C29.85 27.8509 29.6989 28.0002 29.5125 28.0002H8.5875C8.4011 28.0002 8.25 27.8509 8.25 27.6668V25.6668Z" fill="#87938B"/>
<path d="M15 18.9998C15 18.8157 15.1511 18.6665 15.3375 18.6665H41.6625C41.8489 18.6665 42 18.8157 42 18.9998V20.9998C42 21.1839 41.8489 21.3332 41.6625 21.3332H15.3375C15.1511 21.3332 15 21.1839 15 20.9998V18.9998Z" fill="#87938B"/>
</svg>
