<svg width="55" height="41" viewBox="0 0 55 41" fill="none" xmlns="http://www.w3.org/2000/svg">
<path d="M0.150391 22.8478V36.4589C0.150391 38.6914 1.73253 40.5 3.68548 40.5H50.6153C52.5683 40.5 54.1504 38.6914 54.1504 36.4589V4.04111C54.1504 1.80861 52.5683 0 50.6153 0H3.68548C1.73253 0 0.150391 1.80861 0.150391 4.04111V22.8478Z" fill="#6EBA87"/>
<path d="M3.4502 22.67V33.7881C3.4502 35.6117 4.84775 37.0891 6.57286 37.0891H48.0275C49.7526 37.0891 51.1502 35.6117 51.1502 33.7881V7.30791C51.1502 5.48431 49.7526 4.00696 48.0275 4.00696H6.57286C4.84775 4.00696 3.4502 5.48431 3.4502 7.30791V22.67Z" fill="#E0F1C9"/>
<path d="M10.6502 28.9892C9.15903 28.9892 7.9502 27.7804 7.9502 26.2892L7.9502 14.2103C7.9502 12.7191 9.15903 11.5103 10.6502 11.5103H22.1252C23.6164 11.5103 24.8252 12.7191 24.8252 14.2103V26.2892C24.8252 27.7804 23.6164 28.9892 22.1252 28.9892H10.6502Z" fill="#F3F1F1"/>
<path fill-rule="evenodd" clip-rule="evenodd" d="M8.0852 14.2103V26.2892C8.0852 27.7058 9.23359 28.8542 10.6502 28.8542H22.1252C23.5418 28.8542 24.6902 27.7058 24.6902 26.2892V14.2103C24.6902 12.7937 23.5418 11.6453 22.1252 11.6453H10.6502C9.23359 11.6453 8.0852 12.7937 8.0852 14.2103ZM7.9502 26.2892C7.9502 27.7804 9.15903 28.9892 10.6502 28.9892H22.1252C23.6164 28.9892 24.8252 27.7804 24.8252 26.2892V14.2103C24.8252 12.7191 23.6164 11.5103 22.1252 11.5103H10.6502C9.15903 11.5103 7.9502 12.7191 7.9502 14.2103L7.9502 26.2892Z" fill="#ACABA9" fill-opacity="0.7"/>
<path d="M31.95 28.9892C30.4588 28.9892 29.25 27.7804 29.25 26.2892V14.2103C29.25 12.7191 30.4588 11.5103 31.95 11.5103H43.425C44.9162 11.5103 46.125 12.7191 46.125 14.2103V26.2892C46.125 27.7804 44.9162 28.9892 43.425 28.9892H31.95Z" fill="#FFFFFE"/>
<path fill-rule="evenodd" clip-rule="evenodd" d="M29.385 14.2103V26.2892C29.385 27.7058 30.5334 28.8542 31.95 28.8542H43.425C44.8416 28.8542 45.99 27.7058 45.99 26.2892V14.2103C45.99 12.7937 44.8416 11.6453 43.425 11.6453H31.95C30.5334 11.6453 29.385 12.7937 29.385 14.2103ZM29.25 26.2892C29.25 27.7804 30.4588 28.9892 31.95 28.9892H43.425C44.9162 28.9892 46.125 27.7804 46.125 26.2892V14.2103C46.125 12.7191 44.9162 11.5103 43.425 11.5103H31.95C30.4588 11.5103 29.25 12.7191 29.25 14.2103V26.2892Z" fill="#ACABA9" fill-opacity="0.7"/>
<path fill-rule="evenodd" clip-rule="evenodd" d="M36.2802 20.8795C36.2802 20.3385 36.4036 19.7004 36.604 19.3169C36.8112 18.9204 36.6578 18.431 36.2613 18.2238C35.8648 18.0166 35.3754 18.1701 35.1682 18.5666C34.8086 19.2547 34.6602 20.1743 34.6602 20.8795C34.6602 21.2864 34.7456 21.7488 34.8359 22.1272C34.9284 22.5147 35.0412 22.8751 35.125 23.0986C35.2821 23.5174 35.749 23.7297 36.1678 23.5726C36.5867 23.4155 36.7989 22.9486 36.6418 22.5297C36.5842 22.3762 36.4904 22.0808 36.4116 21.751C36.3307 21.4121 36.2802 21.0956 36.2802 20.8795Z" fill="#87938B"/>
<path fill-rule="evenodd" clip-rule="evenodd" d="M40.151 19.9115C40.0157 20.1271 39.8408 20.4726 39.8408 20.8422C39.8408 21.0609 39.9146 21.251 39.9588 21.3531C40.0127 21.4774 40.0814 21.6007 40.1527 21.7132C40.2938 21.9359 40.4824 22.1763 40.6841 22.3688C41.0077 22.6778 41.5204 22.6659 41.8293 22.3424C42.1383 22.0188 42.1264 21.5061 41.8029 21.1972C41.7109 21.1094 41.6033 20.9759 41.5214 20.8465C41.5136 20.8343 41.5065 20.8227 41.4999 20.8117C41.5068 20.7994 41.5145 20.7864 41.5231 20.7728C41.5555 20.7211 41.5935 20.6705 41.6321 20.6272C41.6718 20.5825 41.7024 20.5566 41.7175 20.5457C42.0802 20.284 42.1621 19.7777 41.9004 19.4149C41.6386 19.0521 41.1323 18.9702 40.7696 19.232C40.5166 19.4145 40.3018 19.6712 40.151 19.9115ZM41.4536 20.9119C41.4537 20.9119 41.4541 20.9107 41.4546 20.9084C41.4539 20.9108 41.4536 20.9119 41.4536 20.9119Z" fill="#87938B"/>
<path fill-rule="evenodd" clip-rule="evenodd" d="M38.7606 20.8793C38.7606 19.9358 39.084 19.068 39.8005 17.9567C40.0429 17.5808 39.9346 17.0795 39.5586 16.8371C39.1826 16.5947 38.6813 16.7029 38.4389 17.0789C37.6329 18.3291 37.1406 19.505 37.1406 20.8793C37.1406 22.2012 37.5992 23.7325 38.5675 24.8493C38.8605 25.1873 39.3721 25.2238 39.7101 24.9307C40.0481 24.6377 40.0846 24.1261 39.7915 23.7881C39.1176 23.0108 38.7606 21.8753 38.7606 20.8793Z" fill="#87938B"/>
<mask id="mask0_1730_5025" style="mask-type:alpha" maskUnits="userSpaceOnUse" x="8" y="12" width="16" height="18">
<path d="M9.75 29.4001C8.92157 29.4001 8.25 28.7285 8.25 27.9001L8.25 13.6501C8.25 12.8217 8.92157 12.1501 9.75 12.1501H22.275C23.1034 12.1501 23.775 12.8217 23.775 13.6501V27.9001C23.775 28.7285 23.1034 29.4001 22.275 29.4001H9.75Z" fill="#EDEFD2"/>
</mask>
<g mask="url(#mask0_1730_5025)">
<path d="M24.1109 19.8261C24.0685 19.5456 25.6597 19.2936 25.6008 19.017C25.348 17.8255 26.8836 16.3428 26.0295 15.6005C22.0824 16.2151 15.7078 15.3365 13.4888 16.581C13.1362 16.7788 12.7922 17.0355 12.5844 17.4166C12.4104 17.7361 12.2946 18.1033 12.2629 18.4785C12.251 18.6167 12.2437 18.8781 12.3059 19.1606C12.4283 19.7163 12.2311 19.8314 11.8831 20.3383C11.5352 20.8453 11.4508 21.3522 11.5352 21.8591C11.7042 22.8729 12.0472 23.6297 12.4673 24.2714C13.0978 25.236 14.0499 25.7852 15.3982 25.8844C15.858 25.9182 25.3831 25.7567 25.8224 25.8937C26.4906 26.1021 25.528 25.7323 25.9144 24.8642C26.4734 23.6092 25.6398 25.0958 25.8218 23.7031L24.1122 19.8255L24.1109 19.8261Z" fill="#594F45"/>
<path d="M25.0232 18.5226C26.6448 19.5488 26.658 21.9259 25.0391 22.9554C24.5369 23.2742 24.0745 23.4972 23.7397 23.6401L23.6127 23.1948C23.3851 22.6159 22.9094 22.223 22.3656 22.1647L21.5697 22.1224L21.4883 19.4449L22.3656 19.341C22.9094 19.2828 23.3858 18.5742 23.6127 17.9953L23.6808 17.822C24.0163 17.9616 24.4979 18.1892 25.0239 18.522L25.0232 18.5226Z" fill="#DA9F8E"/>
<path d="M21.8353 22.1649L21.0394 22.1226L20.958 19.4451L21.8353 19.3412C21.9306 19.4484 22.4552 20.0604 22.3752 20.9449C22.3163 21.594 21.965 22.0214 21.8353 22.1649Z" fill="#964436"/>
<path d="M16.669 23.9615C16.3812 21.8781 15.6772 20.3597 14.749 19.8476C15.0666 19.6829 16.1132 19.0405 16.1377 17.6954C16.8661 17.6683 18.1 17.6419 18.8225 17.753C19.545 17.8642 20.2635 18.1215 20.851 18.6137C21.1176 18.8374 21.3525 19.1007 21.5483 19.3964C22.0935 20.2195 22.0994 21.3422 21.5734 22.1811C21.3723 22.5013 21.1288 22.7858 20.8503 23.0193C20.2628 23.5122 19.5443 23.7689 18.8218 23.8801C18.0994 23.9912 17.3968 23.9886 16.6677 23.9615H16.669Z" fill="#DA9F8E"/>
</g>
</svg>
