<svg width="54" height="41" viewBox="0 0 54 41" fill="none" xmlns="http://www.w3.org/2000/svg">
<path d="M0.201172 22.8784V36.3882C0.201172 38.6041 1.77153 40.3992 3.70994 40.3992H50.2904C52.2288 40.3992 53.7992 38.6041 53.7992 36.3882V4.21174C53.7992 1.99586 52.2288 0.200714 50.2904 0.200714H3.70994C1.77153 0.200714 0.201172 1.99586 0.201172 4.21174V22.8784Z" fill="#DCE8E4"/>
<path fill-rule="evenodd" clip-rule="evenodd" d="M0 4.21202C0 1.91123 1.63593 0 3.70976 0H50.2902C52.3641 0 54 1.91123 54 4.21202V36.3885C54 38.6893 52.3641 40.6005 50.2902 40.6005H3.70976C1.63593 40.6005 0 38.6893 0 36.3885V4.21202ZM3.70976 0.401985C1.90677 0.401985 0.401985 2.08104 0.401985 4.21202V36.3885C0.401985 38.5195 1.90677 40.1985 3.70976 40.1985H50.2902C52.0932 40.1985 53.598 38.5195 53.598 36.3885V4.21202C53.598 2.08104 52.0932 0.401985 50.2902 0.401985H3.70976Z" fill="#AFC4BD"/>
<path d="M24.3203 23.315C24.3203 23.13 24.4703 22.98 24.6553 22.98H46.7645C46.9495 22.98 47.0995 23.13 47.0995 23.315V25.3249C47.0995 25.5099 46.9495 25.6599 46.7645 25.6599H24.6553C24.4703 25.6599 24.3203 25.5099 24.3203 25.3249V23.315Z" fill="#8F969C"/>
<path d="M29.6797 28.675C29.6797 28.49 29.8297 28.3401 30.0147 28.3401H46.7641C46.9491 28.3401 47.099 28.49 47.099 28.675V30.685C47.099 30.87 46.9491 31.02 46.7641 31.02H30.0147C29.8297 31.02 29.6797 30.87 29.6797 30.685V28.675Z" fill="#8F969C"/>
<path d="M5.56055 14.9403C5.56055 11.2401 8.56013 8.24054 12.2603 8.24054H39.0593V14.9403H5.56055Z" fill="#3EB3F3"/>
<path d="M5.3291 22.2144C5.3291 20.7343 6.52893 19.5345 8.009 19.5345H15.2028C16.6829 19.5345 17.8827 20.7343 17.8827 22.2144V31.0198C17.8827 32.4999 16.6829 33.6997 15.2028 33.6997H8.009C6.52893 33.6997 5.3291 32.4999 5.3291 31.0198V22.2144Z" fill="white"/>
<path fill-rule="evenodd" clip-rule="evenodd" d="M15.2028 19.6685H8.009C6.60294 19.6685 5.4631 20.8083 5.4631 22.2144V31.0198C5.4631 32.4259 6.60294 33.5657 8.009 33.5657H15.2028C16.6089 33.5657 17.7487 32.4259 17.7487 31.0198V22.2144C17.7487 20.8084 16.6089 19.6685 15.2028 19.6685ZM8.009 19.5345C6.52893 19.5345 5.3291 20.7343 5.3291 22.2144V31.0198C5.3291 32.4999 6.52893 33.6997 8.009 33.6997H15.2028C16.6829 33.6997 17.8827 32.4999 17.8827 31.0198V22.2144C17.8827 20.7343 16.6829 19.5345 15.2028 19.5345H8.009Z" fill="#ACABA9" fill-opacity="0.7"/>
<path d="M16.2805 11.8778C16.2805 13.7627 14.795 15.2906 12.9625 15.2906C11.13 15.2906 9.64453 13.7627 9.64453 11.8778C9.64453 9.99301 11.13 8.46506 12.9625 8.46506C14.795 8.46506 16.2805 9.99301 16.2805 11.8778Z" fill="#0766E6"/>
<path fill-rule="evenodd" clip-rule="evenodd" d="M12.9625 14.6206C14.4073 14.6206 15.6105 13.4106 15.6105 11.8778C15.6105 10.3451 14.4073 9.13503 12.9625 9.13503C11.5177 9.13503 10.3145 10.3451 10.3145 11.8778C10.3145 13.4106 11.5177 14.6206 12.9625 14.6206ZM12.9625 15.2906C14.795 15.2906 16.2805 13.7627 16.2805 11.8778C16.2805 9.99301 14.795 8.46506 12.9625 8.46506C11.13 8.46506 9.64453 9.99301 9.64453 11.8778C9.64453 13.7627 11.13 15.2906 12.9625 15.2906Z" fill="#246C94"/>
<path d="M43.0791 8.24054H47.099V14.9403H43.0791V8.24054Z" fill="#3EB3F3"/>
<mask id="mask0_1730_5050" style="mask-type:alpha" maskUnits="userSpaceOnUse" x="4" y="19" width="15" height="15">
<path d="M4.2207 21.2645C4.2207 20.4361 4.89228 19.7645 5.7207 19.7645H17.4602C18.2886 19.7645 18.9602 20.4361 18.9602 21.2645V31.53C18.9602 32.3584 18.2886 33.03 17.4602 33.03H5.7207C4.89228 33.03 4.2207 32.3584 4.2207 31.53V21.2645Z" fill="#EDEFD2"/>
</mask>
<g mask="url(#mask0_1730_5050)">
<path d="M12.402 33.3165C12.6417 33.2804 12.8571 34.6399 13.0934 34.5896C14.1116 34.3737 15.3784 35.6858 16.0127 34.9559C15.4875 31.5833 16.2383 26.1365 15.1749 24.2404C15.0059 23.9391 14.7865 23.6452 14.4609 23.4677C14.1879 23.319 13.8741 23.22 13.5536 23.1929C13.4354 23.1827 13.2121 23.1765 12.9708 23.2297C12.4959 23.3342 12.3975 23.1657 11.9644 22.8684C11.5313 22.5711 11.0981 22.499 10.665 22.5711C9.79872 22.7155 9.15207 23.0086 8.60371 23.3676C7.77949 23.9063 7.31028 24.7198 7.22548 25.8719C7.19665 26.2648 7.33459 34.4036 7.21757 34.779C7.03949 35.35 7.3555 34.5274 8.09719 34.8576C9.16959 35.3353 7.89933 34.623 9.08932 34.7784L12.4026 33.3177L12.402 33.3165Z" fill="#594F45"/>
<path d="M13.5156 34.0961C12.6388 35.4817 10.6076 35.493 9.728 34.1097C9.45552 33.6806 9.26501 33.2855 9.1429 32.9994L9.52336 32.8909C10.018 32.6964 10.3538 32.2899 10.4035 31.8253L10.4397 31.1452L12.7275 31.0757L12.8163 31.8253C12.866 32.2899 13.4715 32.697 13.9661 32.8909L14.1143 32.9491C13.995 33.2357 13.8005 33.6473 13.5162 34.0967L13.5156 34.0961Z" fill="#DA9F8E"/>
<path d="M10.4037 31.3728L10.4398 30.6927L12.7277 30.6232L12.8164 31.3728C12.7248 31.4542 12.2019 31.9025 11.4461 31.8341C10.8915 31.7838 10.5263 31.4836 10.4037 31.3728Z" fill="#964436"/>
<path d="M8.86879 26.9582C10.649 26.7123 11.9464 26.1108 12.3839 25.3176C12.5247 25.589 13.0736 26.4833 14.2229 26.5042C14.246 27.1266 14.2687 28.1809 14.1737 28.7983C14.0787 29.4156 13.8588 30.0295 13.4382 30.5315C13.2471 30.7593 13.0221 30.96 12.7694 31.1273C12.0662 31.5932 11.1069 31.5982 10.3901 31.1488C10.1164 30.977 9.87335 30.7689 9.6738 30.5309C9.25264 30.0289 9.0333 29.415 8.93833 28.7977C8.84336 28.1804 8.84562 27.58 8.86879 26.957V26.9582Z" fill="#DA9F8E"/>
</g>
</svg>
