<svg width="55" height="41" viewBox="0 0 55 41" fill="none" xmlns="http://www.w3.org/2000/svg">
<path d="M0.351562 22.69V35.9999C0.351562 38.183 1.92192 39.9516 3.86033 39.9516H50.4408C52.3792 39.9516 53.9496 38.183 53.9496 35.9999V4.29936C53.9496 2.11625 52.3792 0.347656 50.4408 0.347656H3.86033C1.92192 0.347656 0.351562 2.11625 0.351562 4.29936V22.69Z" fill="#DCE8E4"/>
<path fill-rule="evenodd" clip-rule="evenodd" d="M0.150391 4.29962C0.150391 2.03287 1.78632 0.149902 3.86015 0.149902H50.4406C52.5145 0.149902 54.1504 2.03287 54.1504 4.29962V36.0002C54.1504 38.2669 52.5145 40.1499 50.4406 40.1499H3.86015C1.78632 40.1499 0.150391 38.2669 0.150391 36.0002V4.29962ZM3.86015 0.545942C2.05716 0.545942 0.552376 2.20017 0.552376 4.29962V36.0002C0.552376 38.0996 2.05716 39.7539 3.86015 39.7539H50.4406C52.2436 39.7539 53.7484 38.0996 53.7484 36.0002V4.29962C53.7484 2.20017 52.2436 0.545942 50.4406 0.545942H3.86015Z" fill="#AFC3BD"/>
<path d="M23.1309 16.5195C23.1309 16.3372 23.2808 16.1895 23.4658 16.1895H34.8554C35.0404 16.1895 35.1904 16.3372 35.1904 16.5195V18.4997C35.1904 18.682 35.0404 18.8297 34.8554 18.8297H23.4658C23.2808 18.8297 23.1309 18.682 23.1309 18.4997V16.5195Z" fill="#8F969C"/>
<path d="M7.05078 28.4008C7.05078 28.2186 7.20076 28.0708 7.38577 28.0708H46.9143C47.0993 28.0708 47.2493 28.2186 47.2493 28.4008V30.381C47.2493 30.5633 47.0993 30.7111 46.9143 30.7111H7.38577C7.20076 30.7111 7.05078 30.5633 7.05078 30.381V28.4008Z" fill="#8F969C"/>
<path d="M6.81934 12.795C6.81934 11.3369 8.01917 10.1548 9.49924 10.1548H16.693C18.1731 10.1548 19.3729 11.3369 19.3729 12.795V20.15C19.3729 21.6082 18.1731 22.7903 16.693 22.7903H9.49924C8.01917 22.7903 6.81934 21.6082 6.81934 20.15V12.795Z" fill="#F3F2F2"/>
<path fill-rule="evenodd" clip-rule="evenodd" d="M16.693 10.2868H9.49924C8.09317 10.2868 6.95333 11.4098 6.95333 12.795V20.15C6.95333 21.5353 8.09317 22.6583 9.49924 22.6583H16.693C18.0991 22.6583 19.2389 21.5353 19.2389 20.15V12.795C19.2389 11.4098 18.0991 10.2868 16.693 10.2868ZM9.49924 10.1548C8.01917 10.1548 6.81934 11.3369 6.81934 12.795V20.15C6.81934 21.6082 8.01917 22.7903 9.49924 22.7903H16.693C18.1731 22.7903 19.3729 21.6082 19.3729 20.15V12.795C19.3729 11.3369 18.1731 10.1548 16.693 10.1548H9.49924Z" fill="#ACABA9" fill-opacity="0.7"/>
<path d="M39.21 14.0774C39.21 13.7857 39.4499 13.5493 39.7459 13.5493H41.3539C41.6499 13.5493 41.8899 13.7857 41.8899 14.0774V15.6615C41.8899 15.9532 41.6499 16.1896 41.3539 16.1896H39.7459C39.4499 16.1896 39.21 15.9532 39.21 15.6615V14.0774Z" fill="#4E4E4E"/>
<path d="M44.5693 14.0774C44.5693 13.7857 44.8093 13.5493 45.1053 13.5493H46.7133C47.0093 13.5493 47.2492 13.7857 47.2492 14.0774V15.6615C47.2492 15.9532 47.0093 16.1896 46.7133 16.1896H45.1053C44.8093 16.1896 44.5693 15.9532 44.5693 15.6615V14.0774Z" fill="#4E4E4E"/>
<path d="M41.8896 18.0373C41.8896 17.7457 42.1296 17.5093 42.4256 17.5093H46.7135C47.0095 17.5093 47.2494 17.7457 47.2494 18.0373V19.6215C47.2494 19.9131 47.0095 20.1495 46.7135 20.1495H42.4256C42.1296 20.1495 41.8896 19.9131 41.8896 19.6215V18.0373Z" fill="#4E4E4E"/>
</svg>
