<svg width="20" height="20" viewBox="0 0 20 20" fill="none" xmlns="http://www.w3.org/2000/svg">
<path d="M18.596 19.3285H17.1155C16.6183 19.3285 16.1927 19.1515 15.8387 18.7975C15.4847 18.4435 15.3077 18.0179 15.3077 17.5207L15.3077 2.13624C15.3077 1.63907 15.4847 1.21349 15.8387 0.859491C16.1927 0.505491 16.6183 0.328491 17.1155 0.328491H18.596C18.8522 0.328491 19.0668 0.415157 19.24 0.588491C19.4133 0.761658 19.5 0.976324 19.5 1.23249V18.4245C19.5 18.6807 19.4133 18.8953 19.24 19.0685C19.0668 19.2418 18.8522 19.3285 18.596 19.3285ZM18 17.8285V1.82849H17.1155C17.0257 1.82849 16.9519 1.85732 16.8943 1.91499C16.8366 1.97266 16.8078 2.04641 16.8078 2.13624V17.5207C16.8078 17.6106 16.8366 17.6843 16.8943 17.742C16.9519 17.7997 17.0257 17.8285 17.1155 17.8285H18ZM12.8655 16.415H2.30775C1.80258 16.415 1.375 16.24 1.025 15.89C0.675 15.54 0.5 15.1124 0.5 14.6072L0.5 5.04974C0.5 4.54457 0.675 4.11699 1.025 3.76699C1.375 3.41699 1.80258 3.24199 2.30775 3.24199H12.8655C13.078 3.24199 13.2561 3.31391 13.3997 3.45774C13.5436 3.60157 13.6155 3.77974 13.6155 3.99224C13.6155 4.20491 13.5436 4.38299 13.3997 4.52649C13.2561 4.67016 13.078 4.74199 12.8655 4.74199H2.30775C2.21792 4.74199 2.14417 4.77082 2.0865 4.82849C2.02883 4.88616 2 4.95991 2 5.04974L2 14.6072C2 14.6971 2.02883 14.7708 2.0865 14.8285C2.14417 14.8862 2.21792 14.915 2.30775 14.915H12.8655C13.078 14.915 13.2561 14.9869 13.3997 15.1307C13.5436 15.2746 13.6155 15.4527 13.6155 15.6652C13.6155 15.8779 13.5436 16.0561 13.3997 16.1997C13.2561 16.3432 13.078 16.415 12.8655 16.415ZM8.056 11.0207C7.59567 11.0207 7.1345 11.0607 6.6725 11.1407C6.2105 11.2206 5.77925 11.3767 5.37875 11.6092C5.10558 11.7752 4.87417 11.9827 4.6845 12.2315C4.49483 12.4803 4.4 12.7632 4.4 13.08C4.4 13.261 4.46758 13.4134 4.60275 13.5372C4.73775 13.6609 4.90283 13.7227 5.098 13.7227H11.004C11.2038 13.7227 11.3708 13.6579 11.5048 13.5282C11.6388 13.3986 11.7058 13.2346 11.7058 13.0362C11.7058 12.7311 11.6109 12.4582 11.4213 12.2177C11.2316 11.9774 11.0002 11.7746 10.727 11.6092C10.3278 11.3767 9.898 11.2206 9.4375 11.1407C8.977 11.0607 8.5165 11.0207 8.056 11.0207ZM9.77875 7.88649C9.77875 7.41316 9.61025 7.00791 9.27325 6.67074C8.93625 6.33357 8.53117 6.16499 8.058 6.16499C7.58467 6.16499 7.17942 6.33349 6.84225 6.67049C6.50508 7.00749 6.3365 7.41266 6.3365 7.88599C6.3365 8.35916 6.505 8.76432 6.842 9.10149C7.179 9.43866 7.58417 9.60724 8.0575 9.60724C8.53067 9.60724 8.93583 9.43874 9.273 9.10174C9.61017 8.76474 9.77875 8.35966 9.77875 7.88649Z" fill="#2A5595"/>
</svg>
