<svg width="342" height="240" viewBox="0 0 342 240" fill="none" xmlns="http://www.w3.org/2000/svg">
<path d="M229.248 17.653V187.861C229.248 197.604 221.472 205.514 211.893 205.514H129.74C120.161 205.514 112.385 197.604 112.385 187.861L112.385 17.653C112.385 7.90939 120.161 0 129.74 0L211.896 0C221.475 0 229.251 7.90939 229.251 17.653H229.248Z" fill="#202020"/>
<path d="M129.74 1.67346H211.896C220.567 1.67346 227.606 8.83308 227.606 17.6529V187.86C227.606 196.68 220.567 203.84 211.896 203.84H129.74C121.069 203.84 114.03 196.68 114.03 187.86V17.6529C114.03 8.83308 121.069 1.67346 129.74 1.67346Z" fill="#333333"/>
<path d="M229.063 47.1915V27.7778C230.153 27.7778 231.038 28.6782 231.038 29.7861V45.1832C231.038 46.2911 230.153 47.1915 229.063 47.1915Z" fill="#202020"/>
<path d="M112.597 67.4392V48.0255C111.507 48.0255 110.622 48.9259 110.622 50.0338V65.4309C110.622 66.5388 111.507 67.4392 112.597 67.4392Z" fill="#202020"/>
<path d="M112.597 87.6871V68.2734C111.507 68.2734 110.622 69.1738 110.622 70.2817V85.6788C110.622 86.7867 111.507 87.6871 112.597 87.6871Z" fill="#202020"/>
<path d="M113.38 40.4951V27.3342C112.282 27.3342 111.39 27.9446 111.39 28.6956V39.1337C111.39 39.8847 112.282 40.4951 113.38 40.4951Z" fill="#202020"/>
<rect x="118.759" y="18.1355" width="105.753" height="166.839" rx="2" fill="#FFF9E6"/>
<path d="M176.04 45.0647L198.19 45.0647C201.824 45.0647 204.761 47.8103 204.761 51.2048V132.763C204.761 136.158 201.815 138.904 198.19 138.904H145.435C141.801 138.904 138.864 136.158 138.864 132.763V51.2048C138.864 47.8103 141.811 45.0647 145.435 45.0647H176.04Z" fill="#6EBA87"/>
<path d="M175.194 51.7675H192.915C195.822 51.7675 198.172 54.1208 198.172 57.0304V126.938C198.172 129.847 195.814 132.201 192.915 132.201H150.711C147.804 132.201 145.454 129.847 145.454 126.938V57.0304C145.454 54.1208 147.811 51.7675 150.711 51.7675H175.194Z" fill="#E0F1C9"/>
<path d="M173.503 98.6869H182.364C183.817 98.6869 184.992 99.4713 184.992 100.441V123.744C184.992 124.714 183.814 125.498 182.364 125.498H161.262C159.808 125.498 158.633 124.714 158.633 123.744V100.441C158.633 99.4713 159.812 98.6869 161.262 98.6869H173.503Z" fill="white"/>
<path d="M174.78 108.245C174.78 108.031 174.666 107.825 174.483 107.745C174.087 107.566 172.737 107.065 171.769 107.065C170.984 107.065 169.848 107.253 169.002 107.772C168.781 107.906 168.689 108.237 168.811 108.496C168.926 108.755 169.208 108.862 169.429 108.719C170.008 108.362 170.923 108.129 171.769 108.129C172.463 108.129 173.606 108.496 174.155 108.737C174.392 108.844 174.659 108.701 174.742 108.424C174.765 108.362 174.773 108.299 174.773 108.237L174.78 108.245Z" fill="#898989"/>
<path d="M173.416 116.583C173.416 116.449 173.378 116.315 173.294 116.217C172.936 115.779 172.196 115.126 171.724 115.126C171.167 115.126 170.435 115.716 170.092 116.27C169.947 116.512 169.993 116.851 170.199 117.021C170.405 117.191 170.687 117.137 170.839 116.896C171.06 116.538 171.548 116.199 171.724 116.199C171.838 116.226 172.311 116.556 172.631 116.95C172.806 117.164 173.096 117.173 173.279 116.968C173.37 116.86 173.424 116.717 173.424 116.574L173.416 116.583Z" fill="#898989"/>
<path d="M176.755 113.375C176.755 113.223 176.702 113.08 176.595 112.972C175.345 111.695 173.538 110.926 171.762 110.926C170.237 110.926 168.834 111.498 167.081 112.829C166.867 112.99 166.806 113.321 166.944 113.571C167.081 113.821 167.363 113.893 167.576 113.732C169.17 112.517 170.42 111.998 171.754 111.998C173.294 111.998 174.91 112.678 175.985 113.777C176.176 113.973 176.465 113.947 176.633 113.723C176.709 113.625 176.747 113.5 176.747 113.375H176.755Z" fill="#898989"/>
<g opacity="0.7">
<path d="M162.348 85.2813H180.807C181.944 85.2813 182.874 84.3032 182.874 83.1077V60.6438C182.874 59.4483 181.944 58.4702 180.807 58.4702H162.348C161.211 58.4702 160.281 59.4483 160.281 60.6438V83.1077C160.281 84.3032 161.211 85.2813 162.348 85.2813ZM180.807 58.5789C181.892 58.5789 182.771 59.5027 182.771 60.6438V83.1077C182.771 84.2489 181.892 85.1726 180.807 85.1726H162.348C161.262 85.1726 160.384 84.2489 160.384 83.1077V60.6438C160.384 59.5027 161.262 58.5789 162.348 58.5789H180.807Z" fill="#717171"/>
</g>
<path d="M184.992 60.6438C184.992 59.4483 183.907 58.4702 182.58 58.4702H161.045C159.718 58.4702 158.633 59.4483 158.633 60.6438V83.1077C158.633 84.3032 159.718 85.2813 161.045 85.2813H182.58C183.907 85.2813 184.992 84.3032 184.992 83.1077V60.6438Z" fill="white"/>
<mask id="mask0_1730_4906" style="mask-type:alpha" maskUnits="userSpaceOnUse" x="160" y="58" width="23" height="28">
<path d="M182.874 60.6438C182.874 59.4483 181.944 58.4702 180.807 58.4702H162.348C161.211 58.4702 160.281 59.4483 160.281 60.6438V83.1077C160.281 84.3032 161.211 85.2813 162.348 85.2813H180.807C181.944 85.2813 182.874 84.3032 182.874 83.1077V60.6438Z" fill="white"/>
</mask>
<g mask="url(#mask0_1730_4906)">
<path d="M169.797 86.5756C169.324 86.5102 168.908 89.0818 168.446 88.9946C166.453 88.5806 163.964 91.0759 162.725 89.692C163.75 83.2957 162.286 72.9548 164.369 69.359C164.696 68.7923 165.135 68.2257 165.766 67.8879C166.306 67.6046 166.914 67.4194 167.545 67.3649C167.782 67.3431 168.209 67.3322 168.682 67.4303C169.617 67.6264 169.808 67.3104 170.653 66.7438C171.498 66.1772 172.353 66.0464 173.198 66.1772C174.898 66.4496 176.16 67.0053 177.241 67.6918C178.862 68.7161 179.774 70.2525 179.943 72.4427C180 73.1837 179.729 88.6351 179.955 89.3433C180.304 90.4221 179.684 88.8639 178.232 89.4959C176.126 90.4003 178.614 89.0491 176.283 89.3433L169.786 86.5756H169.797Z" fill="#594F45"/>
<path d="M167.612 88.0577C169.335 90.6837 173.31 90.7055 175.045 88.0795C175.574 87.2622 175.957 86.5103 176.193 85.9764L175.45 85.7694C174.482 85.3989 173.817 84.6252 173.727 83.7426L173.66 82.4568L169.178 82.326L169.009 83.7535C168.907 84.6361 167.725 85.4098 166.757 85.7803L166.464 85.8892C166.7 86.4341 167.083 87.2186 167.635 88.0686L167.612 88.0577Z" fill="#DA9F8E"/>
<path d="M173.716 82.893L173.648 81.6068L169.167 81.476L168.998 82.9039C169.178 83.0566 170.203 83.9068 171.689 83.776C172.781 83.6779 173.491 83.1111 173.739 82.9039L173.716 82.893Z" fill="#964436"/>
<path d="M176.734 74.513C173.243 74.0445 170.698 72.9003 169.842 71.3966C169.561 71.9087 168.491 73.6086 166.239 73.6522C166.194 74.829 166.149 76.834 166.34 77.9999C166.531 79.1768 166.959 80.3318 167.781 81.2907C168.153 81.7266 168.592 82.108 169.088 82.424C170.461 83.3066 172.353 83.3175 173.75 82.4676C174.29 82.1407 174.763 81.7484 175.157 81.2907C175.979 80.3427 176.418 79.1768 176.599 77.9999C176.79 76.834 176.779 75.6899 176.734 74.5021V74.513Z" fill="#DA9F8E"/>
</g>
<rect x="118.759" y="170.705" width="105.753" height="14.2691" fill="#4D4D4D" fill-opacity="0.6"/>
<rect x="118.759" y="17.0378" width="105.753" height="9.87861" fill="#4D4D4D" fill-opacity="0.6"/>
<path d="M76.6994 157.602L113.112 118.314V159.997C113.112 159.199 114.443 157.602 116.466 153.769C125.569 136.521 131.797 139.875 135.151 140.833C143.296 145.145 138.88 155.206 137.442 157.602C133.13 165.268 128.444 179.162 125.569 190.182C123.653 201.297 110.397 219.727 105.925 224.678V239.828H68.0753V224.678C67.9156 215.095 70.3664 185.87 71.9082 174.85C73.3461 164.573 74.7829 159.039 76.6994 157.602Z" fill="url(#paint0_linear_1730_4906)"/>
<path d="M104.861 178.204L113.006 143.229V159.518C108.79 165.651 105.819 174.531 104.861 178.204Z" fill="#9D5612"/>
<path d="M265.301 157.602L228.888 118.314V159.997C228.888 159.199 227.557 157.602 225.534 153.769C216.431 136.521 210.203 139.875 206.849 140.833C198.704 145.145 203.12 155.206 204.558 157.602C208.87 165.268 213.556 179.162 216.431 190.182C218.347 201.297 231.603 219.727 236.075 224.678V239.828H273.925V224.678C274.084 215.095 271.634 185.87 270.092 174.85C268.654 164.573 267.217 159.039 265.301 157.602Z" fill="url(#paint1_linear_1730_4906)"/>
<path d="M237.139 178.204L228.994 143.229V159.518C233.21 165.651 236.181 174.531 237.139 178.204Z" fill="#9D5612"/>
<defs>
<linearGradient id="paint0_linear_1730_4906" x1="340.108" y1="-5.2969" x2="-131.34" y2="364.579" gradientUnits="userSpaceOnUse">
<stop offset="0.306085" stop-color="#7F4712"/>
<stop offset="0.457914" stop-color="#FFBF85"/>
<stop offset="0.737239" stop-color="#7F4712"/>
</linearGradient>
<linearGradient id="paint1_linear_1730_4906" x1="1.89247" y1="-5.2969" x2="473.34" y2="364.579" gradientUnits="userSpaceOnUse">
<stop offset="0.306085" stop-color="#7F4712"/>
<stop offset="0.457914" stop-color="#FFBF85"/>
<stop offset="0.737239" stop-color="#7F4712"/>
</linearGradient>
</defs>
</svg>
