<svg width="16" height="18" viewBox="0 0 16 18" fill="none" xmlns="http://www.w3.org/2000/svg">
<path d="M13.446 3.37048L12.6642 15.7611C12.627 16.477 12.1012 17.0001 11.4131 17.0001H4.21969C3.52888 17.0001 3.01283 16.477 2.96865 15.7611L2.18676 3.37048" stroke="#002DD1" stroke-width="1.2" stroke-linecap="round" stroke-linejoin="round"/>
<path d="M14.6296 3.37048H0.999977" stroke="#002DD1" stroke-width="1.2" stroke-miterlimit="10" stroke-linecap="round"/>
<path d="M10.4851 3.37025V1.88877C10.4855 1.77194 10.4599 1.6562 10.4098 1.5482C10.3596 1.4402 10.286 1.34208 10.1931 1.25947C10.1001 1.17686 9.98974 1.1114 9.86824 1.06685C9.74674 1.0223 9.61653 0.999539 9.4851 0.999882H6.15177C6.02034 0.999539 5.89013 1.0223 5.76863 1.06685C5.64713 1.1114 5.53674 1.17686 5.4438 1.25947C5.35086 1.34208 5.27722 1.4402 5.2271 1.5482C5.17698 1.6562 5.15138 1.77194 5.15177 1.88877V3.37025" stroke="#002DD1" stroke-width="1.2" stroke-linecap="round" stroke-linejoin="round"/>
<path d="M7.6687 5.66638V14.5553" stroke="#002DD1" stroke-width="1.2" stroke-linecap="round" stroke-linejoin="round"/>
<path d="M10.3367 5.66638V14.5553" stroke="#002DD1" stroke-width="1.2" stroke-linecap="round" stroke-linejoin="round"/>
<path d="M5.15308 5.7406V14.6295" stroke="#002DD1" stroke-width="1.2" stroke-linecap="round" stroke-linejoin="round"/>
</svg>
