<svg width="89" height="116" viewBox="0 0 89 116" fill="none" xmlns="http://www.w3.org/2000/svg">
<path d="M68.975 15.6155H2.22498" stroke="#9DA4B2" stroke-width="2" stroke-linecap="round" stroke-linejoin="round"/>
<path d="M68.975 100.385H2.22498" stroke="#9DA4B2" stroke-width="2" stroke-linecap="round" stroke-linejoin="round"/>
<path d="M68.975 84.7692V104.846C68.975 109.776 64.9922 113.769 60.075 113.769H11.125C6.20773 113.769 2.22498 109.776 2.22498 104.846V11.1538C2.22498 6.22379 6.20773 2.23071 11.125 2.23071H60.075C64.9922 2.23071 68.975 6.22379 68.975 11.1538V31.2307" stroke="#9DA4B2" stroke-width="2" stroke-linecap="round" stroke-linejoin="round"/>
<path d="M57.85 78.0769C68.9095 78.0769 77.875 69.0882 77.875 58C77.875 46.9118 68.9095 37.9231 57.85 37.9231C46.7904 37.9231 37.825 46.9118 37.825 58C37.825 69.0882 46.7904 78.0769 57.85 78.0769Z" stroke="#9DA4B2" stroke-width="2" stroke-linejoin="round"/>
<path d="M86.775 87L72.001 72.1877" stroke="#9DA4B2" stroke-width="2" stroke-linecap="round" stroke-linejoin="round"/>
</svg>
