<svg width="18" height="18" viewBox="0 0 18 18" fill="none" xmlns="http://www.w3.org/2000/svg">
<path d="M5.7693 7.07849H4.57705C4.36455 7.07849 4.18639 7.00657 4.04255 6.86274C3.89889 6.71891 3.82705 6.54074 3.82705 6.32824C3.82705 6.11557 3.89889 5.93749 4.04255 5.79399C4.18639 5.65032 4.36455 5.57849 4.57705 5.57849H5.7693V4.38624C5.7693 4.17374 5.84122 3.99557 5.98505 3.85174C6.12889 3.70807 6.30705 3.63624 6.51955 3.63624C6.73222 3.63624 6.9103 3.70807 7.0538 3.85174C7.19747 3.99557 7.2693 4.17374 7.2693 4.38624V5.57849H8.46155C8.67405 5.57849 8.85222 5.65041 8.99605 5.79424C9.13972 5.93807 9.21155 6.11624 9.21155 6.32874C9.21155 6.54141 9.13972 6.71949 8.99605 6.86299C8.85222 7.00666 8.67405 7.07849 8.46155 7.07849H7.2693V8.27074C7.2693 8.48324 7.19739 8.66141 7.05355 8.80524C6.90972 8.94891 6.73155 9.02074 6.51905 9.02074C6.30639 9.02074 6.1283 8.94891 5.9848 8.80524C5.84114 8.66141 5.7693 8.48324 5.7693 8.27074V7.07849ZM6.5193 12.4437C4.81014 12.4437 3.36364 11.852 2.1798 10.6685C0.995969 9.48499 0.404053 8.03882 0.404053 6.32999C0.404053 4.62132 0.995803 3.17466 2.1793 1.98999C3.3628 0.805492 4.80897 0.213242 6.5178 0.213242C8.22647 0.213242 9.67314 0.805157 10.8578 1.98899C12.0423 3.17282 12.6346 4.61932 12.6346 6.32849C12.6346 7.04266 12.5147 7.72474 12.2751 8.37474C12.0352 9.02474 11.7153 9.59007 11.3153 10.0707L17.0693 15.8247C17.2078 15.9631 17.2786 16.1371 17.2818 16.3467C17.285 16.5564 17.2141 16.7337 17.0693 16.8785C16.9245 17.0233 16.7488 17.0957 16.5423 17.0957C16.336 17.0957 16.1604 17.0233 16.0156 16.8785L10.2616 11.1245C9.76155 11.5373 9.18655 11.8604 8.53655 12.0937C7.88655 12.3271 7.21414 12.4437 6.5193 12.4437ZM6.5193 10.944C7.8078 10.944 8.89914 10.4968 9.7933 9.60249C10.6876 8.70832 11.1348 7.61699 11.1348 6.32849C11.1348 5.03999 10.6876 3.94866 9.7933 3.05449C8.89914 2.16016 7.8078 1.71299 6.5193 1.71299C5.2308 1.71299 4.13947 2.16016 3.2453 3.05449C2.35097 3.94866 1.9038 5.03999 1.9038 6.32849C1.9038 7.61699 2.35097 8.70832 3.2453 9.60249C4.13947 10.4968 5.2308 10.944 6.5193 10.944Z" fill="#2A5595"/>
</svg>
