<svg
              width="234"
              height="246"
              viewBox="0 0 234 246"
              fill="none"
              xmlns="http://www.w3.org/2000/svg"
            >
              <rect
                x="0.5"
                y="0.5"
                width="233"
                height="245"
                rx="11.5"
                fill="white"
              />
              <path
                d="M133.918 24.2082L149.797 40.9817V99.7918H90.4795V100H150V41.1928L133.918 24.2082Z"
                fill="#909090"
              />
              <path
                d="M133.721 24H90.2764V99.7918H149.797V40.9846L133.721 24Z"
                fill="#F4F4F4"
              />
              <path
                d="M98.9287 52.0491H84V75.9313H145.545V52.0491H98.9287Z"
                fill="#7A7B7C"
              />
              <path
                d="M145.545 75.9313H84V52.0491H145.545V75.9313Z"
                fill="#DD2025"
              />
              <path
                d="M102.452 56.0826H97.8975V72.9285H101.494V67.25L102.288 67.2956C103.057 67.2823 103.818 67.1436 104.543 66.885C105.178 66.6649 105.763 66.3175 106.261 65.8637C106.764 65.4303 107.16 64.8848 107.418 64.2704C107.767 63.2474 107.892 62.1601 107.784 61.0837C107.762 60.3148 107.628 59.5533 107.387 58.8236C107.167 58.2968 106.84 57.822 106.428 57.4292C106.016 57.0365 105.527 56.7344 104.993 56.5424C104.528 56.3723 104.049 56.2488 103.56 56.1739C103.192 56.1167 102.821 56.0862 102.449 56.0826M101.79 64.1335H101.48V58.9394H102.156C102.453 58.9178 102.751 58.9637 103.027 59.0737C103.304 59.1836 103.553 59.3548 103.755 59.5746C104.175 60.1397 104.399 60.8275 104.393 61.5329C104.393 62.3963 104.393 63.1789 103.62 63.7299C103.062 64.0386 102.428 64.1776 101.793 64.13M114.583 56.037C114.196 56.037 113.82 56.0651 113.555 56.0756L112.736 56.0967H110.018V72.9425H113.217C114.439 72.9762 115.656 72.7676 116.799 72.3283C117.719 71.9609 118.533 71.3687 119.169 70.6051C119.787 69.8346 120.23 68.9375 120.469 67.9765C120.742 66.8881 120.876 65.7687 120.866 64.6459C120.933 63.3199 120.831 61.9906 120.563 60.6907C120.307 59.7338 119.83 58.852 119.169 58.1182C118.65 57.5256 118.015 57.0476 117.304 56.7143C116.694 56.4298 116.051 56.22 115.391 56.0896C115.129 56.046 114.863 56.026 114.597 56.03M113.962 69.8471H113.614V59.0938H113.659C114.378 59.0106 115.105 59.1411 115.75 59.4693C116.223 59.8495 116.608 60.3285 116.879 60.8732C117.172 61.4464 117.34 62.0755 117.374 62.7192C117.405 63.4913 117.374 64.123 117.374 64.6459C117.388 65.2483 117.35 65.8507 117.259 66.4463C117.152 67.0578 116.953 67.6494 116.67 68.2011C116.35 68.714 115.917 69.1462 115.405 69.4645C114.975 69.7446 114.466 69.8752 113.955 69.8365M131.648 56.0967H123.18V72.9425H126.762V66.2603H131.292V63.1298H126.762V59.2272H131.641V56.0967"
                fill="white"
              />
              <path
                d="M133.502 24.2228V41.2074H149.578L133.502 24.2228Z"
                fill="#909090"
              />
              <path
                d="M133.721 24V40.9846H149.797L133.721 24Z"
                fill="#F4F4F4"
              />
              <path
                d="M60.5918 136.79H63.0088C62.9443 137.646 62.707 138.404 62.2969 139.066C61.8867 139.723 61.3154 140.238 60.583 140.613C59.8506 140.988 58.9629 141.176 57.9199 141.176C57.1172 141.176 56.3936 141.035 55.749 140.754C55.1104 140.467 54.5625 140.06 54.1055 139.532C53.6543 138.999 53.3086 138.36 53.0684 137.616C52.8281 136.866 52.708 136.025 52.708 135.094V134.118C52.708 133.187 52.8311 132.346 53.0771 131.596C53.3232 130.846 53.6748 130.207 54.1318 129.68C54.5947 129.146 55.1484 128.736 55.793 128.449C56.4434 128.162 57.1699 128.019 57.9727 128.019C59.0156 128.019 59.8975 128.212 60.6182 128.599C61.3389 128.979 61.8984 129.504 62.2969 130.172C62.6953 130.84 62.9355 131.607 63.0176 132.475H60.6006C60.5537 131.936 60.4365 131.479 60.249 131.104C60.0674 130.729 59.792 130.444 59.4229 130.251C59.0596 130.052 58.5762 129.952 57.9727 129.952C57.5039 129.952 57.0908 130.04 56.7334 130.216C56.3818 130.392 56.0889 130.655 55.8545 131.007C55.6201 131.353 55.4443 131.786 55.3271 132.308C55.21 132.823 55.1514 133.421 55.1514 134.101V135.094C55.1514 135.744 55.2041 136.327 55.3096 136.843C55.415 137.358 55.5791 137.795 55.8018 138.152C56.0244 138.51 56.3115 138.782 56.6631 138.97C57.0146 139.157 57.4336 139.251 57.9199 139.251C58.5117 139.251 58.9922 139.157 59.3613 138.97C59.7363 138.782 60.0205 138.507 60.2139 138.144C60.4131 137.78 60.5391 137.329 60.5918 136.79ZM67.166 127.5V141H64.8369V127.5H67.166ZM71.8418 131.49V141H69.5127V131.49H71.8418ZM69.3545 129.003C69.3545 128.657 69.4717 128.37 69.7061 128.142C69.9463 127.913 70.2686 127.799 70.6729 127.799C71.0771 127.799 71.3965 127.913 71.6309 128.142C71.8711 128.37 71.9912 128.657 71.9912 129.003C71.9912 129.343 71.8711 129.627 71.6309 129.855C71.3965 130.084 71.0771 130.198 70.6729 130.198C70.2686 130.198 69.9463 130.084 69.7061 129.855C69.4717 129.627 69.3545 129.343 69.3545 129.003ZM79.752 144.656V133.406L80.0332 131.49H82.0898V144.656H79.752ZM73.6523 136.342V136.157C73.6523 135.431 73.7344 134.771 73.8984 134.18C74.0625 133.582 74.3027 133.072 74.6191 132.65C74.9414 132.223 75.334 131.895 75.7969 131.666C76.2598 131.432 76.79 131.314 77.3877 131.314C77.9736 131.314 78.4805 131.429 78.9082 131.657C79.3359 131.886 79.6992 132.211 79.998 132.633C80.2969 133.049 80.5342 133.544 80.71 134.118C80.8916 134.692 81.0264 135.328 81.1143 136.025V136.526C81.0264 137.194 80.8916 137.812 80.71 138.381C80.5342 138.943 80.2969 139.436 79.998 139.857C79.7051 140.273 79.3418 140.599 78.9082 140.833C78.4746 141.062 77.9619 141.176 77.3701 141.176C76.7783 141.176 76.251 141.056 75.7881 140.815C75.3311 140.569 74.9414 140.229 74.6191 139.796C74.3027 139.362 74.0625 138.853 73.8984 138.267C73.7344 137.675 73.6523 137.033 73.6523 136.342ZM75.9814 136.157V136.342C75.9814 136.758 76.0166 137.147 76.0869 137.511C76.1631 137.868 76.2803 138.185 76.4385 138.46C76.5967 138.735 76.7988 138.952 77.0449 139.11C77.2969 139.269 77.6016 139.348 77.959 139.348C78.4395 139.348 78.8291 139.242 79.1279 139.031C79.4326 138.82 79.6611 138.536 79.8135 138.179C79.9717 137.815 80.0742 137.411 80.1211 136.966V135.595C80.0918 135.237 80.0303 134.909 79.9365 134.61C79.8428 134.312 79.7109 134.054 79.541 133.837C79.377 133.62 79.166 133.45 78.9082 133.327C78.6504 133.204 78.3398 133.143 77.9766 133.143C77.6191 133.143 77.3145 133.222 77.0625 133.38C76.8105 133.532 76.6055 133.746 76.4473 134.021C76.2891 134.297 76.1719 134.616 76.0957 134.979C76.0195 135.343 75.9814 135.735 75.9814 136.157ZM89.8945 138.741V131.49H92.2324V141H90.0352L89.8945 138.741ZM90.1934 136.772L90.9141 136.755C90.9141 137.394 90.8438 137.982 90.7031 138.521C90.5625 139.061 90.3428 139.529 90.0439 139.928C89.751 140.32 89.3789 140.628 88.9277 140.851C88.4766 141.067 87.9434 141.176 87.3281 141.176C86.8594 141.176 86.4316 141.111 86.0449 140.982C85.6582 140.848 85.3242 140.64 85.043 140.358C84.7676 140.071 84.5537 139.705 84.4014 139.26C84.249 138.809 84.1729 138.267 84.1729 137.634V131.49H86.4932V137.651C86.4932 137.968 86.5283 138.231 86.5986 138.442C86.6748 138.653 86.7773 138.826 86.9062 138.961C87.041 139.09 87.1963 139.184 87.3721 139.242C87.5537 139.295 87.7471 139.321 87.9521 139.321C88.5146 139.321 88.957 139.21 89.2793 138.987C89.6074 138.759 89.8418 138.454 89.9824 138.073C90.123 137.687 90.1934 137.253 90.1934 136.772ZM98.5605 141.176C97.8398 141.176 97.1924 141.059 96.6182 140.824C96.0439 140.59 95.5547 140.265 95.1504 139.849C94.752 139.427 94.4443 138.938 94.2275 138.381C94.0166 137.818 93.9111 137.215 93.9111 136.57V136.219C93.9111 135.486 94.0166 134.821 94.2275 134.224C94.4385 133.62 94.7373 133.102 95.124 132.668C95.5107 132.234 95.9736 131.9 96.5127 131.666C97.0518 131.432 97.6465 131.314 98.2969 131.314C98.9707 131.314 99.5654 131.429 100.081 131.657C100.597 131.88 101.027 132.196 101.373 132.606C101.719 133.017 101.979 133.509 102.155 134.083C102.331 134.651 102.419 135.281 102.419 135.973V136.948H94.9658V135.349H100.134V135.173C100.122 134.804 100.052 134.467 99.9229 134.162C99.7939 133.852 99.5947 133.605 99.3252 133.424C99.0557 133.236 98.707 133.143 98.2793 133.143C97.9336 133.143 97.6318 133.219 97.374 133.371C97.1221 133.518 96.9111 133.729 96.7412 134.004C96.5771 134.273 96.4541 134.596 96.3721 134.971C96.29 135.346 96.249 135.762 96.249 136.219V136.57C96.249 136.969 96.3018 137.338 96.4072 137.678C96.5186 138.018 96.6797 138.313 96.8906 138.565C97.1074 138.812 97.3652 139.005 97.6641 139.146C97.9688 139.28 98.3145 139.348 98.7012 139.348C99.1875 139.348 99.627 139.254 100.02 139.066C100.418 138.873 100.764 138.589 101.057 138.214L102.226 139.427C102.026 139.72 101.757 140.001 101.417 140.271C101.083 140.54 100.679 140.76 100.204 140.93C99.7295 141.094 99.1816 141.176 98.5605 141.176ZM113.695 138.979V134.593C113.695 134.271 113.64 133.992 113.528 133.758C113.417 133.523 113.247 133.342 113.019 133.213C112.79 133.084 112.5 133.02 112.148 133.02C111.838 133.02 111.565 133.072 111.331 133.178C111.103 133.283 110.927 133.433 110.804 133.626C110.681 133.813 110.619 134.03 110.619 134.276H108.29C108.29 133.884 108.384 133.512 108.571 133.16C108.759 132.803 109.025 132.486 109.371 132.211C109.723 131.93 110.142 131.71 110.628 131.552C111.12 131.394 111.671 131.314 112.28 131.314C113.001 131.314 113.643 131.438 114.205 131.684C114.773 131.924 115.219 132.287 115.541 132.773C115.869 133.26 116.033 133.872 116.033 134.61V138.759C116.033 139.233 116.062 139.641 116.121 139.98C116.186 140.314 116.279 140.604 116.402 140.851V141H114.038C113.927 140.76 113.842 140.455 113.783 140.086C113.725 139.711 113.695 139.342 113.695 138.979ZM114.021 135.208L114.038 136.588H112.57C112.207 136.588 111.888 136.626 111.612 136.702C111.337 136.772 111.111 136.878 110.936 137.019C110.76 137.153 110.628 137.317 110.54 137.511C110.452 137.698 110.408 137.912 110.408 138.152C110.408 138.387 110.461 138.598 110.566 138.785C110.678 138.973 110.836 139.122 111.041 139.233C111.252 139.339 111.498 139.392 111.779 139.392C112.189 139.392 112.547 139.31 112.852 139.146C113.156 138.976 113.394 138.771 113.563 138.53C113.733 138.29 113.824 138.062 113.836 137.845L114.504 138.847C114.422 139.087 114.299 139.342 114.135 139.611C113.971 139.881 113.76 140.133 113.502 140.367C113.244 140.602 112.934 140.795 112.57 140.947C112.207 141.1 111.785 141.176 111.305 141.176C110.689 141.176 110.139 141.053 109.652 140.807C109.166 140.561 108.782 140.224 108.501 139.796C108.22 139.368 108.079 138.882 108.079 138.337C108.079 137.833 108.173 137.388 108.36 137.001C108.548 136.614 108.826 136.289 109.195 136.025C109.564 135.756 110.021 135.554 110.566 135.419C111.117 135.278 111.747 135.208 112.456 135.208H114.021ZM123.82 144.656V133.406L124.102 131.49H126.158V144.656H123.82ZM117.721 136.342V136.157C117.721 135.431 117.803 134.771 117.967 134.18C118.131 133.582 118.371 133.072 118.688 132.65C119.01 132.223 119.402 131.895 119.865 131.666C120.328 131.432 120.858 131.314 121.456 131.314C122.042 131.314 122.549 131.429 122.977 131.657C123.404 131.886 123.768 132.211 124.066 132.633C124.365 133.049 124.603 133.544 124.778 134.118C124.96 134.692 125.095 135.328 125.183 136.025V136.526C125.095 137.194 124.96 137.812 124.778 138.381C124.603 138.943 124.365 139.436 124.066 139.857C123.773 140.273 123.41 140.599 122.977 140.833C122.543 141.062 122.03 141.176 121.438 141.176C120.847 141.176 120.319 141.056 119.856 140.815C119.399 140.569 119.01 140.229 118.688 139.796C118.371 139.362 118.131 138.853 117.967 138.267C117.803 137.675 117.721 137.033 117.721 136.342ZM120.05 136.157V136.342C120.05 136.758 120.085 137.147 120.155 137.511C120.231 137.868 120.349 138.185 120.507 138.46C120.665 138.735 120.867 138.952 121.113 139.11C121.365 139.269 121.67 139.348 122.027 139.348C122.508 139.348 122.897 139.242 123.196 139.031C123.501 138.82 123.729 138.536 123.882 138.179C124.04 137.815 124.143 137.411 124.189 136.966V135.595C124.16 135.237 124.099 134.909 124.005 134.61C123.911 134.312 123.779 134.054 123.609 133.837C123.445 133.62 123.234 133.45 122.977 133.327C122.719 133.204 122.408 133.143 122.045 133.143C121.688 133.143 121.383 133.222 121.131 133.38C120.879 133.532 120.674 133.746 120.516 134.021C120.357 134.297 120.24 134.616 120.164 134.979C120.088 135.343 120.05 135.735 120.05 136.157ZM133.963 138.741V131.49H136.301V141H134.104L133.963 138.741ZM134.262 136.772L134.982 136.755C134.982 137.394 134.912 137.982 134.771 138.521C134.631 139.061 134.411 139.529 134.112 139.928C133.819 140.32 133.447 140.628 132.996 140.851C132.545 141.067 132.012 141.176 131.396 141.176C130.928 141.176 130.5 141.111 130.113 140.982C129.727 140.848 129.393 140.64 129.111 140.358C128.836 140.071 128.622 139.705 128.47 139.26C128.317 138.809 128.241 138.267 128.241 137.634V131.49H130.562V137.651C130.562 137.968 130.597 138.231 130.667 138.442C130.743 138.653 130.846 138.826 130.975 138.961C131.109 139.09 131.265 139.184 131.44 139.242C131.622 139.295 131.815 139.321 132.021 139.321C132.583 139.321 133.025 139.21 133.348 138.987C133.676 138.759 133.91 138.454 134.051 138.073C134.191 137.687 134.262 137.253 134.262 136.772ZM140.818 131.49V141H138.489V131.49H140.818ZM138.331 129.003C138.331 128.657 138.448 128.37 138.683 128.142C138.923 127.913 139.245 127.799 139.649 127.799C140.054 127.799 140.373 127.913 140.607 128.142C140.848 128.37 140.968 128.657 140.968 129.003C140.968 129.343 140.848 129.627 140.607 129.855C140.373 130.084 140.054 130.198 139.649 130.198C139.245 130.198 138.923 130.084 138.683 129.855C138.448 129.627 138.331 129.343 138.331 129.003ZM149.836 133.318V144.656H147.507V131.49H149.66L149.836 133.318ZM155.944 136.148V136.333C155.944 137.024 155.862 137.666 155.698 138.258C155.54 138.844 155.306 139.356 154.995 139.796C154.685 140.229 154.298 140.569 153.835 140.815C153.378 141.056 152.851 141.176 152.253 141.176C151.667 141.176 151.157 141.064 150.724 140.842C150.29 140.613 149.924 140.291 149.625 139.875C149.326 139.459 149.086 138.976 148.904 138.425C148.729 137.868 148.597 137.262 148.509 136.605V136.017C148.597 135.319 148.729 134.687 148.904 134.118C149.086 133.544 149.326 133.049 149.625 132.633C149.924 132.211 150.287 131.886 150.715 131.657C151.148 131.429 151.655 131.314 152.235 131.314C152.839 131.314 153.369 131.429 153.826 131.657C154.289 131.886 154.679 132.214 154.995 132.642C155.312 133.069 155.549 133.579 155.707 134.171C155.865 134.763 155.944 135.422 155.944 136.148ZM153.615 136.333V136.148C153.615 135.727 153.577 135.337 153.501 134.979C153.425 134.616 153.308 134.3 153.149 134.03C152.991 133.755 152.786 133.541 152.534 133.389C152.282 133.236 151.978 133.16 151.62 133.16C151.263 133.16 150.955 133.219 150.697 133.336C150.439 133.453 150.229 133.62 150.064 133.837C149.9 134.054 149.771 134.312 149.678 134.61C149.59 134.903 149.531 135.229 149.502 135.586V137.045C149.555 137.479 149.657 137.868 149.81 138.214C149.962 138.56 150.185 138.835 150.478 139.04C150.776 139.245 151.163 139.348 151.638 139.348C151.995 139.348 152.3 139.269 152.552 139.11C152.804 138.952 153.009 138.735 153.167 138.46C153.325 138.179 153.439 137.856 153.51 137.493C153.58 137.13 153.615 136.743 153.615 136.333ZM162.879 138.979V134.593C162.879 134.271 162.823 133.992 162.712 133.758C162.601 133.523 162.431 133.342 162.202 133.213C161.974 133.084 161.684 133.02 161.332 133.02C161.021 133.02 160.749 133.072 160.515 133.178C160.286 133.283 160.11 133.433 159.987 133.626C159.864 133.813 159.803 134.03 159.803 134.276H157.474C157.474 133.884 157.567 133.512 157.755 133.16C157.942 132.803 158.209 132.486 158.555 132.211C158.906 131.93 159.325 131.71 159.812 131.552C160.304 131.394 160.854 131.314 161.464 131.314C162.185 131.314 162.826 131.438 163.389 131.684C163.957 131.924 164.402 132.287 164.725 132.773C165.053 133.26 165.217 133.872 165.217 134.61V138.759C165.217 139.233 165.246 139.641 165.305 139.98C165.369 140.314 165.463 140.604 165.586 140.851V141H163.222C163.11 140.76 163.025 140.455 162.967 140.086C162.908 139.711 162.879 139.342 162.879 138.979ZM163.204 135.208L163.222 136.588H161.754C161.391 136.588 161.071 136.626 160.796 136.702C160.521 136.772 160.295 136.878 160.119 137.019C159.943 137.153 159.812 137.317 159.724 137.511C159.636 137.698 159.592 137.912 159.592 138.152C159.592 138.387 159.645 138.598 159.75 138.785C159.861 138.973 160.02 139.122 160.225 139.233C160.436 139.339 160.682 139.392 160.963 139.392C161.373 139.392 161.73 139.31 162.035 139.146C162.34 138.976 162.577 138.771 162.747 138.53C162.917 138.29 163.008 138.062 163.02 137.845L163.688 138.847C163.605 139.087 163.482 139.342 163.318 139.611C163.154 139.881 162.943 140.133 162.686 140.367C162.428 140.602 162.117 140.795 161.754 140.947C161.391 141.1 160.969 141.176 160.488 141.176C159.873 141.176 159.322 141.053 158.836 140.807C158.35 140.561 157.966 140.224 157.685 139.796C157.403 139.368 157.263 138.882 157.263 138.337C157.263 137.833 157.356 137.388 157.544 137.001C157.731 136.614 158.01 136.289 158.379 136.025C158.748 135.756 159.205 135.554 159.75 135.419C160.301 135.278 160.931 135.208 161.64 135.208H163.204ZM169.629 133.433V141H167.309V131.49H169.506L169.629 133.433ZM172.521 131.429L172.485 133.591C172.356 133.567 172.21 133.55 172.046 133.538C171.888 133.526 171.738 133.521 171.598 133.521C171.24 133.521 170.927 133.57 170.657 133.67C170.388 133.764 170.162 133.901 169.98 134.083C169.805 134.265 169.67 134.487 169.576 134.751C169.482 135.009 169.43 135.302 169.418 135.63L168.917 135.568C168.917 134.965 168.979 134.405 169.102 133.89C169.225 133.374 169.403 132.923 169.638 132.536C169.872 132.149 170.165 131.851 170.517 131.64C170.874 131.423 171.284 131.314 171.747 131.314C171.876 131.314 172.014 131.326 172.16 131.35C172.312 131.367 172.433 131.394 172.521 131.429ZM178.734 138.979V134.593C178.734 134.271 178.679 133.992 178.567 133.758C178.456 133.523 178.286 133.342 178.058 133.213C177.829 133.084 177.539 133.02 177.188 133.02C176.877 133.02 176.604 133.072 176.37 133.178C176.142 133.283 175.966 133.433 175.843 133.626C175.72 133.813 175.658 134.03 175.658 134.276H173.329C173.329 133.884 173.423 133.512 173.61 133.16C173.798 132.803 174.064 132.486 174.41 132.211C174.762 131.93 175.181 131.71 175.667 131.552C176.159 131.394 176.71 131.314 177.319 131.314C178.04 131.314 178.682 131.438 179.244 131.684C179.812 131.924 180.258 132.287 180.58 132.773C180.908 133.26 181.072 133.872 181.072 134.61V138.759C181.072 139.233 181.102 139.641 181.16 139.98C181.225 140.314 181.318 140.604 181.441 140.851V141H179.077C178.966 140.76 178.881 140.455 178.822 140.086C178.764 139.711 178.734 139.342 178.734 138.979ZM179.06 135.208L179.077 136.588H177.609C177.246 136.588 176.927 136.626 176.651 136.702C176.376 136.772 176.15 136.878 175.975 137.019C175.799 137.153 175.667 137.317 175.579 137.511C175.491 137.698 175.447 137.912 175.447 138.152C175.447 138.387 175.5 138.598 175.605 138.785C175.717 138.973 175.875 139.122 176.08 139.233C176.291 139.339 176.537 139.392 176.818 139.392C177.229 139.392 177.586 139.31 177.891 139.146C178.195 138.976 178.433 138.771 178.603 138.53C178.772 138.29 178.863 138.062 178.875 137.845L179.543 138.847C179.461 139.087 179.338 139.342 179.174 139.611C179.01 139.881 178.799 140.133 178.541 140.367C178.283 140.602 177.973 140.795 177.609 140.947C177.246 141.1 176.824 141.176 176.344 141.176C175.729 141.176 175.178 141.053 174.691 140.807C174.205 140.561 173.821 140.224 173.54 139.796C173.259 139.368 173.118 138.882 173.118 138.337C173.118 137.833 173.212 137.388 173.399 137.001C173.587 136.614 173.865 136.289 174.234 136.025C174.604 135.756 175.061 135.554 175.605 135.419C176.156 135.278 176.786 135.208 177.495 135.208H179.06ZM48.041 162.176C47.3203 162.176 46.6729 162.059 46.0986 161.824C45.5244 161.59 45.0352 161.265 44.6309 160.849C44.2324 160.427 43.9248 159.938 43.708 159.381C43.4971 158.818 43.3916 158.215 43.3916 157.57V157.219C43.3916 156.486 43.4971 155.821 43.708 155.224C43.9189 154.62 44.2178 154.102 44.6045 153.668C44.9912 153.234 45.4541 152.9 45.9932 152.666C46.5322 152.432 47.127 152.314 47.7773 152.314C48.4512 152.314 49.0459 152.429 49.5615 152.657C50.0771 152.88 50.5078 153.196 50.8535 153.606C51.1992 154.017 51.46 154.509 51.6357 155.083C51.8115 155.651 51.8994 156.281 51.8994 156.973V157.948H44.4463V156.349H49.6143V156.173C49.6025 155.804 49.5322 155.467 49.4033 155.162C49.2744 154.852 49.0752 154.605 48.8057 154.424C48.5361 154.236 48.1875 154.143 47.7598 154.143C47.4141 154.143 47.1123 154.219 46.8545 154.371C46.6025 154.518 46.3916 154.729 46.2217 155.004C46.0576 155.273 45.9346 155.596 45.8525 155.971C45.7705 156.346 45.7295 156.762 45.7295 157.219V157.57C45.7295 157.969 45.7822 158.338 45.8877 158.678C45.999 159.018 46.1602 159.313 46.3711 159.565C46.5879 159.812 46.8457 160.005 47.1445 160.146C47.4492 160.28 47.7949 160.348 48.1816 160.348C48.668 160.348 49.1074 160.254 49.5 160.066C49.8984 159.873 50.2441 159.589 50.5371 159.214L51.7061 160.427C51.5068 160.72 51.2373 161.001 50.8975 161.271C50.5635 161.54 50.1592 161.76 49.6846 161.93C49.21 162.094 48.6621 162.176 48.041 162.176ZM58.6846 159.398C58.6846 159.199 58.6318 159.021 58.5264 158.862C58.4209 158.704 58.2217 158.561 57.9287 158.432C57.6416 158.297 57.2197 158.171 56.6631 158.054C56.1709 157.948 55.7168 157.816 55.3008 157.658C54.8848 157.5 54.5273 157.31 54.2285 157.087C53.9297 156.858 53.6953 156.592 53.5254 156.287C53.3613 155.977 53.2793 155.619 53.2793 155.215C53.2793 154.822 53.3643 154.453 53.5342 154.107C53.7041 153.756 53.9502 153.448 54.2725 153.185C54.5947 152.915 54.9873 152.704 55.4502 152.552C55.9131 152.394 56.4346 152.314 57.0146 152.314C57.8232 152.314 58.5176 152.446 59.0977 152.71C59.6836 152.974 60.1318 153.337 60.4424 153.8C60.7529 154.257 60.9082 154.772 60.9082 155.347H58.5879C58.5879 155.095 58.5293 154.866 58.4121 154.661C58.3008 154.456 58.1279 154.292 57.8936 154.169C57.6592 154.04 57.3633 153.976 57.0059 153.976C56.6836 153.976 56.4111 154.028 56.1885 154.134C55.9717 154.239 55.8076 154.377 55.6963 154.547C55.585 154.717 55.5293 154.904 55.5293 155.109C55.5293 155.262 55.5586 155.399 55.6172 155.522C55.6816 155.64 55.7842 155.748 55.9248 155.848C56.0654 155.947 56.2559 156.038 56.4961 156.12C56.7422 156.202 57.0439 156.281 57.4014 156.357C58.1104 156.498 58.7285 156.686 59.2559 156.92C59.7891 157.148 60.2051 157.453 60.5039 157.834C60.8027 158.215 60.9521 158.701 60.9521 159.293C60.9521 159.715 60.8613 160.102 60.6797 160.453C60.498 160.799 60.2344 161.101 59.8887 161.358C59.543 161.616 59.1299 161.818 58.6494 161.965C58.1689 162.105 57.627 162.176 57.0234 162.176C56.1504 162.176 55.4121 162.021 54.8086 161.71C54.2051 161.394 53.748 160.995 53.4375 160.515C53.127 160.028 52.9717 159.524 52.9717 159.003H55.1953C55.2129 159.372 55.3125 159.668 55.4941 159.891C55.6758 160.113 55.9043 160.274 56.1797 160.374C56.4609 160.468 56.7568 160.515 57.0674 160.515C57.4189 160.515 57.7148 160.468 57.9551 160.374C58.1953 160.274 58.377 160.143 58.5 159.979C58.623 159.809 58.6846 159.615 58.6846 159.398ZM66.6211 160.348C66.9492 160.348 67.2422 160.283 67.5 160.154C67.7578 160.025 67.9629 159.844 68.1152 159.609C68.2734 159.375 68.3584 159.103 68.3701 158.792H70.5586C70.5469 159.437 70.3652 160.014 70.0137 160.523C69.6621 161.033 69.1934 161.438 68.6074 161.736C68.0273 162.029 67.377 162.176 66.6562 162.176C65.9238 162.176 65.2852 162.053 64.7402 161.807C64.1953 161.561 63.7412 161.218 63.3779 160.778C63.0205 160.339 62.751 159.829 62.5693 159.249C62.3936 158.669 62.3057 158.048 62.3057 157.386V157.104C62.3057 156.442 62.3936 155.821 62.5693 155.241C62.751 154.661 63.0205 154.151 63.3779 153.712C63.7412 153.272 64.1953 152.93 64.7402 152.684C65.2852 152.438 65.9209 152.314 66.6475 152.314C67.415 152.314 68.0889 152.464 68.6689 152.763C69.2549 153.062 69.7119 153.483 70.04 154.028C70.374 154.573 70.5469 155.215 70.5586 155.953H68.3701C68.3584 155.613 68.2822 155.309 68.1416 155.039C68.001 154.77 67.8018 154.553 67.5439 154.389C67.2861 154.225 66.9727 154.143 66.6035 154.143C66.2109 154.143 65.8828 154.225 65.6191 154.389C65.3613 154.553 65.1592 154.778 65.0127 155.065C64.8721 155.347 64.7725 155.663 64.7139 156.015C64.6611 156.36 64.6348 156.724 64.6348 157.104V157.386C64.6348 157.772 64.6611 158.142 64.7139 158.493C64.7725 158.845 64.8721 159.161 65.0127 159.442C65.1592 159.718 65.3613 159.938 65.6191 160.102C65.8828 160.266 66.2168 160.348 66.6211 160.348ZM71.6924 157.342V157.157C71.6924 156.46 71.792 155.818 71.9912 155.232C72.1904 154.641 72.4805 154.128 72.8613 153.694C73.2422 153.261 73.708 152.924 74.2588 152.684C74.8096 152.438 75.4365 152.314 76.1396 152.314C76.8545 152.314 77.4873 152.438 78.0381 152.684C78.5947 152.924 79.0635 153.261 79.4443 153.694C79.8252 154.128 80.1152 154.641 80.3145 155.232C80.5137 155.818 80.6133 156.46 80.6133 157.157V157.342C80.6133 158.033 80.5137 158.675 80.3145 159.267C80.1152 159.853 79.8252 160.365 79.4443 160.805C79.0635 161.238 78.5977 161.575 78.0469 161.815C77.4961 162.056 76.8662 162.176 76.1572 162.176C75.4541 162.176 74.8242 162.056 74.2676 161.815C73.7109 161.575 73.2422 161.238 72.8613 160.805C72.4805 160.365 72.1904 159.853 71.9912 159.267C71.792 158.675 71.6924 158.033 71.6924 157.342ZM74.0127 157.157V157.342C74.0127 157.758 74.0537 158.147 74.1357 158.511C74.2178 158.874 74.3438 159.193 74.5137 159.469C74.6836 159.744 74.9033 159.961 75.1729 160.119C75.4482 160.271 75.7764 160.348 76.1572 160.348C76.5322 160.348 76.8545 160.271 77.124 160.119C77.3936 159.961 77.6133 159.744 77.7832 159.469C77.959 159.193 78.0879 158.874 78.1699 158.511C78.252 158.147 78.293 157.758 78.293 157.342V157.157C78.293 156.747 78.252 156.363 78.1699 156.006C78.0879 155.643 77.959 155.323 77.7832 155.048C77.6133 154.767 77.3906 154.547 77.1152 154.389C76.8457 154.225 76.5205 154.143 76.1396 154.143C75.7646 154.143 75.4424 154.225 75.1729 154.389C74.9033 154.547 74.6836 154.767 74.5137 155.048C74.3438 155.323 74.2178 155.643 74.1357 156.006C74.0537 156.363 74.0127 156.747 74.0127 157.157ZM84.7617 148.5V162H82.4326V148.5H84.7617ZM89.2529 148.5V162H86.9238V148.5H89.2529ZM88.8838 156.902H88.1982C88.1982 156.24 88.2861 155.631 88.4619 155.074C88.6377 154.518 88.8867 154.034 89.209 153.624C89.5312 153.208 89.915 152.886 90.3604 152.657C90.8115 152.429 91.3096 152.314 91.8545 152.314C92.3232 152.314 92.748 152.382 93.1289 152.517C93.5156 152.646 93.8467 152.854 94.1221 153.141C94.3975 153.428 94.6084 153.803 94.7549 154.266C94.9072 154.723 94.9834 155.279 94.9834 155.936V162H92.6455V155.918C92.6455 155.479 92.5811 155.133 92.4521 154.881C92.3232 154.623 92.1387 154.438 91.8984 154.327C91.6641 154.216 91.374 154.16 91.0283 154.16C90.6533 154.16 90.3311 154.233 90.0615 154.38C89.792 154.521 89.5693 154.717 89.3936 154.969C89.2236 155.221 89.0947 155.511 89.0068 155.839C88.9248 156.167 88.8838 156.521 88.8838 156.902ZM101.303 162.176C100.582 162.176 99.9346 162.059 99.3604 161.824C98.7861 161.59 98.2969 161.265 97.8926 160.849C97.4941 160.427 97.1865 159.938 96.9697 159.381C96.7588 158.818 96.6533 158.215 96.6533 157.57V157.219C96.6533 156.486 96.7588 155.821 96.9697 155.224C97.1807 154.62 97.4795 154.102 97.8662 153.668C98.2529 153.234 98.7158 152.9 99.2549 152.666C99.7939 152.432 100.389 152.314 101.039 152.314C101.713 152.314 102.308 152.429 102.823 152.657C103.339 152.88 103.77 153.196 104.115 153.606C104.461 154.017 104.722 154.509 104.897 155.083C105.073 155.651 105.161 156.281 105.161 156.973V157.948H97.708V156.349H102.876V156.173C102.864 155.804 102.794 155.467 102.665 155.162C102.536 154.852 102.337 154.605 102.067 154.424C101.798 154.236 101.449 154.143 101.021 154.143C100.676 154.143 100.374 154.219 100.116 154.371C99.8643 154.518 99.6533 154.729 99.4834 155.004C99.3193 155.273 99.1963 155.596 99.1143 155.971C99.0322 156.346 98.9912 156.762 98.9912 157.219V157.57C98.9912 157.969 99.0439 158.338 99.1494 158.678C99.2607 159.018 99.4219 159.313 99.6328 159.565C99.8496 159.812 100.107 160.005 100.406 160.146C100.711 160.28 101.057 160.348 101.443 160.348C101.93 160.348 102.369 160.254 102.762 160.066C103.16 159.873 103.506 159.589 103.799 159.214L104.968 160.427C104.769 160.72 104.499 161.001 104.159 161.271C103.825 161.54 103.421 161.76 102.946 161.93C102.472 162.094 101.924 162.176 101.303 162.176ZM109.037 154.433V162H106.717V152.49H108.914L109.037 154.433ZM111.929 152.429L111.894 154.591C111.765 154.567 111.618 154.55 111.454 154.538C111.296 154.526 111.146 154.521 111.006 154.521C110.648 154.521 110.335 154.57 110.065 154.67C109.796 154.764 109.57 154.901 109.389 155.083C109.213 155.265 109.078 155.487 108.984 155.751C108.891 156.009 108.838 156.302 108.826 156.63L108.325 156.568C108.325 155.965 108.387 155.405 108.51 154.89C108.633 154.374 108.812 153.923 109.046 153.536C109.28 153.149 109.573 152.851 109.925 152.64C110.282 152.423 110.692 152.314 111.155 152.314C111.284 152.314 111.422 152.326 111.568 152.35C111.721 152.367 111.841 152.394 111.929 152.429ZM117.272 157.342V157.157C117.272 156.46 117.372 155.818 117.571 155.232C117.771 154.641 118.061 154.128 118.441 153.694C118.822 153.261 119.288 152.924 119.839 152.684C120.39 152.438 121.017 152.314 121.72 152.314C122.435 152.314 123.067 152.438 123.618 152.684C124.175 152.924 124.644 153.261 125.024 153.694C125.405 154.128 125.695 154.641 125.895 155.232C126.094 155.818 126.193 156.46 126.193 157.157V157.342C126.193 158.033 126.094 158.675 125.895 159.267C125.695 159.853 125.405 160.365 125.024 160.805C124.644 161.238 124.178 161.575 123.627 161.815C123.076 162.056 122.446 162.176 121.737 162.176C121.034 162.176 120.404 162.056 119.848 161.815C119.291 161.575 118.822 161.238 118.441 160.805C118.061 160.365 117.771 159.853 117.571 159.267C117.372 158.675 117.272 158.033 117.272 157.342ZM119.593 157.157V157.342C119.593 157.758 119.634 158.147 119.716 158.511C119.798 158.874 119.924 159.193 120.094 159.469C120.264 159.744 120.483 159.961 120.753 160.119C121.028 160.271 121.356 160.348 121.737 160.348C122.112 160.348 122.435 160.271 122.704 160.119C122.974 159.961 123.193 159.744 123.363 159.469C123.539 159.193 123.668 158.874 123.75 158.511C123.832 158.147 123.873 157.758 123.873 157.342V157.157C123.873 156.747 123.832 156.363 123.75 156.006C123.668 155.643 123.539 155.323 123.363 155.048C123.193 154.767 122.971 154.547 122.695 154.389C122.426 154.225 122.101 154.143 121.72 154.143C121.345 154.143 121.022 154.225 120.753 154.389C120.483 154.547 120.264 154.767 120.094 155.048C119.924 155.323 119.798 155.643 119.716 156.006C119.634 156.363 119.593 156.747 119.593 157.157ZM137.602 159.979V155.593C137.602 155.271 137.546 154.992 137.435 154.758C137.323 154.523 137.153 154.342 136.925 154.213C136.696 154.084 136.406 154.02 136.055 154.02C135.744 154.02 135.472 154.072 135.237 154.178C135.009 154.283 134.833 154.433 134.71 154.626C134.587 154.813 134.525 155.03 134.525 155.276H132.196C132.196 154.884 132.29 154.512 132.478 154.16C132.665 153.803 132.932 153.486 133.277 153.211C133.629 152.93 134.048 152.71 134.534 152.552C135.026 152.394 135.577 152.314 136.187 152.314C136.907 152.314 137.549 152.438 138.111 152.684C138.68 152.924 139.125 153.287 139.447 153.773C139.775 154.26 139.939 154.872 139.939 155.61V159.759C139.939 160.233 139.969 160.641 140.027 160.98C140.092 161.314 140.186 161.604 140.309 161.851V162H137.944C137.833 161.76 137.748 161.455 137.689 161.086C137.631 160.711 137.602 160.342 137.602 159.979ZM137.927 156.208L137.944 157.588H136.477C136.113 157.588 135.794 157.626 135.519 157.702C135.243 157.772 135.018 157.878 134.842 158.019C134.666 158.153 134.534 158.317 134.446 158.511C134.358 158.698 134.314 158.912 134.314 159.152C134.314 159.387 134.367 159.598 134.473 159.785C134.584 159.973 134.742 160.122 134.947 160.233C135.158 160.339 135.404 160.392 135.686 160.392C136.096 160.392 136.453 160.31 136.758 160.146C137.062 159.976 137.3 159.771 137.47 159.53C137.64 159.29 137.73 159.062 137.742 158.845L138.41 159.847C138.328 160.087 138.205 160.342 138.041 160.611C137.877 160.881 137.666 161.133 137.408 161.367C137.15 161.602 136.84 161.795 136.477 161.947C136.113 162.1 135.691 162.176 135.211 162.176C134.596 162.176 134.045 162.053 133.559 161.807C133.072 161.561 132.688 161.224 132.407 160.796C132.126 160.368 131.985 159.882 131.985 159.337C131.985 158.833 132.079 158.388 132.267 158.001C132.454 157.614 132.732 157.289 133.102 157.025C133.471 156.756 133.928 156.554 134.473 156.419C135.023 156.278 135.653 156.208 136.362 156.208H137.927ZM144.352 154.433V162H142.031V152.49H144.229L144.352 154.433ZM147.243 152.429L147.208 154.591C147.079 154.567 146.933 154.55 146.769 154.538C146.61 154.526 146.461 154.521 146.32 154.521C145.963 154.521 145.649 154.57 145.38 154.67C145.11 154.764 144.885 154.901 144.703 155.083C144.527 155.265 144.393 155.487 144.299 155.751C144.205 156.009 144.152 156.302 144.141 156.63L143.64 156.568C143.64 155.965 143.701 155.405 143.824 154.89C143.947 154.374 144.126 153.923 144.36 153.536C144.595 153.149 144.888 152.851 145.239 152.64C145.597 152.423 146.007 152.314 146.47 152.314C146.599 152.314 146.736 152.326 146.883 152.35C147.035 152.367 147.155 152.394 147.243 152.429ZM154.037 165.656V154.406L154.318 152.49H156.375V165.656H154.037ZM147.938 157.342V157.157C147.938 156.431 148.02 155.771 148.184 155.18C148.348 154.582 148.588 154.072 148.904 153.65C149.227 153.223 149.619 152.895 150.082 152.666C150.545 152.432 151.075 152.314 151.673 152.314C152.259 152.314 152.766 152.429 153.193 152.657C153.621 152.886 153.984 153.211 154.283 153.633C154.582 154.049 154.819 154.544 154.995 155.118C155.177 155.692 155.312 156.328 155.399 157.025V157.526C155.312 158.194 155.177 158.812 154.995 159.381C154.819 159.943 154.582 160.436 154.283 160.857C153.99 161.273 153.627 161.599 153.193 161.833C152.76 162.062 152.247 162.176 151.655 162.176C151.063 162.176 150.536 162.056 150.073 161.815C149.616 161.569 149.227 161.229 148.904 160.796C148.588 160.362 148.348 159.853 148.184 159.267C148.02 158.675 147.938 158.033 147.938 157.342ZM150.267 157.157V157.342C150.267 157.758 150.302 158.147 150.372 158.511C150.448 158.868 150.565 159.185 150.724 159.46C150.882 159.735 151.084 159.952 151.33 160.11C151.582 160.269 151.887 160.348 152.244 160.348C152.725 160.348 153.114 160.242 153.413 160.031C153.718 159.82 153.946 159.536 154.099 159.179C154.257 158.815 154.359 158.411 154.406 157.966V156.595C154.377 156.237 154.315 155.909 154.222 155.61C154.128 155.312 153.996 155.054 153.826 154.837C153.662 154.62 153.451 154.45 153.193 154.327C152.936 154.204 152.625 154.143 152.262 154.143C151.904 154.143 151.6 154.222 151.348 154.38C151.096 154.532 150.891 154.746 150.732 155.021C150.574 155.297 150.457 155.616 150.381 155.979C150.305 156.343 150.267 156.735 150.267 157.157ZM164.18 159.741V152.49H166.518V162H164.32L164.18 159.741ZM164.479 157.772L165.199 157.755C165.199 158.394 165.129 158.982 164.988 159.521C164.848 160.061 164.628 160.529 164.329 160.928C164.036 161.32 163.664 161.628 163.213 161.851C162.762 162.067 162.229 162.176 161.613 162.176C161.145 162.176 160.717 162.111 160.33 161.982C159.943 161.848 159.609 161.64 159.328 161.358C159.053 161.071 158.839 160.705 158.687 160.26C158.534 159.809 158.458 159.267 158.458 158.634V152.49H160.778V158.651C160.778 158.968 160.813 159.231 160.884 159.442C160.96 159.653 161.062 159.826 161.191 159.961C161.326 160.09 161.481 160.184 161.657 160.242C161.839 160.295 162.032 160.321 162.237 160.321C162.8 160.321 163.242 160.21 163.564 159.987C163.893 159.759 164.127 159.454 164.268 159.073C164.408 158.687 164.479 158.253 164.479 157.772ZM171.035 152.49V162H168.706V152.49H171.035ZM168.548 150.003C168.548 149.657 168.665 149.37 168.899 149.142C169.14 148.913 169.462 148.799 169.866 148.799C170.271 148.799 170.59 148.913 170.824 149.142C171.064 149.37 171.185 149.657 171.185 150.003C171.185 150.343 171.064 150.627 170.824 150.855C170.59 151.084 170.271 151.198 169.866 151.198C169.462 151.198 169.14 151.084 168.899 150.855C168.665 150.627 168.548 150.343 168.548 150.003ZM176.405 160.242L178.62 152.49H181.046L177.785 162H176.309L176.405 160.242ZM174.788 152.49L177.029 160.26L177.108 162H175.623L172.354 152.49H174.788ZM181.714 157.342V157.157C181.714 156.46 181.813 155.818 182.013 155.232C182.212 154.641 182.502 154.128 182.883 153.694C183.264 153.261 183.729 152.924 184.28 152.684C184.831 152.438 185.458 152.314 186.161 152.314C186.876 152.314 187.509 152.438 188.06 152.684C188.616 152.924 189.085 153.261 189.466 153.694C189.847 154.128 190.137 154.641 190.336 155.232C190.535 155.818 190.635 156.46 190.635 157.157V157.342C190.635 158.033 190.535 158.675 190.336 159.267C190.137 159.853 189.847 160.365 189.466 160.805C189.085 161.238 188.619 161.575 188.068 161.815C187.518 162.056 186.888 162.176 186.179 162.176C185.476 162.176 184.846 162.056 184.289 161.815C183.732 161.575 183.264 161.238 182.883 160.805C182.502 160.365 182.212 159.853 182.013 159.267C181.813 158.675 181.714 158.033 181.714 157.342ZM184.034 157.157V157.342C184.034 157.758 184.075 158.147 184.157 158.511C184.239 158.874 184.365 159.193 184.535 159.469C184.705 159.744 184.925 159.961 185.194 160.119C185.47 160.271 185.798 160.348 186.179 160.348C186.554 160.348 186.876 160.271 187.146 160.119C187.415 159.961 187.635 159.744 187.805 159.469C187.98 159.193 188.109 158.874 188.191 158.511C188.273 158.147 188.314 157.758 188.314 157.342V157.157C188.314 156.747 188.273 156.363 188.191 156.006C188.109 155.643 187.98 155.323 187.805 155.048C187.635 154.767 187.412 154.547 187.137 154.389C186.867 154.225 186.542 154.143 186.161 154.143C185.786 154.143 185.464 154.225 185.194 154.389C184.925 154.547 184.705 154.767 184.535 155.048C184.365 155.323 184.239 155.643 184.157 156.006C184.075 156.363 184.034 156.747 184.034 157.157Z"
                fill="black"
              />
              <path
                d="M75.4648 193.047H76.7432L80.0039 201.161L83.2578 193.047H84.543L80.4961 203H79.498L75.4648 193.047ZM75.0479 193.047H76.1758L76.3604 199.117V203H75.0479V193.047ZM83.8252 193.047H84.9531V203H83.6406V199.117L83.8252 193.047ZM91.4404 201.735V197.928C91.4404 197.636 91.3812 197.383 91.2627 197.169C91.1488 196.95 90.9756 196.782 90.7432 196.663C90.5107 196.545 90.2236 196.485 89.8818 196.485C89.5628 196.485 89.2826 196.54 89.041 196.649C88.804 196.759 88.6172 196.902 88.4805 197.08C88.3483 197.258 88.2822 197.449 88.2822 197.654H87.0176C87.0176 197.39 87.0859 197.128 87.2227 196.868C87.3594 196.608 87.5553 196.374 87.8105 196.164C88.0703 195.95 88.3802 195.781 88.7402 195.658C89.1048 195.531 89.5104 195.467 89.957 195.467C90.4948 195.467 90.9688 195.558 91.3789 195.74C91.7936 195.923 92.1172 196.198 92.3496 196.567C92.5866 196.932 92.7051 197.39 92.7051 197.941V201.387C92.7051 201.633 92.7256 201.895 92.7666 202.173C92.8122 202.451 92.8783 202.69 92.9648 202.891V203H91.6455C91.5817 202.854 91.5316 202.66 91.4951 202.419C91.4587 202.173 91.4404 201.945 91.4404 201.735ZM91.6592 198.516L91.6729 199.404H90.3945C90.0345 199.404 89.7132 199.434 89.4307 199.493C89.1481 199.548 88.9111 199.632 88.7197 199.746C88.5283 199.86 88.3825 200.004 88.2822 200.177C88.182 200.345 88.1318 200.544 88.1318 200.771C88.1318 201.004 88.1842 201.216 88.2891 201.407C88.3939 201.599 88.5511 201.751 88.7607 201.865C88.9749 201.975 89.237 202.029 89.5469 202.029C89.9342 202.029 90.276 201.947 90.5723 201.783C90.8685 201.619 91.1032 201.419 91.2764 201.182C91.4541 200.945 91.5498 200.715 91.5635 200.491L92.1035 201.1C92.0716 201.291 91.985 201.503 91.8438 201.735C91.7025 201.968 91.5133 202.191 91.2764 202.405C91.0439 202.615 90.766 202.79 90.4424 202.932C90.1234 203.068 89.7633 203.137 89.3623 203.137C88.861 203.137 88.4212 203.039 88.043 202.843C87.6693 202.647 87.3776 202.385 87.168 202.057C86.9629 201.724 86.8604 201.353 86.8604 200.942C86.8604 200.546 86.9378 200.197 87.0928 199.896C87.2477 199.591 87.471 199.338 87.7627 199.138C88.0544 198.933 88.4053 198.778 88.8154 198.673C89.2256 198.568 89.6836 198.516 90.1895 198.516H91.6592ZM89.3965 194.51L90.7227 192.5H92.2471L90.415 194.51H89.3965ZM95.5488 195.604L97.1689 198.297L98.8096 195.604H100.293L97.873 199.254L100.368 203H98.9053L97.1963 200.225L95.4873 203H94.0176L96.5059 199.254L94.0928 195.604H95.5488ZM103.014 195.604V203H101.742V195.604H103.014ZM101.646 193.642C101.646 193.437 101.708 193.263 101.831 193.122C101.959 192.981 102.146 192.91 102.392 192.91C102.633 192.91 102.818 192.981 102.945 193.122C103.077 193.263 103.144 193.437 103.144 193.642C103.144 193.838 103.077 194.006 102.945 194.147C102.818 194.284 102.633 194.353 102.392 194.353C102.146 194.353 101.959 194.284 101.831 194.147C101.708 194.006 101.646 193.838 101.646 193.642ZM106.302 197.073V203H105.03V195.604H106.233L106.302 197.073ZM106.042 199.021L105.454 199.001C105.459 198.495 105.525 198.028 105.652 197.6C105.78 197.167 105.969 196.791 106.22 196.472C106.47 196.153 106.783 195.907 107.156 195.733C107.53 195.556 107.963 195.467 108.455 195.467C108.801 195.467 109.12 195.517 109.412 195.617C109.704 195.713 109.957 195.866 110.171 196.075C110.385 196.285 110.551 196.554 110.67 196.882C110.788 197.21 110.848 197.606 110.848 198.071V203H109.583V198.133C109.583 197.745 109.517 197.436 109.385 197.203C109.257 196.971 109.075 196.802 108.838 196.697C108.601 196.588 108.323 196.533 108.004 196.533C107.63 196.533 107.318 196.599 107.067 196.731C106.817 196.864 106.616 197.046 106.466 197.278C106.315 197.511 106.206 197.777 106.138 198.078C106.074 198.374 106.042 198.689 106.042 199.021ZM110.834 198.324L109.986 198.584C109.991 198.178 110.057 197.789 110.185 197.415C110.317 197.041 110.506 196.709 110.752 196.417C111.003 196.125 111.31 195.895 111.675 195.727C112.039 195.553 112.456 195.467 112.926 195.467C113.322 195.467 113.673 195.519 113.979 195.624C114.288 195.729 114.548 195.891 114.758 196.109C114.972 196.324 115.134 196.599 115.243 196.937C115.353 197.274 115.407 197.675 115.407 198.14V203H114.136V198.126C114.136 197.711 114.07 197.39 113.938 197.162C113.81 196.93 113.628 196.768 113.391 196.677C113.158 196.581 112.88 196.533 112.557 196.533C112.279 196.533 112.033 196.581 111.818 196.677C111.604 196.772 111.424 196.905 111.278 197.073C111.132 197.237 111.021 197.426 110.943 197.641C110.87 197.855 110.834 198.083 110.834 198.324ZM116.986 199.384V199.227C116.986 198.693 117.064 198.199 117.219 197.743C117.374 197.283 117.597 196.884 117.889 196.547C118.18 196.205 118.534 195.941 118.948 195.754C119.363 195.562 119.828 195.467 120.343 195.467C120.862 195.467 121.329 195.562 121.744 195.754C122.163 195.941 122.519 196.205 122.811 196.547C123.107 196.884 123.332 197.283 123.487 197.743C123.642 198.199 123.72 198.693 123.72 199.227V199.384C123.72 199.917 123.642 200.411 123.487 200.867C123.332 201.323 123.107 201.722 122.811 202.063C122.519 202.401 122.166 202.665 121.751 202.856C121.341 203.043 120.876 203.137 120.356 203.137C119.837 203.137 119.37 203.043 118.955 202.856C118.54 202.665 118.185 202.401 117.889 202.063C117.597 201.722 117.374 201.323 117.219 200.867C117.064 200.411 116.986 199.917 116.986 199.384ZM118.251 199.227V199.384C118.251 199.753 118.294 200.102 118.381 200.43C118.467 200.753 118.597 201.04 118.771 201.291C118.948 201.542 119.169 201.74 119.434 201.886C119.698 202.027 120.006 202.098 120.356 202.098C120.703 202.098 121.006 202.027 121.266 201.886C121.53 201.74 121.749 201.542 121.922 201.291C122.095 201.04 122.225 200.753 122.312 200.43C122.403 200.102 122.448 199.753 122.448 199.384V199.227C122.448 198.862 122.403 198.518 122.312 198.194C122.225 197.866 122.093 197.577 121.915 197.326C121.742 197.071 121.523 196.87 121.259 196.725C120.999 196.579 120.694 196.506 120.343 196.506C119.996 196.506 119.691 196.579 119.427 196.725C119.167 196.87 118.948 197.071 118.771 197.326C118.597 197.577 118.467 197.866 118.381 198.194C118.294 198.518 118.251 198.862 118.251 199.227ZM132.798 192.992V203H131.533V194.571L128.983 195.501V194.359L132.6 192.992H132.798ZM140.734 193.047H142.013L145.273 201.161L148.527 193.047H149.812L145.766 203H144.768L140.734 193.047ZM140.317 193.047H141.445L141.63 199.117V203H140.317V193.047ZM149.095 193.047H150.223V203H148.91V199.117L149.095 193.047ZM156.088 198.345H153.565L153.552 197.285H155.842C156.22 197.285 156.55 197.221 156.833 197.094C157.116 196.966 157.334 196.784 157.489 196.547C157.649 196.305 157.729 196.018 157.729 195.686C157.729 195.321 157.658 195.025 157.517 194.797C157.38 194.564 157.168 194.396 156.881 194.291C156.598 194.182 156.238 194.127 155.801 194.127H153.859V203H152.54V193.047H155.801C156.311 193.047 156.767 193.099 157.168 193.204C157.569 193.304 157.909 193.464 158.187 193.683C158.469 193.897 158.683 194.17 158.829 194.503C158.975 194.836 159.048 195.234 159.048 195.699C159.048 196.109 158.943 196.481 158.733 196.813C158.524 197.142 158.232 197.41 157.858 197.62C157.489 197.83 157.056 197.964 156.56 198.023L156.088 198.345ZM156.026 203H153.046L153.791 201.927H156.026C156.446 201.927 156.801 201.854 157.093 201.708C157.389 201.562 157.615 201.357 157.77 201.093C157.924 200.824 158.002 200.507 158.002 200.143C158.002 199.773 157.936 199.454 157.804 199.186C157.672 198.917 157.464 198.709 157.182 198.563C156.899 198.418 156.535 198.345 156.088 198.345H154.208L154.222 197.285H156.792L157.072 197.668C157.551 197.709 157.956 197.846 158.289 198.078C158.622 198.306 158.875 198.598 159.048 198.953C159.226 199.309 159.314 199.701 159.314 200.129C159.314 200.749 159.178 201.273 158.904 201.701C158.635 202.125 158.255 202.449 157.763 202.672C157.271 202.891 156.692 203 156.026 203ZM81.1182 217.927V219H75.8477V217.927H81.1182ZM76.1143 209.047V219H74.7949V209.047H76.1143ZM80.4209 213.326V214.399H75.8477V213.326H80.4209ZM81.0498 209.047V210.127H75.8477V209.047H81.0498ZM83.415 211.604L85.0352 214.297L86.6758 211.604H88.1592L85.7393 215.254L88.2344 219H86.7715L85.0625 216.225L83.3535 219H81.8838L84.3721 215.254L81.959 211.604H83.415ZM92.6025 211.604V212.574H88.6035V211.604H92.6025ZM89.957 209.806H91.2217V217.168C91.2217 217.419 91.2604 217.608 91.3379 217.735C91.4154 217.863 91.5156 217.947 91.6387 217.988C91.7617 218.029 91.8939 218.05 92.0352 218.05C92.14 218.05 92.2493 218.041 92.3633 218.022C92.4818 218 92.5706 217.981 92.6299 217.968L92.6367 219C92.5365 219.032 92.4043 219.062 92.2402 219.089C92.0807 219.121 91.887 219.137 91.6592 219.137C91.3493 219.137 91.0645 219.075 90.8047 218.952C90.5449 218.829 90.3376 218.624 90.1826 218.337C90.0322 218.045 89.957 217.653 89.957 217.161V209.806ZM97.1553 219.137C96.6403 219.137 96.1732 219.05 95.7539 218.877C95.3392 218.699 94.9814 218.451 94.6807 218.132C94.3844 217.813 94.1566 217.435 93.9971 216.997C93.8376 216.56 93.7578 216.081 93.7578 215.562V215.274C93.7578 214.673 93.8467 214.137 94.0244 213.668C94.2021 213.194 94.4437 212.793 94.749 212.465C95.0544 212.137 95.4007 211.888 95.7881 211.72C96.1755 211.551 96.5765 211.467 96.9912 211.467C97.5199 211.467 97.9756 211.558 98.3584 211.74C98.7458 211.923 99.0625 212.178 99.3086 212.506C99.5547 212.829 99.737 213.212 99.8555 213.654C99.974 214.092 100.033 214.57 100.033 215.09V215.657H94.5098V214.625H98.7686V214.529C98.7503 214.201 98.682 213.882 98.5635 213.572C98.4495 213.262 98.2673 213.007 98.0166 212.807C97.766 212.606 97.4242 212.506 96.9912 212.506C96.7041 212.506 96.4398 212.567 96.1982 212.69C95.9567 212.809 95.7493 212.987 95.5762 213.224C95.403 213.461 95.2686 213.75 95.1729 214.092C95.0771 214.434 95.0293 214.828 95.0293 215.274V215.562C95.0293 215.912 95.0771 216.243 95.1729 216.553C95.2731 216.858 95.4167 217.127 95.6035 217.359C95.7949 217.592 96.0251 217.774 96.2939 217.906C96.5674 218.038 96.8773 218.104 97.2236 218.104C97.6702 218.104 98.0485 218.013 98.3584 217.831C98.6683 217.649 98.9395 217.405 99.1719 217.1L99.9375 217.708C99.778 217.95 99.5752 218.18 99.3291 218.398C99.083 218.617 98.7799 218.795 98.4199 218.932C98.0645 219.068 97.6429 219.137 97.1553 219.137ZM102.774 213.183V219H101.51V211.604H102.706L102.774 213.183ZM102.474 215.021L101.947 215.001C101.952 214.495 102.027 214.028 102.173 213.6C102.319 213.167 102.524 212.791 102.788 212.472C103.052 212.153 103.367 211.907 103.731 211.733C104.101 211.556 104.508 211.467 104.955 211.467C105.32 211.467 105.648 211.517 105.939 211.617C106.231 211.713 106.479 211.868 106.685 212.082C106.894 212.296 107.054 212.574 107.163 212.916C107.272 213.253 107.327 213.666 107.327 214.153V219H106.056V214.14C106.056 213.752 105.999 213.442 105.885 213.21C105.771 212.973 105.604 212.802 105.386 212.697C105.167 212.588 104.898 212.533 104.579 212.533C104.265 212.533 103.978 212.599 103.718 212.731C103.463 212.864 103.242 213.046 103.055 213.278C102.872 213.511 102.729 213.777 102.624 214.078C102.524 214.374 102.474 214.689 102.474 215.021ZM113.555 217.038C113.555 216.856 113.514 216.687 113.432 216.532C113.354 216.373 113.192 216.229 112.946 216.102C112.705 215.969 112.34 215.855 111.853 215.76C111.442 215.673 111.071 215.571 110.738 215.452C110.41 215.334 110.13 215.19 109.897 215.021C109.67 214.853 109.494 214.655 109.371 214.427C109.248 214.199 109.187 213.932 109.187 213.627C109.187 213.335 109.25 213.06 109.378 212.8C109.51 212.54 109.695 212.31 109.932 212.109C110.173 211.909 110.463 211.752 110.8 211.638C111.137 211.524 111.513 211.467 111.928 211.467C112.52 211.467 113.026 211.572 113.445 211.781C113.865 211.991 114.186 212.271 114.409 212.622C114.632 212.968 114.744 213.354 114.744 213.777H113.479C113.479 213.572 113.418 213.374 113.295 213.183C113.176 212.987 113.001 212.825 112.769 212.697C112.541 212.57 112.26 212.506 111.928 212.506C111.577 212.506 111.292 212.561 111.073 212.67C110.859 212.775 110.702 212.909 110.602 213.073C110.506 213.237 110.458 213.41 110.458 213.593C110.458 213.729 110.481 213.853 110.526 213.962C110.576 214.067 110.663 214.165 110.786 214.256C110.909 214.342 111.082 214.424 111.306 214.502C111.529 214.579 111.814 214.657 112.16 214.734C112.766 214.871 113.265 215.035 113.657 215.227C114.049 215.418 114.341 215.653 114.532 215.931C114.724 216.209 114.819 216.546 114.819 216.942C114.819 217.266 114.751 217.562 114.614 217.831C114.482 218.1 114.288 218.332 114.033 218.528C113.783 218.72 113.482 218.87 113.131 218.979C112.785 219.084 112.395 219.137 111.962 219.137C111.31 219.137 110.759 219.021 110.308 218.788C109.856 218.556 109.515 218.255 109.282 217.886C109.05 217.517 108.934 217.127 108.934 216.717H110.205C110.223 217.063 110.324 217.339 110.506 217.544C110.688 217.744 110.911 217.888 111.176 217.975C111.44 218.057 111.702 218.098 111.962 218.098C112.308 218.098 112.598 218.052 112.83 217.961C113.067 217.87 113.247 217.744 113.37 217.585C113.493 217.425 113.555 217.243 113.555 217.038ZM120.842 217.735V213.928C120.842 213.636 120.783 213.383 120.664 213.169C120.55 212.95 120.377 212.782 120.145 212.663C119.912 212.545 119.625 212.485 119.283 212.485C118.964 212.485 118.684 212.54 118.442 212.649C118.205 212.759 118.019 212.902 117.882 213.08C117.75 213.258 117.684 213.449 117.684 213.654H116.419C116.419 213.39 116.487 213.128 116.624 212.868C116.761 212.608 116.957 212.374 117.212 212.164C117.472 211.95 117.782 211.781 118.142 211.658C118.506 211.531 118.912 211.467 119.358 211.467C119.896 211.467 120.37 211.558 120.78 211.74C121.195 211.923 121.519 212.198 121.751 212.567C121.988 212.932 122.106 213.39 122.106 213.941V217.387C122.106 217.633 122.127 217.895 122.168 218.173C122.214 218.451 122.28 218.69 122.366 218.891V219H121.047C120.983 218.854 120.933 218.66 120.896 218.419C120.86 218.173 120.842 217.945 120.842 217.735ZM121.061 214.516L121.074 215.404H119.796C119.436 215.404 119.115 215.434 118.832 215.493C118.549 215.548 118.312 215.632 118.121 215.746C117.93 215.86 117.784 216.004 117.684 216.177C117.583 216.345 117.533 216.544 117.533 216.771C117.533 217.004 117.586 217.216 117.69 217.407C117.795 217.599 117.952 217.751 118.162 217.865C118.376 217.975 118.638 218.029 118.948 218.029C119.336 218.029 119.677 217.947 119.974 217.783C120.27 217.619 120.505 217.419 120.678 217.182C120.855 216.945 120.951 216.715 120.965 216.491L121.505 217.1C121.473 217.291 121.386 217.503 121.245 217.735C121.104 217.968 120.915 218.191 120.678 218.405C120.445 218.615 120.167 218.79 119.844 218.932C119.525 219.068 119.165 219.137 118.764 219.137C118.262 219.137 117.823 219.039 117.444 218.843C117.071 218.647 116.779 218.385 116.569 218.057C116.364 217.724 116.262 217.353 116.262 216.942C116.262 216.546 116.339 216.197 116.494 215.896C116.649 215.591 116.872 215.338 117.164 215.138C117.456 214.933 117.807 214.778 118.217 214.673C118.627 214.568 119.085 214.516 119.591 214.516H121.061ZM121.067 208.637L121.922 208.712C121.922 209.045 121.856 209.336 121.724 209.587C121.591 209.838 121.414 210.031 121.19 210.168C120.972 210.305 120.723 210.373 120.445 210.373C120.213 210.373 120.021 210.341 119.871 210.277C119.721 210.209 119.586 210.134 119.468 210.052C119.349 209.965 119.224 209.89 119.092 209.826C118.964 209.758 118.805 209.724 118.613 209.724C118.422 209.724 118.26 209.797 118.128 209.942C118 210.088 117.937 210.268 117.937 210.482L117.082 210.441C117.082 210.109 117.146 209.817 117.273 209.566C117.406 209.311 117.583 209.113 117.807 208.972C118.03 208.826 118.278 208.753 118.552 208.753C118.748 208.753 118.919 208.787 119.064 208.855C119.215 208.919 119.356 208.994 119.488 209.081C119.62 209.163 119.757 209.238 119.898 209.307C120.04 209.37 120.201 209.402 120.384 209.402C120.575 209.402 120.737 209.329 120.869 209.184C121.001 209.033 121.067 208.851 121.067 208.637ZM123.761 215.384V215.227C123.761 214.693 123.838 214.199 123.993 213.743C124.148 213.283 124.371 212.884 124.663 212.547C124.955 212.205 125.308 211.941 125.723 211.754C126.137 211.562 126.602 211.467 127.117 211.467C127.637 211.467 128.104 211.562 128.519 211.754C128.938 211.941 129.293 212.205 129.585 212.547C129.881 212.884 130.107 213.283 130.262 213.743C130.417 214.199 130.494 214.693 130.494 215.227V215.384C130.494 215.917 130.417 216.411 130.262 216.867C130.107 217.323 129.881 217.722 129.585 218.063C129.293 218.401 128.94 218.665 128.525 218.856C128.115 219.043 127.65 219.137 127.131 219.137C126.611 219.137 126.144 219.043 125.729 218.856C125.315 218.665 124.959 218.401 124.663 218.063C124.371 217.722 124.148 217.323 123.993 216.867C123.838 216.411 123.761 215.917 123.761 215.384ZM125.025 215.227V215.384C125.025 215.753 125.069 216.102 125.155 216.43C125.242 216.753 125.372 217.04 125.545 217.291C125.723 217.542 125.944 217.74 126.208 217.886C126.472 218.027 126.78 218.098 127.131 218.098C127.477 218.098 127.78 218.027 128.04 217.886C128.304 217.74 128.523 217.542 128.696 217.291C128.869 217.04 128.999 216.753 129.086 216.43C129.177 216.102 129.223 215.753 129.223 215.384V215.227C129.223 214.862 129.177 214.518 129.086 214.194C128.999 213.866 128.867 213.577 128.689 213.326C128.516 213.071 128.298 212.87 128.033 212.725C127.773 212.579 127.468 212.506 127.117 212.506C126.771 212.506 126.465 212.579 126.201 212.725C125.941 212.87 125.723 213.071 125.545 213.326C125.372 213.577 125.242 213.866 125.155 214.194C125.069 214.518 125.025 214.862 125.025 215.227ZM139.429 215.097H136.77V214.023H139.429C139.944 214.023 140.361 213.941 140.68 213.777C140.999 213.613 141.231 213.385 141.377 213.094C141.527 212.802 141.603 212.469 141.603 212.096C141.603 211.754 141.527 211.433 141.377 211.132C141.231 210.831 140.999 210.59 140.68 210.407C140.361 210.22 139.944 210.127 139.429 210.127H137.077V219H135.758V209.047H139.429C140.181 209.047 140.816 209.177 141.336 209.437C141.855 209.696 142.25 210.056 142.519 210.517C142.787 210.972 142.922 211.494 142.922 212.082C142.922 212.72 142.787 213.265 142.519 213.716C142.25 214.167 141.855 214.511 141.336 214.748C140.816 214.98 140.181 215.097 139.429 215.097ZM147.283 219H145.205L145.219 217.927H147.283C147.994 217.927 148.587 217.779 149.061 217.482C149.535 217.182 149.89 216.762 150.127 216.225C150.368 215.682 150.489 215.049 150.489 214.324V213.716C150.489 213.146 150.421 212.64 150.284 212.198C150.147 211.752 149.947 211.376 149.683 211.07C149.418 210.76 149.095 210.526 148.712 210.366C148.334 210.207 147.898 210.127 147.406 210.127H145.164V209.047H147.406C148.058 209.047 148.653 209.156 149.19 209.375C149.728 209.589 150.191 209.901 150.578 210.312C150.97 210.717 151.271 211.209 151.48 211.788C151.69 212.362 151.795 213.009 151.795 213.729V214.324C151.795 215.044 151.69 215.694 151.48 216.272C151.271 216.847 150.968 217.337 150.571 217.742C150.179 218.148 149.705 218.46 149.149 218.679C148.598 218.893 147.976 219 147.283 219ZM145.909 209.047V219H144.59V209.047H145.909ZM155.097 209.047V219H153.777V209.047H155.097ZM159.267 213.524V214.604H154.81V213.524H159.267ZM159.943 209.047V210.127H154.81V209.047H159.943Z"
                fill="black"
              />
              <rect
                x="0.5"
                y="0.5"
                width="233"
                height="245"
                rx="11.5"
                stroke="#002DD1"
                stroke-linecap="round"
                stroke-linejoin="round"
                stroke-dasharray="2 5"
              />
            </svg>