<svg width="58" height="52" viewBox="0 0 58 52" fill="none" xmlns="http://www.w3.org/2000/svg">
<path d="M0.183594 7.27999C0.183594 3.25936 3.44296 0 7.46359 0H50.5369C54.5576 0 57.8169 3.25937 57.8169 7.28V33.67C57.8169 37.6906 54.5576 40.95 50.5369 40.95H7.4636C3.44296 40.95 0.183594 37.6906 0.183594 33.67V7.27999Z" fill="url(#paint0_linear_3251_11485)"/>
<path opacity="0.7" fill-rule="evenodd" clip-rule="evenodd" d="M7.4638 40.9499H50.5371C52.5181 40.9499 54.3143 40.1586 55.6269 38.8749L34.0073 18.3931C31.1994 15.7331 26.8016 15.733 23.9937 18.3931L2.37402 38.8749C3.68661 40.1586 5.48281 40.9499 7.4638 40.9499Z" fill="url(#paint1_linear_3251_11485)"/>
<path opacity="0.5" fill-rule="evenodd" clip-rule="evenodd" d="M50.5366 0H7.46327C4.68411 0 2.26867 1.55729 1.04199 3.84686L23.9932 25.5901C26.801 28.2502 31.1989 28.2502 34.0067 25.5901L56.9579 3.84686C55.7312 1.5573 53.3158 0 50.5366 0Z" fill="url(#paint2_linear_3251_11485)"/>
<path fill-rule="evenodd" clip-rule="evenodd" d="M50.5371 0H7.4638C5.4828 0 3.68661 0.791247 2.37402 2.07494L23.9937 22.5567C26.8016 25.2168 31.1994 25.2168 34.0073 22.5567L55.6269 2.07495C54.3143 0.791248 52.5181 0 50.5371 0Z" fill="url(#paint3_linear_3251_11485)"/>
<path fill-rule="evenodd" clip-rule="evenodd" d="M14.0867 44.0556C13.4096 43.3785 13.1839 42.25 13.1839 42.25C13.1839 42.25 12.9582 43.3785 12.2811 44.0556C11.6041 44.7326 10.4756 44.9583 10.4756 44.9583C10.4756 44.9583 11.6041 45.184 12.2811 45.8611C12.9582 46.5382 13.1839 47.6667 13.1839 47.6667C13.1839 47.6667 13.4096 46.5382 14.0867 45.8611C14.7638 45.184 15.8923 44.9583 15.8923 44.9583C15.8923 44.9583 14.7638 44.7326 14.0867 44.0556Z" fill="url(#paint4_linear_3251_11485)"/>
<path fill-rule="evenodd" clip-rule="evenodd" d="M39.0027 27.2639C38.3256 26.5868 38.0999 25.4584 38.0999 25.4584C38.0999 25.4584 37.8742 26.5868 37.1972 27.2639C36.5201 27.941 35.3916 28.1667 35.3916 28.1667C35.3916 28.1667 36.5201 28.3924 37.1972 29.0695C37.8742 29.7466 38.0999 30.875 38.0999 30.875C38.0999 30.875 38.3256 29.7466 39.0027 29.0695C39.6798 28.3924 40.8083 28.1667 40.8083 28.1667C40.8083 28.1667 39.6798 27.941 39.0027 27.2639Z" fill="white"/>
<path d="M19.6836 29.5209C19.6836 29.9696 19.3198 30.3334 18.8711 30.3334C18.4224 30.3334 18.0586 29.9696 18.0586 29.5209C18.0586 29.0721 18.4224 28.7084 18.8711 28.7084C19.3198 28.7084 19.6836 29.0721 19.6836 29.5209Z" fill="white"/>
<path d="M41.8916 51.1875C41.8916 51.6362 41.5278 52 41.0791 52C40.6304 52 40.2666 51.6362 40.2666 51.1875C40.2666 50.7388 40.6304 50.375 41.0791 50.375C41.5278 50.375 41.8916 50.7388 41.8916 51.1875Z" fill="#09E1A3"/>
<defs>
<linearGradient id="paint0_linear_3251_11485" x1="0.183594" y1="0" x2="0.183594" y2="40.95" gradientUnits="userSpaceOnUse">
<stop stop-color="#F17ED1"/>
<stop offset="1" stop-color="#AB30AD"/>
</linearGradient>
<linearGradient id="paint1_linear_3251_11485" x1="2.37404" y1="16.3981" x2="2.37404" y2="40.9499" gradientUnits="userSpaceOnUse">
<stop stop-color="#E11B9E"/>
<stop offset="1" stop-color="#872897"/>
</linearGradient>
<linearGradient id="paint2_linear_3251_11485" x1="1.04201" y1="-4.53555e-06" x2="1.04201" y2="27.5851" gradientUnits="userSpaceOnUse">
<stop stop-color="#E11B9E"/>
<stop offset="1" stop-color="#872897"/>
</linearGradient>
<linearGradient id="paint3_linear_3251_11485" x1="2.37402" y1="0" x2="2.37402" y2="24.5518" gradientUnits="userSpaceOnUse">
<stop stop-color="#FA9AD3"/>
<stop offset="1" stop-color="#D333C3"/>
</linearGradient>
<linearGradient id="paint4_linear_3251_11485" x1="10.4756" y1="42.25" x2="10.4756" y2="47.6667" gradientUnits="userSpaceOnUse">
<stop stop-color="#FFB6FF"/>
<stop offset="1" stop-color="#D333C3"/>
</linearGradient>
</defs>
</svg>
