<svg width="32" height="36" viewBox="0 0 32 36" fill="none" xmlns="http://www.w3.org/2000/svg">

<path d="M24.2029 0.0986328L31.9018 8.04397V35.9014H3.1416V36H32.0001V8.14397L24.2029 0.0986328Z" fill="#909090"/>

<path d="M24.107 0H3.04297V35.9014H31.9014V8.04534L24.107 0Z" fill="#F4F4F4"/>

<path d="M7.23816 13.2864H0V24.599H29.8398V13.2864H7.23816Z" fill="#7A7B7C"/>

<path d="M29.8398 24.599H0V13.2864H29.8398V24.599Z" fill="#DD2025"/>

<path d="M8.94659 15.197H6.73828V23.1767H8.48195V20.4869L8.86718 20.5085C9.23985 20.5022 9.60903 20.4365 9.96035 20.314C10.2683 20.2097 10.5517 20.0451 10.7933 19.8302C11.0373 19.6249 11.2294 19.3665 11.3543 19.0755C11.5237 18.5909 11.5843 18.0759 11.5317 17.566C11.5211 17.2018 11.4562 16.841 11.3391 16.4954C11.2324 16.2459 11.0741 16.0209 10.8743 15.8349C10.6744 15.6489 10.4374 15.5058 10.1783 15.4148C9.95325 15.3342 9.72064 15.2758 9.48388 15.2403C9.3055 15.2132 9.12538 15.1987 8.9449 15.197M8.62556 19.0106H8.47519V16.5503H8.80297C8.94689 16.54 9.09131 16.5618 9.22554 16.6139C9.35977 16.6659 9.4804 16.747 9.5785 16.8512C9.78179 17.1188 9.89039 17.4446 9.88769 17.7788C9.88769 18.1877 9.88769 18.5585 9.5126 18.8195C9.24238 18.9657 8.9348 19.0315 8.62725 19.009M14.8281 15.1754C14.6405 15.1754 14.4581 15.1887 14.3297 15.1937L13.9326 15.2037H12.6147V23.1833H14.1658C14.7585 23.1993 15.3487 23.1004 15.9027 22.8924C16.3486 22.7184 16.7434 22.4378 17.0516 22.0761C17.3513 21.7112 17.5663 21.2862 17.6818 20.831C17.8146 20.3154 17.8793 19.7852 17.8744 19.2533C17.9072 18.6252 17.8578 17.9955 17.7274 17.3798C17.6037 16.9266 17.3721 16.5088 17.0516 16.1612C16.8002 15.8806 16.4924 15.6542 16.1477 15.4963C15.8516 15.3615 15.5402 15.2621 15.2201 15.2004C15.0928 15.1797 14.9638 15.1702 14.8348 15.1721M14.5273 21.717H14.3584V16.6234H14.3803C14.7287 16.584 15.0811 16.6458 15.3941 16.8013C15.6233 16.9814 15.8101 17.2082 15.9415 17.4662C16.0834 17.7378 16.1651 18.0358 16.1815 18.3407C16.1967 18.7064 16.1815 19.0056 16.1815 19.2533C16.1883 19.5387 16.1697 19.8241 16.1257 20.1062C16.0736 20.3958 15.9774 20.676 15.8402 20.9374C15.6849 21.1803 15.4751 21.3851 15.2268 21.5358C15.0184 21.6685 14.7715 21.7304 14.524 21.7121M23.1021 15.2037H18.9963V23.1833H20.7332V20.0181H22.9297V18.5352H20.7332V16.6866H23.0987V15.2037" fill="white"/>

<path d="M24.001 0.105469V8.15081H31.7954L24.001 0.105469Z" fill="#909090"/>

<path d="M24.1064 0V8.04534H31.9008L24.1064 0Z" fill="#F4F4F4"/>

</svg>