<svg width="22" height="22" viewBox="0 0 22 22" fill="none" xmlns="http://www.w3.org/2000/svg">

<path d="M20.2934 12.8499L20.2942 12.8499C20.407 12.8497 20.5187 12.8719 20.6228 12.9151C20.7269 12.9583 20.8215 13.0218 20.901 13.1017C20.9805 13.1817 21.0434 13.2766 21.086 13.381C21.1286 13.4852 21.1501 13.5968 21.1494 13.7094M20.2934 12.8499L20.9994 13.7089M20.2934 12.8499L17.2615 12.8709L17.2604 12.8709C17.0339 12.8741 16.8178 12.9671 16.6598 13.1294C16.502 13.2916 16.4149 13.5096 16.4176 13.7358M20.2934 12.8499L19.4495 16.3076M21.1494 13.7094C21.1494 13.7096 21.1494 13.7097 21.1494 13.7099L20.9994 13.7089M21.1494 13.7094V13.7089H20.9994M21.1494 13.7094V16.9123M20.9994 13.7089V16.9128M21.1494 16.9123C21.1494 16.9121 21.1494 16.9119 21.1494 16.9117L20.9994 16.9128M21.1494 16.9123V16.9128H20.9994M21.1494 16.9123C21.1501 17.0243 21.1288 17.1354 21.0866 17.2392L20.9477 17.1828L21.0866 17.2392C21.0444 17.3432 20.982 17.4379 20.9032 17.5178C20.8243 17.5976 20.7305 17.6612 20.627 17.7048C20.5236 17.7483 20.4125 17.7711 20.3003 17.7717L20.2986 17.7718C20.1863 17.7711 20.0753 17.7483 19.9719 17.7048C19.8684 17.6612 19.7746 17.5976 19.6957 17.5178C19.6169 17.4379 19.5545 17.3432 19.5123 17.2392L19.6512 17.1828L20.9994 16.9128M19.4495 16.3076V16.9123V16.9128V16.3076ZM19.4495 16.3076C17.5511 19.1675 14.2781 21.1496 10.7567 21.1496C6.2798 21.1496 2.53126 18.3857 0.907902 14.1384C0.826564 13.927 0.831743 13.692 0.92233 13.4843C1.01297 13.2765 1.18181 13.1128 1.3923 13.0286L1.3933 13.0282C1.83198 12.8564 2.32467 13.0776 2.49403 13.5191L2.49409 13.5193C3.87377 17.1282 7.00925 19.4327 10.7567 19.4327C13.9817 19.4327 17.0093 17.3947 18.4975 14.5805L17.2736 14.5888L17.2727 14.5888C17.1605 14.589 17.0493 14.567 16.9456 14.5242C16.8418 14.4813 16.7475 14.4185 16.6681 14.3391C16.5887 14.2598 16.5257 14.1656 16.4827 14.0619C16.4398 13.9586 16.4177 13.8477 16.4176 13.7358M16.4176 13.7358C16.4176 13.7361 16.4176 13.7365 16.4176 13.7368L16.5676 13.7349H16.4176C16.4176 13.7352 16.4176 13.7355 16.4176 13.7358ZM2.54998 5.69225C4.44833 2.83243 7.72129 0.850244 11.2427 0.850244H11.2447C15.7195 0.850244 19.469 3.61406 21.0924 7.86112C21.1739 8.07267 21.1687 8.3078 21.0781 8.51559C20.9875 8.72338 20.8186 8.88709 20.6081 8.97128L20.6069 8.97176C20.5024 9.01252 20.3908 9.03211 20.2786 9.02939C20.1665 9.02667 20.056 9.00169 19.9535 8.9559C19.8511 8.91011 19.7588 8.84443 19.682 8.76266C19.6053 8.68103 19.5455 8.58499 19.5062 8.48011C18.1264 4.87152 14.991 2.5672 11.2437 2.5672C8.01871 2.5672 4.99114 4.60515 3.50292 7.41937L4.72689 7.41105L4.72769 7.41105C4.83994 7.41089 4.95112 7.43286 5.05487 7.4757C5.15862 7.51855 5.2529 7.58143 5.33233 7.66074C5.41176 7.74006 5.47477 7.83425 5.51776 7.93794C5.56063 8.04133 5.58276 8.15214 5.58288 8.26406M2.54998 5.69225L0.850022 8.28996C0.85002 8.29015 0.850019 8.29033 0.850018 8.29052M2.54998 5.69225V5.08712C2.54998 4.61396 2.17049 4.22814 1.7 4.22814C1.22837 4.22814 0.850018 4.6141 0.850018 5.08712V8.29052M2.54998 5.69225L0.850018 8.29052M5.58288 8.26406C5.58554 8.49027 5.49843 8.70833 5.34062 8.87045C5.18259 9.03281 4.96657 9.12579 4.74002 9.12899L4.73894 9.129L1.70604 9.15L1.70521 9.15001C1.59245 9.15017 1.48078 9.128 1.37663 9.08477C1.27248 9.04155 1.17793 8.97813 1.09842 8.89817C1.01891 8.81821 0.956026 8.7233 0.913392 8.61891C0.870829 8.51469 0.849292 8.40309 0.850018 8.29052M5.58288 8.26406C5.58288 8.26374 5.58288 8.26342 5.58287 8.2631L5.43288 8.26503H5.58288C5.58288 8.2647 5.58288 8.26438 5.58288 8.26406Z" fill="#002DD1" stroke="#002DD1" stroke-width="0.3"/>

</svg>