<svg width="308" height="369" viewBox="0 0 308 369" fill="none" xmlns="http://www.w3.org/2000/svg">
<mask id="mask0_3763_11391" style="mask-type:luminance" maskUnits="userSpaceOnUse" x="18" y="46" width="253" height="246">
<path fill-rule="evenodd" clip-rule="evenodd" d="M18.9473 46.7595H270.251V291.698H18.9473V46.7595Z" fill="white"/>
</mask>
<g mask="url(#mask0_3763_11391)">
<path fill-rule="evenodd" clip-rule="evenodd" d="M229.47 49.641C173.314 31.6192 155.713 103.556 130.153 115.213C104.593 126.87 71.5147 72.7878 31.5659 110.113C-0.670305 140.233 33.1122 214.256 84.8765 257.285C106.989 275.667 129.989 293.64 156.443 291.529C211.214 287.157 333.9 83.1557 229.47 49.641Z" fill="white"/>
</g>
<path fill-rule="evenodd" clip-rule="evenodd" d="M118.494 71.3229C111.643 71.3229 106.089 76.8683 106.089 83.7084C106.089 90.5484 111.643 96.0938 118.494 96.0938C125.346 96.0938 130.9 90.5484 130.9 83.7084C130.9 76.8683 125.346 71.3229 118.494 71.3229Z" fill="white"/>
<path fill-rule="evenodd" clip-rule="evenodd" d="M12.6369 217.384C6.74133 223.189 6.926 236.472 15.2107 244.977C23.4969 253.482 36.7459 253.989 42.6408 248.184C48.5364 242.379 42.4244 234.054 34.9699 224.781C26.1161 213.769 18.5318 211.579 12.6369 217.384Z" fill="white"/>
<path fill-rule="evenodd" clip-rule="evenodd" d="M285.819 134.319C277.85 137.187 283.471 143.736 279.786 160.11C276.767 173.525 259.97 186.306 269.66 192.665C277.411 197.754 295.48 183.79 299.602 163.682C302.972 147.243 291.337 132.333 285.819 134.319Z" fill="white"/>
<rect opacity="0.1" x="23.9551" y="82" width="260.089" height="47.8333" rx="10" fill="url(#paint0_radial_3763_11391)"/>
<g filter="url(#filter0_b_3763_11391)">
<rect x="23.9551" y="82" width="260.089" height="47.8333" rx="10" fill="white" fill-opacity="0.498033"/>
<rect x="24.4551" y="82.5" width="259.089" height="46.8333" rx="9.5" stroke="#00B1FF" stroke-opacity="0.138385"/>
</g>
<path fill-rule="evenodd" clip-rule="evenodd" d="M58.1769 101.219C58.1769 98.1524 55.6871 95.6667 52.6158 95.6667C49.5445 95.6667 47.0547 98.1524 47.0547 101.219C47.0547 104.285 49.5445 106.771 52.6158 106.771C55.6871 106.771 58.1769 104.285 58.1769 101.219ZM48.338 101.219C48.338 98.8601 50.2532 96.9479 52.6158 96.9479C54.9783 96.9479 56.8936 98.8601 56.8936 101.219C56.8936 103.577 54.9783 105.49 52.6158 105.49C50.2532 105.49 48.338 103.577 48.338 101.219Z" fill="#0B64E0"/>
<path fill-rule="evenodd" clip-rule="evenodd" d="M44.054 100.705C44.0115 100.392 43.7431 100.151 43.4182 100.151C43.0638 100.151 42.7765 100.438 42.7765 100.792V101.444C41.8141 101.55 41.0654 102.365 41.0654 103.354C41.0654 104.416 41.9273 105.276 42.9904 105.276H43.846L43.9331 105.282C44.2463 105.324 44.4877 105.592 44.4877 105.917C44.4877 106.27 44.2004 106.557 43.846 106.557H41.7071L41.62 106.563C41.3068 106.606 41.0654 106.874 41.0654 107.198C41.0654 107.552 41.3527 107.839 41.7071 107.839H42.7765V108.479L42.7824 108.566C42.8249 108.879 43.0934 109.12 43.4182 109.12C43.7726 109.12 44.0599 108.833 44.0599 108.479V107.827C45.0224 107.721 45.771 106.906 45.771 105.917C45.771 104.855 44.9091 103.995 43.846 103.995H42.9904L42.9034 103.989C42.5902 103.947 42.3488 103.679 42.3488 103.354C42.3488 103 42.636 102.714 42.9904 102.714H43.4176C43.4178 102.714 43.418 102.714 43.4182 102.714C43.4184 102.714 43.4186 102.714 43.4188 102.714H45.1293L45.2164 102.708C45.5296 102.665 45.771 102.397 45.771 102.073C45.771 101.719 45.4837 101.432 45.1293 101.432H44.0599V100.792L44.054 100.705Z" fill="#0B64E0"/>
<rect x="41.0654" y="110.188" width="1.28333" height="3.41667" rx="0.641667" fill="#0B64E0"/>
<rect x="48.7656" y="110.188" width="1.28333" height="3.41667" rx="0.641667" fill="#0B64E0"/>
<rect x="46.1992" y="110.188" width="1.28333" height="2.5625" rx="0.641667" fill="#0B64E0"/>
<rect x="43.6318" y="110.188" width="1.28333" height="2.5625" rx="0.641667" fill="#0B64E0"/>
<path d="M45.3435 97.5886C45.6979 97.5886 45.9852 97.8754 45.9852 98.2292C45.9852 98.5535 45.7438 98.8215 45.4306 98.864L45.3435 98.8698H39.7824C39.4576 98.8698 39.1891 99.1108 39.1466 99.4235L39.1408 99.5104V114.031C39.1408 114.356 39.3822 114.624 39.6954 114.666L39.7824 114.672H50.9046C51.2295 114.672 51.498 114.431 51.5405 114.118L51.5463 114.031V109.081C51.5463 108.727 51.8336 108.44 52.188 108.44C52.5128 108.44 52.7813 108.681 52.8238 108.994L52.8296 109.081V114.031C52.8296 115.048 52.0381 115.881 51.0364 115.949L50.9046 115.953H39.7824C38.7636 115.953 37.9296 115.163 37.8619 114.163L37.8574 114.031V99.5104C37.8574 98.4932 38.6489 97.6606 39.6506 97.593L39.7824 97.5886H45.3435Z" fill="#0B64E0"/>
<path d="M54.3266 100.578C54.681 100.578 54.9683 100.865 54.9683 101.219C54.9683 101.543 54.7269 101.811 54.4137 101.854L54.3266 101.859H50.9044C50.55 101.859 50.2627 101.573 50.2627 101.219C50.2627 100.894 50.5041 100.626 50.8173 100.584L50.9044 100.578H54.3266Z" fill="#0B64E0"/>
<rect opacity="0.2" x="71.8662" y="102.5" width="43.6333" height="6.83333" rx="3.41667" fill="#009EE3"/>
<rect opacity="0.2" x="120.633" y="102.5" width="72.7222" height="6.83333" rx="3.41667" fill="#009EE3"/>
<rect opacity="0.2" x="258.377" y="102.5" width="11.9778" height="6.83333" rx="3.41667" fill="#009EE3"/>
<rect opacity="0.2" x="23.9551" y="136.667" width="260.089" height="47.8333" rx="10" fill="url(#paint1_radial_3763_11391)"/>
<g filter="url(#filter1_b_3763_11391)">
<rect x="23.9551" y="136.667" width="260.089" height="47.8333" rx="10" fill="white" fill-opacity="0.498033"/>
<rect x="24.4551" y="137.167" width="259.089" height="46.8333" rx="9.5" stroke="#00B1FF" stroke-opacity="0.14"/>
</g>
<g opacity="0.7">
<rect opacity="0.2" x="23.9551" y="191" width="260.089" height="47.8333" rx="10" fill="#009EE3"/>
<g filter="url(#filter2_b_3763_11391)">
<rect x="23.9551" y="191" width="260.089" height="47.8333" rx="10" fill="white" fill-opacity="0.498033"/>
<rect x="24.4551" y="191.5" width="259.089" height="46.8333" rx="9.5" stroke="#00B1FF" stroke-opacity="0.14"/>
</g>
<path fill-rule="evenodd" clip-rule="evenodd" d="M56.8656 212.699L50.98 206.823C50.6932 206.537 50.3182 206.393 49.9396 206.393C49.5609 206.393 49.186 206.537 48.8992 206.823L39.0359 216.674C38.4624 217.243 38.4624 218.179 39.0359 218.751L39.7124 219.426C38.9918 219.676 38.4845 220.37 38.5139 221.181C38.5507 222.142 39.3631 222.895 40.3263 222.895H51.9578C52.9431 222.895 53.7408 222.098 53.7408 221.111C53.7408 220.238 53.1085 219.507 52.2777 219.357L56.8656 214.776C57.4391 214.204 57.4391 213.268 56.8656 212.699ZM40.2969 221.753C39.9145 221.753 39.6021 221.434 39.6168 221.049C39.6315 220.682 39.944 220.395 40.3153 220.395H40.716L42.0762 221.753H40.2969ZM49.8403 221.753H51.9358C52.3071 221.753 52.6195 221.467 52.6343 221.1C52.649 220.715 52.3365 220.395 51.9542 220.395H51.2005L49.8403 221.753ZM56.0642 213.98L50.7373 219.298L49.6381 220.395L48.2779 221.753H43.6496L43.2599 221.364L42.2894 220.395L41.1902 219.298L39.8337 217.944C39.7418 217.852 39.7271 217.742 39.7271 217.683C39.7271 217.624 39.7418 217.518 39.8337 217.422L49.6786 207.605C49.7705 207.513 49.8808 207.498 49.9396 207.498C49.9984 207.498 50.105 207.513 50.2006 207.605L56.0678 213.462C56.1597 213.554 56.1744 213.664 56.1744 213.723C56.1708 213.778 56.1561 213.888 56.0642 213.98ZM46.881 214.717L50.73 210.878C50.8733 210.735 50.8733 210.5 50.7263 210.357C50.5829 210.214 50.3513 210.214 50.208 210.357L46.359 214.196C46.2156 214.343 46.2156 214.574 46.359 214.717C46.4325 214.787 46.5244 214.824 46.62 214.824C46.7155 214.824 46.8111 214.791 46.881 214.717ZM47.5317 219.592L47.9765 220.036C48.0794 220.138 48.1235 220.278 48.1015 220.414C48.0905 220.513 48.0463 220.608 47.9691 220.685C47.8809 220.777 47.7633 220.821 47.6456 220.821C47.528 220.821 47.4104 220.773 47.3221 220.685L47.0501 220.414L46.8847 220.249L46.7192 220.414L46.3479 220.784C46.256 220.876 46.1384 220.92 46.0207 220.92C45.9031 220.92 45.7855 220.872 45.6972 220.784C45.5943 220.685 45.5502 220.546 45.5649 220.414C45.5759 220.315 45.62 220.216 45.6972 220.138L46.5207 219.313L46.7854 219.045C46.9766 218.854 46.9766 218.546 46.7854 218.355C46.6935 218.263 46.5722 218.212 46.4435 218.212C46.3148 218.212 46.1935 218.263 46.1016 218.355L45.6789 218.777C45.5318 218.92 45.3627 219.03 45.1752 219.1C45.0208 219.158 44.8554 219.188 44.6863 219.188C44.5503 219.188 44.4179 219.17 44.2929 219.133C44.0687 219.067 43.8628 218.946 43.6937 218.777C43.1864 218.267 43.1496 217.463 43.5871 216.912L43.1423 216.468C42.9621 216.288 42.9621 215.998 43.1423 215.819C43.3224 215.639 43.6128 215.639 43.793 215.819L44.2378 216.252L44.7929 215.694C44.973 215.514 45.2634 215.514 45.4436 215.694C45.6237 215.874 45.6237 216.164 45.4436 216.343L44.3517 217.437C44.1606 217.628 44.1606 217.936 44.3517 218.127C44.4436 218.219 44.565 218.27 44.6936 218.27C44.8223 218.27 44.9436 218.219 45.0355 218.127L45.4583 217.705C45.723 217.441 46.0759 217.294 46.4509 217.294C46.6383 217.294 46.8185 217.331 46.9876 217.4C47.1567 217.47 47.3111 217.573 47.4434 217.705C47.7964 218.057 47.9213 218.553 47.8184 219.008C47.7927 219.111 47.7596 219.214 47.7118 219.309C47.664 219.408 47.6052 219.503 47.5317 219.592ZM52.2372 212.383L48.3882 216.222C48.3184 216.292 48.2228 216.329 48.1272 216.329C48.0316 216.329 47.9397 216.292 47.8662 216.222C47.7228 216.079 47.7228 215.848 47.8662 215.701L51.7115 211.862C51.8549 211.719 52.0865 211.719 52.2335 211.862C52.3806 212.005 52.3806 212.24 52.2372 212.383Z" fill="#0B64E0"/>
<rect opacity="0.2" x="71.8662" y="211.5" width="52.1889" height="6.83333" rx="3.41667" fill="#009EE3"/>
<rect opacity="0.2" x="128.333" y="211.5" width="25.6667" height="6.83333" rx="3.41667" fill="#009EE3"/>
<rect opacity="0.2" x="159.133" y="211.5" width="35.9333" height="6.83333" rx="3.41667" fill="#009EE3"/>
<rect opacity="0.2" x="258.377" y="211.5" width="11.9778" height="6.83333" rx="3.41667" fill="#009EE3"/>
</g>
<g opacity="0.25">
<rect opacity="0.2" x="23.9551" y="245.667" width="260.089" height="47.8333" rx="10" fill="#009EE3"/>
<g filter="url(#filter3_b_3763_11391)">
<rect x="23.9551" y="245.667" width="260.089" height="47.8333" rx="10" fill="white" fill-opacity="0.498033"/>
<rect x="24.4551" y="246.167" width="259.089" height="46.8333" rx="9.5" stroke="#00B1FF" stroke-opacity="0.14"/>
</g>
<path fill-rule="evenodd" clip-rule="evenodd" d="M57.0165 275.533L50.9315 269.458L51.9076 268.028C52.1728 268.234 52.4933 268.337 52.81 268.337C53.1858 268.337 53.5651 268.193 53.8524 267.906L54.4934 267.267C55.0643 266.693 55.0643 265.759 54.4934 265.185L49.9149 260.618C49.6313 260.331 49.2519 260.188 48.8762 260.188C48.5005 260.188 48.1211 260.331 47.8338 260.618L47.1928 261.258C46.6477 261.798 46.6219 262.67 47.1081 263.247L45.4543 264.369C44.3677 265.108 43.4284 266.042 42.688 267.13L41.5646 268.782C41.292 268.554 40.9532 268.436 40.6143 268.436C40.2386 268.436 39.8592 268.579 39.5719 268.866L38.931 269.506C38.3563 270.08 38.3563 271.014 38.931 271.588L43.5058 276.155C43.7931 276.442 44.1688 276.585 44.5482 276.585C44.9275 276.585 45.3033 276.442 45.5906 276.155L46.2315 275.515C46.7619 274.985 46.8024 274.147 46.353 273.573L47.7859 272.599L53.8709 278.674C54.0624 278.865 54.3166 278.961 54.567 278.961C54.8175 278.961 55.0717 278.865 55.2632 278.674L57.0128 276.927C57.4033 276.541 57.4033 275.92 57.0165 275.533ZM47.9737 262.556C47.8816 262.464 47.8669 262.354 47.8669 262.295C47.8669 262.236 47.8816 262.126 47.9737 262.034L48.6146 261.394C48.7067 261.302 48.8172 261.287 48.8762 261.287C48.9351 261.287 49.0456 261.302 49.1377 261.394L53.7125 265.961C53.8046 266.053 53.8193 266.163 53.8193 266.222C53.8193 266.281 53.8046 266.391 53.7125 266.483L53.0716 267.123C52.9795 267.215 52.869 267.23 52.81 267.23C52.7511 267.23 52.6406 267.215 52.5485 267.123L52.5301 267.105L48.0327 262.615L47.9737 262.556ZM45.4506 274.213C45.5427 274.305 45.5574 274.415 45.5574 274.474C45.5574 274.533 45.5427 274.643 45.4506 274.735L44.8097 275.375C44.7176 275.467 44.6071 275.482 44.5482 275.482C44.4892 275.482 44.3787 275.467 44.2866 275.375L39.7118 270.804C39.6198 270.712 39.605 270.602 39.605 270.543C39.605 270.484 39.6198 270.374 39.7118 270.282L40.3528 269.642C40.4448 269.55 40.5553 269.536 40.6143 269.536C40.6732 269.536 40.7837 269.55 40.8758 269.642L40.9347 269.701L45.4322 274.191L45.4506 274.213ZM45.5685 272.772L42.3639 269.572L43.6052 267.752C44.2682 266.777 45.1007 265.946 46.0768 265.284L47.9001 264.045L51.1046 267.244L49.8633 269.065C49.2003 270.039 48.3679 270.87 47.3918 271.532L45.5685 272.772ZM54.5707 277.81L48.6994 271.948L48.692 271.941C48.7288 271.911 48.762 271.882 48.7988 271.852H48.8025C49.0088 271.679 49.2114 271.503 49.4029 271.315C49.7123 271.018 50.0033 270.698 50.2722 270.363L50.298 270.389L56.1509 276.232L54.5707 277.81Z" fill="#0B64E0"/>
<rect opacity="0.2" x="71.8662" y="266.167" width="35.9333" height="6.83333" rx="3.41667" fill="#009EE3"/>
<rect opacity="0.2" x="112.933" y="266.167" width="50.4778" height="6.83333" rx="3.41667" fill="#009EE3"/>
<rect opacity="0.2" x="258.377" y="266.167" width="11.9778" height="6.83333" rx="3.41667" fill="#009EE3"/>
</g>
<path fill-rule="evenodd" clip-rule="evenodd" d="M54.387 157.023H55.3373C56.4123 157.023 57.2855 157.895 57.2892 158.969V161.961C57.2892 163.038 56.416 163.91 55.3373 163.91H54.3907V166.976C54.3907 168.071 53.4917 168.826 52.5341 168.826C52.1525 168.826 51.7599 168.701 51.4114 168.434L45.5739 163.91H44.9135L45.8418 167.372C46.1573 168.544 45.2731 169.698 44.0549 169.698H43.7211C42.8845 169.698 42.1507 169.134 41.9342 168.328L40.7455 163.91H40.3052C39.3072 163.91 38.5 163.082 38.5 162.06V158.906C38.5 157.888 39.3072 157.06 40.3052 157.06H45.5849L51.3967 152.474C51.5728 152.335 51.7599 152.236 51.9507 152.17C52.1415 152.108 52.3397 152.075 52.5341 152.075C53.4881 152.075 54.3907 152.826 54.387 153.921V157.023ZM44.0586 168.599C44.3815 168.599 44.5723 168.416 44.6567 168.306C44.7411 168.196 44.8695 167.965 44.7851 167.657L43.7761 163.91H41.8829L42.9983 168.046C43.0863 168.372 43.3835 168.599 43.7247 168.599H44.0586ZM45.5813 162.848H40.3088C39.9199 162.848 39.6007 162.511 39.6007 162.101V158.91C39.6007 158.496 39.9163 158.163 40.3088 158.163H45.5813V162.848ZM52.5304 167.738C52.846 167.738 53.2863 167.507 53.2863 166.991V153.917C53.2863 153.401 52.8423 153.17 52.5304 153.17C52.3653 153.17 52.2149 153.225 52.0755 153.335L46.8287 157.474V163.518L52.0828 167.577C52.2186 167.683 52.369 167.738 52.5304 167.738ZM56.1848 161.961C56.1848 162.43 55.8032 162.811 55.3336 162.811H54.387V158.122H55.3373C55.8069 158.122 56.1848 158.503 56.1848 158.969V161.961ZM48.744 157.254L50.5088 155.87C50.6702 155.745 50.9014 155.774 51.0261 155.932C51.1509 156.089 51.1215 156.32 50.9638 156.445L49.1989 157.829C49.1292 157.881 49.0522 157.906 48.9715 157.906C48.8614 157.906 48.755 157.859 48.6816 157.767C48.5569 157.61 48.5862 157.379 48.744 157.254Z" fill="#0B64E0"/>
<rect opacity="0.2" x="71.8662" y="157.167" width="39.3556" height="6.83333" rx="3.41667" fill="#009EE3"/>
<rect opacity="0.2" x="115.5" y="157.167" width="15.4" height="6.83333" rx="3.41667" fill="#009EE3"/>
<rect opacity="0.2" x="135.178" y="157.167" width="42.7778" height="6.83333" rx="3.41667" fill="#009EE3"/>
<rect opacity="0.2" x="258.377" y="157.167" width="11.9778" height="6.83333" rx="3.41667" fill="#009EE3"/>
<path opacity="0.0697312" fill-rule="evenodd" clip-rule="evenodd" d="M195.273 136.326L184.247 179.325H192.303C197.227 158.236 199.451 136.326 199.451 136.326H195.273Z" fill="black"/>
<path opacity="0.0697312" fill-rule="evenodd" clip-rule="evenodd" d="M120.473 136.326L110.65 184.16H116.334C118.131 178.014 129.937 140.35 130.385 138.475L120.473 136.326Z" fill="black"/>
<path fill-rule="evenodd" clip-rule="evenodd" d="M148.683 280.968C149.035 283.253 151.335 286.029 154.458 283.723C157.58 281.417 158.19 278.79 158.447 277.594C158.704 276.398 159.302 271.273 159.516 269.992C159.73 268.711 160.823 263.297 160.555 260.986C160.286 258.674 157.83 256.264 155.123 259.626C152.415 262.988 152.843 266.789 151.517 270.035C150.191 273.281 148.19 277.781 148.683 280.968Z" fill="#011E4B"/>
<path fill-rule="evenodd" clip-rule="evenodd" d="M153.698 265.529C154.297 263.351 155.003 260.596 157.506 261.012C160.008 261.429 158.703 266.81 158.703 266.81L155.997 268.187L153.698 265.529Z" fill="#011E4B"/>
<path fill-rule="evenodd" clip-rule="evenodd" d="M111.736 190.793L111.808 191.581L110.495 196.943L103.095 199.277C103.095 199.277 108.899 191.952 109.168 188.754L111.736 190.793Z" fill="#FFC8FF"/>
<path fill-rule="evenodd" clip-rule="evenodd" d="M149.674 69.3557C142.703 61.6246 137.972 45.8411 144.132 32.1743C150.292 18.5075 170.318 12.6286 175.731 27.5618C178.982 36.5305 175.219 41.8908 180.352 42.7451C185.486 43.5995 197.633 38.7922 205.504 41.0354C213.376 43.2786 221.589 48.2325 219.536 58.4825C217.482 68.7325 214.817 74.9645 224.498 82.0575C232.476 87.9025 231.792 104.065 218.787 108.046C208.814 111.098 192.616 111.051 177.371 92.6283C177.371 92.6283 159.644 80.4123 149.674 69.3557Z" fill="#3914A4"/>
<path fill-rule="evenodd" clip-rule="evenodd" d="M207.077 106.841C198.053 106.841 188.689 102.177 183.096 94.861C182.838 94.5238 182.903 94.041 183.241 93.7832C183.579 93.526 184.063 93.5905 184.321 93.9283C189.731 101.006 198.839 105.477 207.558 105.299C215.131 105.15 221.782 101.545 226.284 95.149C226.529 94.8011 227.01 94.717 227.357 94.9615C227.705 95.2059 227.789 95.6851 227.544 96.0326C222.753 102.841 215.665 106.677 207.588 106.836C207.418 106.839 207.247 106.841 207.077 106.841Z" fill="#CC3BFF"/>
<path fill-rule="evenodd" clip-rule="evenodd" d="M137.402 92.9056C137.387 97.39 154.086 94.2037 158.791 105.846C158.791 105.846 158.99 97.7713 152.867 93.1629C147.802 89.3519 137.42 87.5889 137.402 92.9056Z" fill="#479BD1"/>
<path fill-rule="evenodd" clip-rule="evenodd" d="M95.9455 142.376C94.1571 144.71 119.281 159.933 121.659 153.808C124.039 147.683 100.304 136.688 95.9455 142.376Z" fill="#7D074E"/>
<path fill-rule="evenodd" clip-rule="evenodd" d="M121.361 152.484L111.736 190.793H109.297L106.346 144.284L121.361 152.484Z" fill="#FFC8FF"/>
<path fill-rule="evenodd" clip-rule="evenodd" d="M143.944 110.857L143.788 111.223C142.89 113.321 140.527 114.352 138.395 113.66L97.2775 100.178C95.9289 99.7357 95.1949 98.2863 95.6379 96.9405C96.0537 95.6756 97.3714 94.9551 98.646 95.2385L136.889 104.208L143.684 82.7637C144.681 79.8112 147.887 78.2245 150.844 79.2198C153.802 80.2145 155.391 83.4156 154.395 86.3676C154.348 86.5044 154.292 86.65 154.237 86.7807L143.944 110.857Z" fill="#FFC8FF"/>
<path fill-rule="evenodd" clip-rule="evenodd" d="M181.378 227.266C178.854 229.007 164.224 229.743 160.566 222.824C156.909 215.906 181.378 227.266 181.378 227.266Z" fill="#011E4B"/>
<path fill-rule="evenodd" clip-rule="evenodd" d="M121.66 153.807C121.66 153.807 111.458 145.052 95.9463 142.376C95.9463 142.376 100.722 127.24 106.26 122.204C110.581 118.274 158.62 110.245 158.62 110.245H165.34L166.663 136.327L127.644 138.403L121.66 153.807Z" fill="#E43886"/>
<path fill-rule="evenodd" clip-rule="evenodd" d="M160.246 220.995L154.728 266.825L157.004 268.004L175.389 223.849L160.246 220.995Z" fill="#FFC8FF"/>
<path fill-rule="evenodd" clip-rule="evenodd" d="M165.34 110.245H184.971C184.971 110.245 193.869 116.737 194.553 121.862C195.238 126.987 198.66 173.077 181.378 227.266C181.378 227.266 162.556 229.06 158.791 221.799C169.264 174.137 165.34 110.245 165.34 110.245Z" fill="#E43886"/>
<path fill-rule="evenodd" clip-rule="evenodd" d="M107.187 196.701C107.811 196.555 109.078 195.861 109.791 194.962C111.5 192.81 111.532 191.672 111.808 191.581C112.083 191.49 115.069 193.059 115.69 195.02C116.311 196.982 109.252 200.254 109.252 200.254L107.187 196.701Z" fill="#011E4B"/>
<path fill-rule="evenodd" clip-rule="evenodd" d="M94.3545 210.547C94.1912 210.314 94.3119 209.366 95.4643 208.311C101.705 202.6 102.733 195.038 102.733 195.038C102.733 195.038 107.347 195.112 108.173 201.11L101.953 206.007L94.3545 210.547Z" fill="#011E4B"/>
<path fill-rule="evenodd" clip-rule="evenodd" d="M103.11 204.84C102.533 204.853 98.8682 204.626 99.322 203.212C100.786 200.409 101.46 196.904 103.129 196.653C104.797 196.402 108.467 197.003 109.918 195.943C111.369 194.882 112.599 191.885 112.599 191.885L113.956 192.789C113.956 192.789 110.489 198.745 110.108 199.569C109.727 200.392 103.11 204.84 103.11 204.84Z" fill="#011E4B"/>
<path fill-rule="evenodd" clip-rule="evenodd" d="M94.3541 210.547C93.8813 211.185 95.3033 212.961 95.3033 212.961C95.3033 212.961 101.064 210.368 105.167 207.039C112.238 201.304 117.477 197.53 117.228 197.075C116.979 196.62 115.69 195.02 115.69 195.02C115.69 195.02 108.556 200.917 105.823 202.913C100.259 206.973 94.3541 210.547 94.3541 210.547Z" fill="#011E4B"/>
<path fill-rule="evenodd" clip-rule="evenodd" d="M104.004 196.589C103.677 196.597 103.38 196.615 103.129 196.653C101.46 196.903 100.786 200.409 99.3217 203.212C99.1553 203.732 99.5409 204.193 100.511 204.473C101.118 203.651 103.152 199.772 104.004 196.589Z" fill="#011E4B"/>
<path fill-rule="evenodd" clip-rule="evenodd" d="M101.609 201.226C101.526 201.226 101.442 201.213 101.36 201.185L100.441 200.871C100.038 200.734 99.8237 200.297 99.9618 199.895C100.099 199.493 100.539 199.277 100.939 199.417L101.858 199.73C102.261 199.868 102.475 200.305 102.337 200.706C102.228 201.025 101.929 201.226 101.609 201.226Z" fill="#011E4B"/>
<path fill-rule="evenodd" clip-rule="evenodd" d="M100.524 203.742C100.422 203.742 100.319 203.722 100.219 203.679L99.3265 203.294C98.9358 203.127 98.7561 202.674 98.9245 202.284C99.0924 201.895 99.5451 201.714 99.9358 201.883L100.828 202.267C101.219 202.435 101.399 202.887 101.231 203.277C101.106 203.568 100.822 203.742 100.524 203.742Z" fill="#011E4B"/>
<path fill-rule="evenodd" clip-rule="evenodd" d="M201.141 89.5744C202.326 91.7658 182.49 100.764 182.319 94.3575C182.148 87.9513 198.232 84.1931 201.141 89.5744Z" fill="#479BD1"/>
<path fill-rule="evenodd" clip-rule="evenodd" d="M158.62 105.846C158.193 103.754 154.599 92.9056 137.403 92.9056C136.974 84.4494 145.787 66.17 161.7 64.035C189.868 60.2548 201.141 89.5744 201.141 89.5744C201.141 89.5744 190.618 89.5703 182.319 94.3575L185.014 105.846H158.62Z" fill="#2B5BD8"/>
<path fill-rule="evenodd" clip-rule="evenodd" d="M182.095 96.2048C182.131 93.8027 181.613 89.3179 182.154 80.5418C179.816 91.8107 180.137 101.875 180.982 106.316L185.57 105.205L182.095 96.2048Z" fill="#479BD1"/>
<path fill-rule="evenodd" clip-rule="evenodd" d="M158.62 110.245H185.014V105.846H158.62V110.245Z" fill="#7D074E"/>
<path fill-rule="evenodd" clip-rule="evenodd" d="M189.68 114.306C188.339 112.975 187.009 111.851 186.107 111.125C185.446 111.161 185.013 111.197 185.013 111.197L165.734 119.274L151.267 125.294C161.935 122.753 184.144 116.812 189.472 114.402C189.544 114.369 189.611 114.338 189.68 114.306Z" fill="#7D074E"/>
<path fill-rule="evenodd" clip-rule="evenodd" d="M192.615 90.5879C192.615 90.5879 191.815 111.099 191.045 112.252C190.275 113.405 150.359 125.572 150.359 125.572V122.112L183.434 104.991C183.434 104.991 181.408 95.4905 182.318 94.3573C183.794 92.521 192.615 90.5879 192.615 90.5879Z" fill="#FFC8FF"/>
<path fill-rule="evenodd" clip-rule="evenodd" d="M165.314 50.4962C166.212 58.6962 168.206 63.7356 168.206 63.7356C168.206 63.7356 163.582 71.5087 162.042 76.89C157.636 72.2775 158.619 64.6694 158.619 64.6694C158.619 64.6694 158.577 58.3118 157.807 55.2368L165.314 50.4962Z" fill="#C1E3FE"/>
<mask id="mask1_3763_11391" style="mask-type:luminance" maskUnits="userSpaceOnUse" x="157" y="50" width="12" height="27">
<path fill-rule="evenodd" clip-rule="evenodd" d="M165.315 50.4964C166.213 58.6964 168.207 63.7358 168.207 63.7358L168.201 63.7458C168.015 64.0587 163.551 71.621 162.043 76.8901C157.636 72.2776 158.62 64.6696 158.62 64.6696C158.62 64.6696 158.578 58.312 157.808 55.237L165.315 50.4964Z" fill="white"/>
</mask>
<g mask="url(#mask1_3763_11391)">
<path fill-rule="evenodd" clip-rule="evenodd" d="M165.315 50.4964C166.213 58.6964 168.207 63.7358 168.207 63.7358C168.207 63.7358 163.583 71.5089 162.043 76.8901C157.636 72.2776 158.62 64.6696 158.62 64.6696C158.62 64.6696 158.578 58.312 157.808 55.237L165.315 50.4964Z" fill="#FFC8FF"/>
</g>
<path fill-rule="evenodd" clip-rule="evenodd" d="M166.053 136.327L165.95 127.526C165.95 127.526 155.283 134.681 127.643 138.404L165.945 136.364L166.053 136.327Z" fill="#7D074E"/>
<path fill-rule="evenodd" clip-rule="evenodd" d="M167.866 49.1154C166.811 50.5319 161.562 57.3272 154.775 56.4477C148.845 55.679 145.086 35.7858 153.957 27.3526C162.829 18.9189 180.457 32.2136 167.866 49.1154Z" fill="#FFC8FF"/>
<path fill-rule="evenodd" clip-rule="evenodd" d="M168.241 63.7392C170.279 66.9372 175.83 73.039 189.472 72.8837C184.319 68.1569 177.326 64.1651 168.241 63.7392Z" fill="#479BD1"/>
<path fill-rule="evenodd" clip-rule="evenodd" d="M188.413 71.9481C156.01 71.3808 166.425 41.5938 166.425 41.5938C166.425 41.5938 159.958 39.7739 160.166 29.2564C157.234 35.2014 148.097 35.6698 148.097 35.6698L149.974 30.2814L154.716 23.3524L168.347 24.2282L175.262 35.1045L173.484 48.7744L212.501 43.9205C215.429 71.9481 188.413 71.9481 188.413 71.9481Z" fill="#3914A4"/>
<path fill-rule="evenodd" clip-rule="evenodd" d="M171.138 41.521C171.406 39.4561 169.947 37.564 167.879 37.2959C165.809 37.0274 163.915 38.4844 163.646 40.5498C163.377 42.6157 164.837 44.5068 166.905 44.7754C168.974 45.0434 170.869 43.5864 171.138 41.521Z" fill="#FFC8FF"/>
<path fill-rule="evenodd" clip-rule="evenodd" d="M165.694 40.8153C165.816 39.8795 166.675 39.2189 167.612 39.3403C168.55 39.4618 169.212 40.3192 169.09 41.2555C168.968 42.1919 168.109 42.8525 167.171 42.7305C166.234 42.609 165.572 41.7516 165.694 40.8153Z" fill="#AD55D3"/>
<path fill-rule="evenodd" clip-rule="evenodd" d="M83.3037 95.5537C83.2426 96.4972 86.0044 98.5646 89.2338 98.2869C92.4636 98.0091 94.7952 91.2615 91.7363 90.9412C88.6778 90.6209 83.448 93.3325 83.3037 95.5537Z" fill="#AD55D3"/>
<path fill-rule="evenodd" clip-rule="evenodd" d="M78.7109 99.3869L81.1493 97.2621L88.2933 93.6531L89.3575 95.7082L81.8767 99.35L78.7109 99.3869Z" fill="#011E4B"/>
<path fill-rule="evenodd" clip-rule="evenodd" d="M83.4094 98.2869C83.2246 98.6287 83.276 99.2247 83.6307 99.3498C84.2626 99.5722 84.6697 98.722 84.6697 98.722L83.4094 98.2869Z" fill="#AD55D3"/>
<path fill-rule="evenodd" clip-rule="evenodd" d="M87.6716 99.6992C87.4843 100.196 86.3883 101.748 85.8118 101.426C84.742 100.828 86.2523 99.2523 86.2523 99.2523L87.6716 99.6992Z" fill="#AD55D3"/>
<path fill-rule="evenodd" clip-rule="evenodd" d="M84.6693 98.7218C84.486 99.098 83.5666 100.571 84.5718 100.977C85.3094 101.275 86.2529 99.2522 86.2529 99.2522L84.6693 98.7218Z" fill="#AD55D3"/>
<path fill-rule="evenodd" clip-rule="evenodd" d="M81.4912 96.3009C81.908 96.0446 84.9136 90.3749 85.4911 90.0868C86.0686 89.7983 92.5171 88.7092 93.7363 89.0936C94.9554 89.478 98.9979 95.5962 105.126 96.717L98.1961 100.369C98.1961 100.369 94.9878 101.298 93.6403 101.106C92.2928 100.913 89.8863 100.081 88.9561 100.017C88.0254 99.9525 81.8654 97.7426 81.8654 97.7426C81.8654 97.7426 81.8013 96.2368 83.9511 96.5249C86.1004 96.8134 89.9864 97.7723 90.9771 96.365C92.0145 94.8915 91.6054 92.5612 89.1804 92.0728C87.9079 91.8165 86.7744 92.8841 86.7744 92.8841C86.7744 92.8841 84.8068 95.6285 84.1436 95.9806C81.9014 97.1696 81.4912 96.3009 81.4912 96.3009Z" fill="#FFC8FF"/>
<path fill-rule="evenodd" clip-rule="evenodd" d="M88.293 93.6528L89.3571 95.7085L104.292 88.2931L103.036 86.1811L88.293 93.6528Z" fill="#011E4B"/>
<path fill-rule="evenodd" clip-rule="evenodd" d="M153.699 265.529C154.294 266.508 155.838 268.22 158.704 266.81L157.656 274.647L151.196 273.195L153.699 265.529Z" fill="#011E4B"/>
<path fill-rule="evenodd" clip-rule="evenodd" d="M150.308 273.019C150.415 273.761 150.893 274.907 151.827 275.298C153.126 275.843 154.884 269.864 153.955 267.985C153.335 266.73 153.109 264.767 153.07 263.802C152.481 265.937 152.313 268.085 151.517 270.035C151.143 270.949 150.308 273.019 150.308 273.019Z" fill="#011E4B"/>
<path fill-rule="evenodd" clip-rule="evenodd" d="M156.169 276.462C157.349 276.451 158.312 275.56 158.918 274.43C158.918 274.43 159.396 270.714 159.516 269.992C159.639 269.255 160.052 267.152 160.33 265.058C159.832 266.057 159.218 267.332 157.778 268.46C155.917 269.917 154.831 276.475 156.169 276.462Z" fill="#011E4B"/>
<path fill-rule="evenodd" clip-rule="evenodd" d="M153.955 267.985C153.789 267.649 153.653 267.262 153.54 266.857L153.537 266.854C153.121 267.749 151.77 272.38 151.002 274.644C151.223 274.922 151.495 275.159 151.827 275.299C153.126 275.843 154.884 269.864 153.955 267.985Z" fill="#011E4B"/>
<path fill-rule="evenodd" clip-rule="evenodd" d="M157.778 268.46C155.918 269.917 154.83 276.475 156.169 276.462C156.52 276.458 156.848 276.37 157.157 276.228C156.834 273.947 158.233 268.432 158.433 267.885L158.414 267.896C158.22 268.086 158.014 268.275 157.778 268.46Z" fill="#011E4B"/>
<path fill-rule="evenodd" clip-rule="evenodd" d="M155.999 275.043C155.936 275.043 155.872 275.036 155.808 275.02L152.568 274.197C152.156 274.093 151.906 273.674 152.011 273.262C152.117 272.851 152.534 272.603 152.948 272.706L156.188 273.529C156.6 273.634 156.849 274.052 156.745 274.464C156.656 274.812 156.343 275.043 155.999 275.043Z" fill="#011E4B"/>
<path fill-rule="evenodd" clip-rule="evenodd" d="M156.373 272.475C156.312 272.475 156.251 272.468 156.188 272.453L153.169 271.713C152.756 271.611 152.503 271.195 152.604 270.782C152.705 270.37 153.121 270.117 153.536 270.219L156.555 270.959C156.969 271.061 157.221 271.477 157.12 271.889C157.034 272.24 156.719 272.475 156.373 272.475Z" fill="#011E4B"/>
<path fill-rule="evenodd" clip-rule="evenodd" d="M151.73 282.826C149.26 282.218 148.875 278.951 149.022 276.93C148.667 278.371 148.496 279.763 148.683 280.968C149.035 283.253 151.335 286.029 154.457 283.723C156.871 281.94 157.781 279.97 158.189 278.613C157.141 280.899 154.2 283.434 151.73 282.826Z" fill="#011E4B"/>
<path fill-rule="evenodd" clip-rule="evenodd" d="M150.36 125.572C148.05 125.913 145.911 125.999 142.446 122.283C138.981 118.568 137.606 115.183 132.932 114.977C144.375 110.923 150.36 122.112 150.36 122.112V125.572Z" fill="#FFC8FF"/>
<path fill-rule="evenodd" clip-rule="evenodd" d="M148.4 113.603C148.315 117.292 149.9 120.371 150.632 121.963C151.363 123.556 147.302 120.84 147.302 120.84C147.302 120.84 146.316 116.559 146.674 115.148C147.067 113.603 148.4 113.603 148.4 113.603Z" fill="#FFC8FF"/>
<path fill-rule="evenodd" clip-rule="evenodd" d="M151.279 41.2167L148.648 45.103C148.134 45.4658 148.414 46.0921 148.964 46.1664L151.474 46.5077L151.279 41.2167Z" fill="#AD55D3"/>
<path fill-rule="evenodd" clip-rule="evenodd" d="M157.74 38.4355C157.649 38.7865 157.86 39.1448 158.211 39.236C158.562 39.3267 158.921 39.1161 159.013 38.766C159.104 38.415 158.893 38.0567 158.542 37.9655C158.19 37.8738 157.831 38.0844 157.74 38.4355Z" fill="#011E4B"/>
<path fill-rule="evenodd" clip-rule="evenodd" d="M149.013 38.4355C148.922 38.7865 149.133 39.1448 149.484 39.236C149.836 39.3267 150.195 39.1161 150.286 38.766C150.377 38.415 150.166 38.0567 149.815 37.9655C149.464 37.8738 149.105 38.0844 149.013 38.4355Z" fill="#011E4B"/>
<path opacity="0.190709" fill-rule="evenodd" clip-rule="evenodd" d="M154.712 43.3702C154.333 44.8268 155.209 46.3146 156.668 46.6933C158.127 47.072 159.617 46.1982 159.997 44.7412C160.376 43.2841 159.5 41.7964 158.041 41.4176C156.582 41.0394 155.092 41.9132 154.712 43.3702Z" fill="#CC3BFF"/>
<path fill-rule="evenodd" clip-rule="evenodd" d="M155.6 51.2325C155.51 52.0458 154.299 52.5788 152.897 52.423C151.494 52.2672 150.431 51.481 150.522 50.6677C150.612 49.8544 151.7 50.5903 153.103 50.7466C154.504 50.9019 155.691 50.4191 155.6 51.2325Z" fill="#F5FAFF"/>
<ellipse cx="66.7329" cy="82" rx="14.5444" ry="14.5208" fill="url(#paint2_linear_3763_11391)"/>
<g filter="url(#filter4_d_3763_11391)">
<path d="M72.9769 76.617C73.5449 76.0499 74.4658 76.0499 75.0338 76.617C75.5581 77.1405 75.5985 77.9641 75.1548 78.5338L75.0338 78.6706L66.3072 87.3831C65.7829 87.9065 64.9579 87.9468 64.3873 87.5039L64.2503 87.3831L59.8869 83.0268C59.3189 82.4597 59.3189 81.5403 59.8869 80.9733C60.4112 80.4498 61.2362 80.4095 61.8068 80.8525L61.9438 80.9733L65.2787 84.3016L72.9769 76.617Z" fill="white"/>
</g>
<ellipse cx="230.144" cy="191.333" rx="14.5444" ry="14.5208" fill="url(#paint3_linear_3763_11391)"/>
<ellipse cx="230.144" cy="196.458" rx="1.71111" ry="1.70833" fill="white"/>
<path d="M230.571 183.646C231.23 183.646 231.772 184.195 231.846 184.903L231.855 185.069V190.764C231.855 191.55 231.28 192.187 230.571 192.187C229.913 192.187 229.371 191.638 229.297 190.93L229.288 190.764V185.069C229.288 184.283 229.863 183.646 230.571 183.646Z" fill="white"/>
<defs>
<filter id="filter0_b_3763_11391" x="10.3637" y="68.4086" width="287.272" height="75.0161" filterUnits="userSpaceOnUse" color-interpolation-filters="sRGB">
<feFlood flood-opacity="0" result="BackgroundImageFix"/>
<feGaussianBlur in="BackgroundImageFix" stdDeviation="6.7957"/>
<feComposite in2="SourceAlpha" operator="in" result="effect1_backgroundBlur_3763_11391"/>
<feBlend mode="normal" in="SourceGraphic" in2="effect1_backgroundBlur_3763_11391" result="shape"/>
</filter>
<filter id="filter1_b_3763_11391" x="10.3637" y="123.075" width="287.272" height="75.0161" filterUnits="userSpaceOnUse" color-interpolation-filters="sRGB">
<feFlood flood-opacity="0" result="BackgroundImageFix"/>
<feGaussianBlur in="BackgroundImageFix" stdDeviation="6.7957"/>
<feComposite in2="SourceAlpha" operator="in" result="effect1_backgroundBlur_3763_11391"/>
<feBlend mode="normal" in="SourceGraphic" in2="effect1_backgroundBlur_3763_11391" result="shape"/>
</filter>
<filter id="filter2_b_3763_11391" x="10.3637" y="177.409" width="287.272" height="75.0161" filterUnits="userSpaceOnUse" color-interpolation-filters="sRGB">
<feFlood flood-opacity="0" result="BackgroundImageFix"/>
<feGaussianBlur in="BackgroundImageFix" stdDeviation="6.7957"/>
<feComposite in2="SourceAlpha" operator="in" result="effect1_backgroundBlur_3763_11391"/>
<feBlend mode="normal" in="SourceGraphic" in2="effect1_backgroundBlur_3763_11391" result="shape"/>
</filter>
<filter id="filter3_b_3763_11391" x="10.3637" y="232.075" width="287.272" height="75.0161" filterUnits="userSpaceOnUse" color-interpolation-filters="sRGB">
<feFlood flood-opacity="0" result="BackgroundImageFix"/>
<feGaussianBlur in="BackgroundImageFix" stdDeviation="6.7957"/>
<feComposite in2="SourceAlpha" operator="in" result="effect1_backgroundBlur_3763_11391"/>
<feBlend mode="normal" in="SourceGraphic" in2="effect1_backgroundBlur_3763_11391" result="shape"/>
</filter>
<filter id="filter4_d_3763_11391" x="56.4609" y="74.1917" width="21.999" height="17.6166" filterUnits="userSpaceOnUse" color-interpolation-filters="sRGB">
<feFlood flood-opacity="0" result="BackgroundImageFix"/>
<feColorMatrix in="SourceAlpha" type="matrix" values="0 0 0 0 0 0 0 0 0 0 0 0 0 0 0 0 0 0 127 0" result="hardAlpha"/>
<feOffset dy="1"/>
<feGaussianBlur stdDeviation="1.5"/>
<feColorMatrix type="matrix" values="0 0 0 0 0 0 0 0 0 0.686275 0 0 0 0 0.490196 0 0 0 0.272946 0"/>
<feBlend mode="normal" in2="BackgroundImageFix" result="effect1_dropShadow_3763_11391"/>
<feBlend mode="normal" in="SourceGraphic" in2="effect1_dropShadow_3763_11391" result="shape"/>
</filter>
<radialGradient id="paint0_radial_3763_11391" cx="0" cy="0" r="1" gradientUnits="userSpaceOnUse" gradientTransform="translate(126.129 82.1436) rotate(17.1047) scale(157.573 100.59)">
<stop stop-color="#00D699"/>
<stop offset="1" stop-color="#009EE3"/>
</radialGradient>
<radialGradient id="paint1_radial_3763_11391" cx="0" cy="0" r="1" gradientUnits="userSpaceOnUse" gradientTransform="translate(126.129 136.81) rotate(17.1047) scale(157.573 100.59)">
<stop stop-color="#00D699"/>
<stop offset="1" stop-color="#009EE3"/>
</radialGradient>
<linearGradient id="paint2_linear_3763_11391" x1="52.1885" y1="67.4792" x2="52.1885" y2="96.5209" gradientUnits="userSpaceOnUse">
<stop stop-color="#09E6A7"/>
<stop offset="1" stop-color="#05C991"/>
</linearGradient>
<linearGradient id="paint3_linear_3763_11391" x1="215.6" y1="176.812" x2="215.6" y2="205.854" gradientUnits="userSpaceOnUse">
<stop stop-color="#FFBE27"/>
<stop offset="1" stop-color="#FF8F1C"/>
</linearGradient>
</defs>
</svg>
