<svg width="22" height="40" viewBox="0 0 22 40" fill="none" xmlns="http://www.w3.org/2000/svg">

<path d="M19.2607 11.5554L18.1134 30.1413C18.0589 31.2152 17.2873 31.9999 16.2777 31.9999H5.7221C4.70842 31.9999 3.95117 31.2152 3.88635 30.1413L2.739 11.5554" stroke="#002DD1" stroke-width="1.6" stroke-linecap="round" stroke-linejoin="round"/>

<path d="M21 11.5554H0.999999" stroke="#002DD1" stroke-width="1.6" stroke-miterlimit="10" stroke-linecap="round"/>

<path d="M14.9131 11.5556V9.33334C14.9136 9.1581 14.8761 8.98449 14.8025 8.82249C14.729 8.66049 14.6209 8.5133 14.4846 8.38939C14.3482 8.26547 14.1862 8.16728 14.0079 8.10045C13.8296 8.03363 13.6385 7.99949 13.4457 8.00001H8.55439C8.36153 7.99949 8.17047 8.03363 7.99218 8.10045C7.81389 8.16728 7.6519 8.26547 7.51553 8.38939C7.37916 8.5133 7.2711 8.66049 7.19755 8.82249C7.12401 8.98449 7.08644 9.1581 7.087 9.33334V11.5556" stroke="#002DD1" stroke-width="1.6" stroke-linecap="round" stroke-linejoin="round"/>

<path d="M10.7822 15V28.3334" stroke="#002DD1" stroke-width="1.6" stroke-linecap="round" stroke-linejoin="round"/>

<path d="M14.6953 15V28.3334" stroke="#002DD1" stroke-width="1.6" stroke-linecap="round" stroke-linejoin="round"/>

<path d="M7.08594 15.1111V28.4444" stroke="#002DD1" stroke-width="1.6" stroke-linecap="round" stroke-linejoin="round"/>

</svg>