<svg width="24" height="24" viewBox="0 0 24 24" fill="none" xmlns="http://www.w3.org/2000/svg">

<path fill-rule="evenodd" clip-rule="evenodd" d="M24 12C24 18.6274 18.6274 24 12 24C5.37258 24 0 18.6274 0 12C0 5.37258 5.37258 0 12 0C18.6274 0 24 5.37258 24 12ZM12 5.25C12.7693 5.25 13.4033 5.82906 13.4899 6.57507L13.5 6.75V12C13.5 12.8284 12.8284 13.5 12 13.5C11.2307 13.5 10.5967 12.9209 10.5101 12.1749L10.5 12V6.75C10.5 5.92157 11.1716 5.25 12 5.25ZM12.075 19.2C13.1105 19.2 13.95 18.3605 13.95 17.325C13.95 16.2894 13.1105 15.45 12.075 15.45C11.0395 15.45 10.2 16.2894 10.2 17.325C10.2 18.3605 11.0395 19.2 12.075 19.2Z" fill="#D6103B"/>

</svg>